<svg version="1.1" id="Layer_1" xmlns="http://www.w3.org/2000/svg" xmlns:xlink="http://www.w3.org/1999/xlink" x="0px" y="0px" viewBox="0 0 500 500" style="width: 262px;" xml:space="preserve" data-imageid="team-meeting-1-20" imageName="Team Meeting 1" class="illustrations_image">
<style type="text/css">
	.st0_team-meeting-1-20{fill:#D1D3D4;}
	.st1_team-meeting-1-20{fill:#231F20;}
	.st2_team-meeting-1-20{fill:#FFFFFF;}
	.st3_team-meeting-1-20{fill:#68E1FD;}
	.st4_team-meeting-1-20{fill:none;}
</style>
<path id="Floor_team-meeting-1-20" class="st0_team-meeting-1-20" d="M447.1,345.5H52.9c-0.4,0-0.7-0.3-0.7-0.7c0-0.4,0.3-0.7,0.7-0.7c0,0,0,0,0,0h394.2&#10;&#9;c0.4,0,0.7,0.3,0.7,0.7C447.8,345.2,447.5,345.5,447.1,345.5z"/>
<g id="Chair_2_team-meeting-1-20">
	<path class="st1_team-meeting-1-20" d="M263.1,184.5h11.6c19.3,0,34.9,15.6,34.9,34.9l0,0v38.3l0,0h-81.5l0,0v-38.3&#10;&#9;&#9;C228.2,200.1,243.9,184.5,263.1,184.5z"/>
	<path class="st1_team-meeting-1-20" d="M309.7,258.3h-81.5c-0.3,0-0.6-0.3-0.6-0.6v-38.3c0-19.6,15.9-35.5,35.5-35.5h11.6c19.6,0,35.5,15.9,35.5,35.5&#10;&#9;&#9;v38.3C310.3,258.1,310,258.3,309.7,258.3C309.7,258.3,309.7,258.3,309.7,258.3z M228.9,257.1h80.2v-37.7&#10;&#9;&#9;c0-18.9-15.4-34.3-34.3-34.3h-11.6c-18.9,0-34.3,15.4-34.3,34.3L228.9,257.1z"/>
</g>
<g id="Character_Female_team-meeting-1-20">
	<path class="st2_team-meeting-1-20" d="M296.3,162.7c0.2,4.8-0.3,9.6-1.7,14.2c-1.6,5.8-1.1,12.5-1.4,18.4c0,2.6-0.4,5.1-1,7.6&#10;&#9;&#9;c-2.3,8.3-10.4,13.9-18.9,15.4c-8.8,1.5-18.3-1.1-24.7-7.3s-9.2-16-6.6-24.5c0.7-2.5,2.1-4.8,3.9-6.7c2.1-2,4.7-3.1,6.9-5&#10;&#9;&#9;c5.1-4.6,5.9-12.1,8.5-18.5c0.9-2.7,2.6-5,4.8-6.7c2.5-1.7,5.8-2,8.9-1.9c6.7,0.2,14.9,2.4,19,8.1&#10;&#9;&#9;C295.4,157.8,296.1,160.2,296.3,162.7z"/>
	<path class="st1_team-meeting-1-20" d="M268.4,219.3c-7.5,0.1-14.7-2.8-20.2-7.9c-6.7-6.5-9.4-16.6-6.7-25.2c0.8-2.6,2.2-5.1,4.1-7&#10;&#9;&#9;c1.1-1,2.4-1.9,3.7-2.7c1.1-0.7,2.2-1.5,3.2-2.3c3.5-3.1,4.9-7.7,6.4-12.5c0.6-1.9,1.2-3.9,2-5.8c1.3-3.3,3-5.6,5.1-7&#10;&#9;&#9;c2.9-1.9,6.7-2.1,9.2-2c3.2,0.1,14.1,0.9,19.5,8.4c1.4,2.2,2.3,4.7,2.4,7.2l0,0c0.5,5.4-0.9,11.3-1.7,14.4&#10;&#9;&#9;c-1.1,4.1-1.2,8.7-1.3,13.2c0,1.7,0,3.4-0.1,5.1c-0.1,2.6-0.4,5.2-1,7.8c-2.5,9.1-11.5,14.5-19.4,15.8&#10;&#9;&#9;C271.7,219.2,270.1,219.3,268.4,219.3z M274.2,148.2c-2.7-0.1-5.3,0.5-7.6,1.8c-1.9,1.2-3.4,3.4-4.6,6.4c-0.7,1.8-1.3,3.8-1.9,5.7&#10;&#9;&#9;c-1.5,4.8-3,9.7-6.7,13.1c-1.1,0.9-2.2,1.7-3.4,2.4c-1.2,0.7-2.4,1.6-3.5,2.6c-1.8,1.8-3.1,4-3.8,6.4c-2.5,8.1,0,17.7,6.4,23.9&#10;&#9;&#9;c6.5,6,15.4,8.7,24.1,7.1c7.5-1.3,16-6.4,18.4-14.9c0.6-2.4,0.9-5,0.9-7.5c0.1-1.6,0.1-3.3,0.1-5.1c0.1-4.6,0.1-9.2,1.3-13.5&#10;&#9;&#9;c0.8-3,2.1-8.8,1.6-13.9l0,0c-0.1-2.4-0.9-4.7-2.1-6.6c-4-5.6-12.2-7.7-18.5-7.9L274.2,148.2z"/>
	<path class="st1_team-meeting-1-20" d="M300,322.3c2.1-24,1.3-53.2-9.7-76.6l-46.7,5.5c0,0.4-8.6,41.2-14.9,71.1H300z"/>
	<polygon class="st2_team-meeting-1-20" points="252.9,251.3 258.4,189.2 287.4,190.5 286.2,253 &#9;"/>
	<path class="st1_team-meeting-1-20" d="M286.2,253.6L286.2,253.6l-33.4-1.6c-0.2,0-0.3-0.1-0.4-0.2c-0.1-0.1-0.2-0.3-0.1-0.5l5.5-62.2&#10;&#9;&#9;c0-0.3,0.3-0.6,0.6-0.6c0,0,0,0,0,0l29,1.3c0.3,0,0.6,0.3,0.6,0.6l-1.1,62.5c0,0.2-0.1,0.3-0.2,0.5&#10;&#9;&#9;C286.6,253.6,286.4,253.6,286.2,253.6z M253.6,250.7l32,1.6l1.1-61.2l-27.7-1.2L253.6,250.7z"/>
	<path class="st3_team-meeting-1-20 targetColor" d="M312.5,214.3l-17.5,5.7l3.4,34.5l-19.7,2.8l1.9-63.9l-16.5-0.1c0,0.6-5.6,47.2-6.8,60.9l-18.5-2.9l7.7-32.2&#10;&#9;&#9;l-13.1-9.2c0,0,7.7-23.4,30.5-22.9c21,0.4,13.7,0.7,13.3,0.8c0.4,0,16.6-0.5,24.4,9.2S312.5,214.3,312.5,214.3z" style="fill: rgb(104, 225, 253);"/>
	<path class="st2_team-meeting-1-20" d="M266.2,183.9l-1.5,10.3c0,0,0.1,5.9,6.6,5.2c3.9-0.5,7.4-2.7,9.5-6c0,0,3.3-25.2,3.5-27&#10;&#9;&#9;c-1.1,0.3-4.3,1-5.3,0.4s-0.7-4.1-0.7-5.3c-1.2,1.3-2.1,2.9-2.7,4.6l-4.3-0.5c-0.3-1.6-0.3-3.3,0-4.9c-1.1,1.2-1.9,2.7-2.4,4.2&#10;&#9;&#9;c-1.2-0.2-5.6-1.6-6.5-0.7c-1.3,1.3-3.6,11.1-1.3,15S266.2,183.9,266.2,183.9z"/>
	<path class="st1_team-meeting-1-20" d="M270.3,200.1c-1.5,0.1-3-0.4-4.2-1.4c-1.2-1.2-1.9-2.8-2-4.5c0-0.1,1.1-7.8,1.5-9.9c-2.1-1-3.8-2.6-4.9-4.7&#10;&#9;&#9;c-2.3-4.1-0.1-14.3,1.4-15.8c0.9-0.8,3-0.4,5.7,0.2l0.8,0.2c0.5-1.5,1.3-2.8,2.4-4c0.2-0.2,0.5-0.3,0.8-0.1&#10;&#9;&#9;c0.3,0.1,0.4,0.4,0.3,0.7c-0.3,1.4-0.3,2.8-0.1,4.1l3.3,0.4c0.6-1.6,1.5-3,2.6-4.3c0.2-0.2,0.5-0.3,0.7-0.2&#10;&#9;&#9;c0.2,0.1,0.4,0.3,0.4,0.6v0.5c-0.2,3.4,0.2,4.1,0.4,4.2c0.7,0.4,3.3,0,4.8-0.5c0.2-0.1,0.4,0,0.6,0.1c0.2,0.1,0.3,0.3,0.2,0.6&#10;&#9;&#9;c-0.2,1.8-3.3,26-3.5,27.1c0,0.1,0,0.2-0.1,0.2c-2.2,3.5-5.9,5.9-10,6.3C271.1,200.1,270.7,200.1,270.3,200.1z M265.3,194.3&#10;&#9;&#9;c0.1,2.6,2.2,4.7,4.8,4.6c0.4,0,0.7-0.1,1.1-0.2c3.7-0.4,7-2.5,9-5.6c0.2-1.8,2.8-21.2,3.3-26c-1.4,0.3-3.8,0.8-4.9,0.1&#10;&#9;&#9;c-0.9-0.5-1.1-2.1-1-3.8c-0.6,0.9-1,1.8-1.3,2.8c-0.1,0.3-0.4,0.5-0.7,0.4l-4.3-0.5c-0.3,0-0.5-0.2-0.5-0.5&#10;&#9;&#9;c-0.2-0.9-0.3-1.8-0.2-2.7c-0.4,0.7-0.7,1.4-0.9,2.2c-0.1,0.3-0.4,0.5-0.7,0.5c-0.3,0-0.8-0.2-1.4-0.3c-1-0.2-4-1-4.5-0.6&#10;&#9;&#9;c-1,1-3.3,10.6-1.2,14.3s4.6,4.3,4.6,4.3c0.3,0.1,0.5,0.4,0.5,0.7C266.9,184.1,265.4,194.1,265.3,194.3L265.3,194.3z"/>
	<path class="st2_team-meeting-1-20" d="M281.8,173.4c0.3-0.7,0.8-1.4,1.5-1.8c0.6-0.4,1.3-0.6,2.1-0.7c0.4-0.1,0.8-0.1,1.2-0.1&#10;&#9;&#9;c0.3,0.1,0.5,0.2,0.8,0.4c0.6,0.4,1,0.9,1.2,1.6c0.1,0.5,0,1.1-0.1,1.6c-0.1,0.6-0.4,1.1-0.6,1.6c-0.6,1-1.6,1.8-2.7,2.1&#10;&#9;&#9;c-1.1,0.3-2.4,0.1-3.4-0.5"/>
	<path class="st1_team-meeting-1-20" d="M283.9,178.8c-0.9,0-1.8-0.2-2.6-0.7c-0.3-0.2-0.4-0.5-0.2-0.8c0,0,0,0,0,0c0.2-0.3,0.5-0.3,0.8-0.2&#10;&#9;&#9;c1.8,1.1,4.2,0.5,5.3-1.3c0,0,0,0,0,0c0.3-0.5,0.5-1,0.6-1.5c0.1-0.4,0.2-0.9,0.1-1.3c-0.2-0.5-0.5-0.9-0.9-1.2&#10;&#9;&#9;c-0.2-0.1-0.4-0.2-0.6-0.3c-0.3,0-0.6,0-0.9,0.1c-0.7,0.1-1.3,0.3-1.9,0.6c-0.6,0.4-1,0.9-1.2,1.5c-0.2,0.2-0.5,0.3-0.8,0.1&#10;&#9;&#9;c-0.2-0.1-0.2-0.3-0.2-0.5c0.3-0.8,0.9-1.5,1.7-2c0.7-0.4,1.5-0.7,2.2-0.8c0.5-0.1,1-0.2,1.4-0.1c0.4,0.1,0.7,0.3,1,0.5&#10;&#9;&#9;c0.7,0.4,1.2,1.1,1.4,1.9c0.1,0.6,0.1,1.3-0.1,1.9c-0.2,0.6-0.4,1.2-0.7,1.8C287.4,177.9,285.8,178.8,283.9,178.8L283.9,178.8z"/>
	<path class="st1_team-meeting-1-20" d="M265.8,188c0,0,4,1.9,7.2-0.5c1.8-1.2,3-3.1,3.2-5.2c0,0-5.9,3.2-10,1.9L265.8,188z"/>
	<path class="st1_team-meeting-1-20" d="M269.2,189.3c-1.3,0-2.5-0.3-3.7-0.8c-0.2-0.1-0.4-0.4-0.4-0.6l0.4-3.9c0-0.2,0.1-0.4,0.3-0.5&#10;&#9;&#9;c0.2-0.1,0.4-0.1,0.5-0.1c3.8,1.3,9.4-1.8,9.5-1.8c0.2-0.1,0.4-0.1,0.6,0c0.2,0.1,0.3,0.3,0.3,0.5c-0.3,2.3-1.5,4.4-3.5,5.7&#10;&#9;&#9;C272.1,188.9,270.7,189.3,269.2,189.3z M266.4,187.6c1,0.4,3.9,1.1,6.1-0.6c1.3-0.9,2.2-2.2,2.7-3.6c-1.8,0.8-5.5,2.2-8.6,1.5&#10;&#9;&#9;L266.4,187.6z"/>
	<path class="st2_team-meeting-1-20" d="M267.1,167.6c0,0-4.1,4.4-3.5,5.4s2.9,0.8,2.9,0.8"/>
	<path class="st1_team-meeting-1-20" d="M266,174.4c-0.9,0-2.3-0.1-2.9-1.1s0.6-3,3.5-6.1c0.2-0.2,0.6-0.2,0.9,0c0,0,0,0,0,0c0.2,0.2,0.2,0.6,0,0.9&#10;&#9;&#9;c-1.9,2-3.4,4.2-3.4,4.7c0.3,0.4,1.6,0.5,2.3,0.4c0.3,0,0.6,0.2,0.7,0.6c0,0.3-0.2,0.6-0.6,0.7L266,174.4z"/>
	<ellipse transform="matrix(0.3678 -0.9299 0.9299 0.3678 15.388 360.1322)" class="st1_team-meeting-1-20" cx="272.6" cy="168.7" rx="1.2" ry="0.8"/>
	
		<ellipse transform="matrix(0.3678 -0.9299 0.9299 0.3678 10.8441 350.8351)" class="st1_team-meeting-1-20" cx="263.4" cy="167.4" rx="1.2" ry="0.8"/>
	<path class="st2_team-meeting-1-20" d="M262.1,175.6c0,0,2.3,4.9,8.2,1.5"/>
	<path class="st1_team-meeting-1-20" d="M266.4,178.9c-0.6,0-1.1-0.1-1.6-0.2c-1.4-0.5-2.6-1.5-3.2-2.8c-0.2-0.3-0.1-0.7,0.2-0.8s0.7-0.1,0.8,0.2&#10;&#9;&#9;c0,0,0,0.1,0,0.1c0.5,1,1.4,1.8,2.5,2.2c1.7,0.4,3.4,0,4.8-0.9c0.3-0.2,0.7-0.1,0.9,0.2c0.2,0.3,0.1,0.7-0.2,0.8&#10;&#9;&#9;C269.4,178.4,267.9,178.8,266.4,178.9z"/>
	<line class="st4_team-meeting-1-20" x1="250.5" y1="211.7" x2="254.2" y2="202.1"/>
	<path class="st1_team-meeting-1-20" d="M250.5,212.4c-0.1,0-0.2,0-0.2,0c-0.3-0.1-0.5-0.5-0.4-0.8l3.8-9.6c0.1-0.3,0.5-0.5,0.8-0.3&#10;&#9;&#9;c0.3,0.1,0.5,0.5,0.3,0.8l-3.8,9.6C251,212.2,250.7,212.4,250.5,212.4z"/>
	<path class="st2_team-meeting-1-20" d="M309,215.4c0,0,13.4,30.7,14.2,33.9s-38.7,32.9-43.5,35.2s-12.1,5.3-15.6,0.3c-2.5-3.5,8-8.1,8-8.1&#10;&#9;&#9;s-5.4-3.8-3.4-5s10.6,0.7,10.6,0.7l24.2-24.8l-11.9-26.3"/>
	<path class="st1_team-meeting-1-20" d="M269.8,288.2c-2.4,0.1-4.7-1-6.1-3c-0.5-0.7-0.6-1.5-0.4-2.3c0.8-2.7,5.5-5.3,7.7-6.3c-1.3-1-3.3-2.8-3.3-4.2&#10;&#9;&#9;c0-0.5,0.3-1,0.8-1.2c2-1.1,8.7,0.1,10.7,0.6l23.7-24.2l-11.8-26c-0.2-0.3-0.1-0.7,0.2-0.9c0.3-0.2,0.7-0.1,0.9,0.2&#10;&#9;&#9;c0,0,0,0.1,0.1,0.1l11.9,26.4c0.1,0.2,0.1,0.5-0.1,0.7L279.8,273c-0.2,0.2-0.4,0.2-0.6,0.2c-3.2-0.7-8.9-1.5-10.2-0.8&#10;&#9;&#9;c-0.1,0.1-0.1,0.1-0.1,0.1c0,0.7,1.8,2.5,3.6,3.8c0.3,0.2,0.4,0.6,0.2,0.9c-0.1,0.1-0.2,0.2-0.3,0.2c-2,0.9-7.3,3.6-8,5.9&#10;&#9;&#9;c-0.1,0.4,0,0.8,0.2,1.2c3.2,4.5,10,1.9,14.8-0.5c5.6-2.7,42.9-31.3,43.1-34.6c-0.8-3.1-14.1-33.4-14.2-33.8&#10;&#9;&#9;c-0.1-0.3,0.1-0.7,0.4-0.8c0.3-0.1,0.6,0,0.8,0.3c0.5,1.2,13.4,30.7,14.3,34c1.1,4.2-40.9,34.5-43.8,36S273.1,288.2,269.8,288.2z"/>
	<path class="st2_team-meeting-1-20" d="M233.5,209.9l-6,10.3c0,0-24-15.5-24.5-18.3s-2.2-12.1-4.1-13.8s-1.6,6.8-1.6,6.8s-9.3-10.6-10.2-8.2&#10;&#9;&#9;c-1.1,2.7-2.9,8.5-0.6,11.9c2.5,3.6,9.8,10.1,9.8,10.1s30.1,37.1,34.5,37s15.7-26.5,15.7-26.5"/>
	<path class="st1_team-meeting-1-20" d="M230.8,246.2c-4.6,0-29.9-31-35-37.2c-0.2-0.2-7.4-6.5-9.9-10.1s-0.5-10,0.5-12.5c0.1-0.4,0.5-0.7,0.9-0.7&#10;&#9;&#9;c1.9-0.3,6.7,4.6,9.3,7.5c0-2.4,0.3-5.3,1.4-5.8c0.4-0.2,1-0.1,1.3,0.2c2.3,2,4.1,12.9,4.3,14.1c0.3,1.6,12.2,10.1,23.6,17.5&#10;&#9;&#9;l5.6-9.7c0.2-0.3,0.6-0.4,0.9-0.2c0,0,0,0,0,0c0.3,0.2,0.4,0.6,0.2,0.9c0,0,0,0,0,0l-5.9,10.3c-0.1,0.2-0.2,0.3-0.4,0.3&#10;&#9;&#9;c-0.2,0-0.3,0-0.5-0.1c-4-2.6-24.3-15.8-24.8-18.7c-0.7-4.5-2.5-12.1-3.9-13.4c-0.4,0.7-0.6,3.4-0.6,6.2c0,0.3-0.1,0.5-0.4,0.6&#10;&#9;&#9;c-0.3,0.1-0.5,0-0.7-0.2c-4.1-4.7-8.4-8.5-9.3-8.3c-0.6,1.7-2.8,7.9-0.5,11.2c2.4,3.5,9.7,9.9,9.7,10c11.6,14.3,31,36.8,34,36.8&#10;&#9;&#9;l0,0c2.9-0.1,10.8-16.1,15.1-26.1c0.1-0.3,0.5-0.5,0.8-0.3c0.3,0.1,0.5,0.5,0.3,0.8C245.1,223.8,235.3,246.1,230.8,246.2&#10;&#9;&#9;L230.8,246.2z"/>
	<path class="st2_team-meeting-1-20" d="M197.3,194.9c0,0-3.1,3.6-2.1,6.3"/>
	<path class="st1_team-meeting-1-20" d="M195.2,201.8c-0.3,0-0.5-0.2-0.6-0.4c-1.1-3,2.1-6.8,2.3-6.9c0.2-0.3,0.6-0.3,0.9-0.1c0.3,0.2,0.3,0.6,0.1,0.9&#10;&#9;&#9;c-0.8,0.9-2.7,3.7-2,5.6c0.1,0.3,0,0.7-0.4,0.8C195.3,201.8,195.3,201.8,195.2,201.8z"/>
	<line class="st4_team-meeting-1-20" x1="290.1" y1="216.1" x2="284.1" y2="205.8"/>
	<path class="st1_team-meeting-1-20" d="M290.1,216.7c-0.2,0-0.4-0.1-0.5-0.3l-5.9-10.3c-0.1-0.3,0-0.7,0.3-0.8c0.3-0.1,0.6,0,0.8,0.2l6,10.3&#10;&#9;&#9;c0.2,0.3,0.1,0.7-0.2,0.9c0,0,0,0,0,0C290.3,216.7,290.2,216.7,290.1,216.7z"/>
</g>
<g id="Desk_team-meeting-1-20">
	<rect x="197.2" y="265.4" class="st2_team-meeting-1-20" width="224.5" height="91"/>
	<path class="st1_team-meeting-1-20" d="M421.7,357H197.2c-0.4,0-0.6-0.3-0.6-0.6l0,0v-91c0-0.4,0.3-0.6,0.6-0.6h0h224.5c0.4,0,0.6,0.3,0.6,0.6v0v91&#10;&#9;&#9;C422.3,356.7,422,357,421.7,357L421.7,357z M197.8,355.7H421V266H197.8V355.7z"/>
	<rect x="185.2" y="250.1" class="st2_team-meeting-1-20" width="248.5" height="15.3"/>
	<path class="st1_team-meeting-1-20" d="M433.7,266H185.2c-0.4,0-0.6-0.3-0.6-0.6l0,0v-15.3c0-0.4,0.3-0.6,0.6-0.6h248.5c0.4,0,0.6,0.3,0.6,0.6v0v15.3&#10;&#9;&#9;C434.3,265.7,434,266,433.7,266L433.7,266z M185.8,264.7H433v-14H185.8V264.7z"/>
</g>
<g id="Character_Male_2_team-meeting-1-20">
	<path class="st2_team-meeting-1-20" d="M348,169.7c0,0-8,5-7.4,6.5s4.4,1.4,4.4,1.4"/>
	<path class="st1_team-meeting-1-20" d="M344.7,178.1c-1.1,0-4.1-0.1-4.7-1.8s3.8-4.8,7.7-7.2c0.3-0.2,0.7,0,0.8,0.3c0.1,0.3,0.1,0.6-0.2,0.8&#10;&#9;&#9;c-3.8,2.4-7.1,5-7.1,5.8c0.3,0.7,2.4,1,3.8,0.9c0.3,0,0.6,0.3,0.6,0.6c0,0.3-0.3,0.6-0.6,0.6H344.7z"/>
	<path class="st2_team-meeting-1-20" d="M352,157.5c0,0-9.1,15.3-8.5,24.1s11.6,8.1,11.6,8.1l-1.5,10.9c0,0,14.4,0.6,14.4,0s5.3-27.6,5-35&#10;&#9;&#9;S356.2,155.4,352,157.5z"/>
	<path class="st1_team-meeting-1-20" d="M363.8,201.5c-2.2,0-5.4-0.1-10.1-0.3c-0.2,0-0.3-0.1-0.5-0.2c-0.1-0.1-0.2-0.3-0.1-0.5l1.4-10.1&#10;&#9;&#9;c-2.6-0.1-10.9-0.8-11.5-8.7c-0.7-8.9,8.2-23.8,8.5-24.5c0.1-0.1,0.2-0.2,0.3-0.2c3.1-1.6,11.9-0.7,17.4,2.5&#10;&#9;&#9;c2.8,1.7,4.4,3.8,4.5,6.1c0.3,6-3,24.2-4.4,32c-0.3,1.6-0.5,2.9-0.5,3.1c0,0.2-0.1,0.3-0.2,0.5C368.3,201.2,368,201.5,363.8,201.5z&#10;&#9;&#9; M354.4,200c5.6,0.2,11.6,0.3,13,0.1c0.1-0.4,0.2-1.2,0.5-2.8c1.3-7.1,4.7-25.8,4.4-31.7c-0.1-2.4-2.2-4.1-3.9-5.1&#10;&#9;&#9;c-5.2-3-13.3-3.7-16-2.6c-1,1.7-8.9,15.5-8.3,23.5s10.5,7.6,10.9,7.5c0.2,0,0.4,0.1,0.5,0.2c0.1,0.1,0.2,0.3,0.2,0.5L354.4,200z"/>
	<path class="st2_team-meeting-1-20" d="M382,166.4c-0.5-6-7.4-9.8-12.1-12.1c-2.1-1-4.6-1.6-6.7-2.8c-0.6-0.3-1.3-0.2-1.7-0.9&#10;&#9;&#9;c-0.7-1.3,1.3-3.3-1.7-3.1c-3.8,0.3-9.8,1.8-10.1,6.6c-0.2,3.9,4,5.3,6.9,6.7c3.2,1.6,2.4,6.5,0.8,15.8s2.6,12.6,2.6,12.6l10.1,2.1&#10;&#9;&#9;C370.1,191.3,382.7,175.8,382,166.4z"/>
	<path class="st1_team-meeting-1-20" d="M370.1,192H370l-10.1-2.1c-0.1,0-0.2-0.1-0.3-0.1c-0.2-0.1-4.5-3.7-2.8-13.2s2.3-13.7-0.5-15.1&#10;&#9;&#9;c-0.4-0.2-0.8-0.4-1.1-0.6c-2.8-1.3-6.4-3-6.1-6.8c0.3-4.8,5.7-6.8,10.7-7.2c0.7-0.1,1.4,0,2,0.5c0.4,0.5,0.4,1.2,0.2,1.8&#10;&#9;&#9;c-0.1,0.4-0.1,0.7,0,1.1c0.1,0.2,0.2,0.2,0.6,0.3c0.3,0.1,0.5,0.2,0.8,0.3c1.1,0.6,2.3,1.1,3.5,1.5c1,0.4,2.1,0.8,3.1,1.3&#10;&#9;&#9;c5.6,2.7,12,6.6,12.5,12.6l0,0c0.7,9.5-11.5,24.7-12,25.3C370.5,191.9,370.3,192,370.1,192z M360.4,188.7l9.5,2&#10;&#9;&#9;c1.7-2.2,12.1-15.8,11.5-24.1l0,0c-0.4-5.4-6.5-9-11.7-11.6c-0.9-0.5-2-0.8-3-1.2c-1.3-0.4-2.5-1-3.7-1.6c-0.2-0.1-0.3-0.1-0.5-0.2&#10;&#9;&#9;c-0.6-0.1-1.1-0.5-1.4-1c-0.3-0.6-0.3-1.3-0.1-2c0.1-0.2,0.1-0.5,0.1-0.7l0,0c0,0-0.2-0.1-1-0.1c-1.5,0.1-9.2,0.9-9.5,6&#10;&#9;&#9;c-0.2,2.9,2.8,4.3,5.4,5.5c0.4,0.2,0.8,0.4,1.2,0.6c3.7,1.9,2.8,7,1.2,16.4C356.7,184.6,359.8,188,360.4,188.7L360.4,188.7z"/>
	<path class="st2_team-meeting-1-20" d="M354.9,174.2c1.4-1.3,3-2.8,4.9-3.1s4.2,0.9,4.2,2.9c0,0.6-0.2,1.1-0.4,1.7c-1.6,3.7-5,6.4-8.9,7.3"/>
	<path class="st1_team-meeting-1-20" d="M354.7,183.5c-0.4,0-0.7-0.3-0.7-0.6c0-0.3,0.2-0.6,0.5-0.7c3.8-0.8,6.9-3.4,8.5-6.9c0.2-0.4,0.3-0.9,0.4-1.4&#10;&#9;&#9;c0-0.6-0.3-1.2-0.8-1.5c-0.8-0.6-1.8-0.9-2.7-0.7c-1.8,0.3-3.3,1.8-4.6,2.9c-0.2,0.3-0.7,0.3-0.9,0c0,0,0,0,0,0&#10;&#9;&#9;c-0.2-0.3-0.2-0.7,0-0.9c1.4-1.3,3-2.9,5.2-3.2c1.3-0.2,2.7,0.1,3.8,1c0.8,0.6,1.2,1.5,1.2,2.5c0,0.7-0.2,1.3-0.5,1.9&#10;&#9;&#9;C362.4,179.8,359,182.6,354.7,183.5L354.7,183.5z"/>
	<path class="st1_team-meeting-1-20" d="M349.4,359.1c0.2,2-0.2,4.1-1.3,5.8c-1.7,2.6-1.3,10.1-1.3,10.1h15.8c0,0,0.4-9.1-0.6-10.4s-1.4-0.2-1.7-1.8&#10;&#9;&#9;s0.8-5.5,0.8-5.5L349.4,359.1z"/>
	<path class="st1_team-meeting-1-20" d="M362.6,375.6h-15.8c-0.3,0-0.6-0.3-0.6-0.6c0-0.3-0.4-7.7,1.4-10.4c1-1.6,1.4-3.5,1.2-5.4&#10;&#9;&#9;c0-0.3,0.2-0.6,0.5-0.7l11.8-1.8c0.2,0,0.4,0,0.6,0.2c0.1,0.2,0.2,0.4,0.1,0.6c-0.3,1-1,4-0.8,5.2c0,0.2,0.1,0.4,0.2,0.5&#10;&#9;&#9;c0.6,0.2,1.1,0.5,1.4,1c1,1.4,0.8,8.6,0.7,10.8C363.2,375.4,363,375.6,362.6,375.6z M347.4,374.4h14.6c0.2-4.1,0-8.7-0.5-9.4&#10;&#9;&#9;c-0.2-0.3-0.4-0.5-0.7-0.5c-0.6-0.2-0.9-0.5-1.1-1.5c-0.1-1.6,0.1-3.3,0.6-4.9l-10.3,1.6c0.1,2-0.4,3.9-1.4,5.6&#10;&#9;&#9;C347.5,367.1,347.4,372,347.4,374.4L347.4,374.4z"/>
	<path class="st1_team-meeting-1-20" d="M303,357.9c0,0-0.8,5-2.4,6s-9.6,1.8-10.2,3.6s0,6,0,6h24.3v-17.1L303,357.9z"/>
	<path class="st1_team-meeting-1-20" d="M314.8,374.1h-24.3c-0.3,0-0.6-0.2-0.6-0.5c0-0.2-0.6-4.4,0-6.3c0.5-1.3,3-2,6.8-2.9c1.3-0.2,2.5-0.5,3.7-1&#10;&#9;&#9;c1-0.6,1.8-3.7,2.1-5.5c0-0.3,0.3-0.5,0.5-0.5l11.8-1.5c0.3,0,0.6,0.2,0.7,0.5c0,0,0,0.1,0,0.1v17.1&#10;&#9;&#9;C315.4,373.8,315.1,374.1,314.8,374.1z M291,372.9h23.2v-15.8l-10.6,1.4c-0.2,1.4-1,5-2.6,6c-1.3,0.6-2.7,1-4,1.2&#10;&#9;&#9;c-2,0.5-5.6,1.3-5.9,2.1C290.8,369.4,290.7,371.2,291,372.9z"/>
	<polygon class="st2_team-meeting-1-20" points="348.2,361.2 362.6,361.2 381.7,293.2 351.9,286.8 &#9;"/>
	<path class="st1_team-meeting-1-20" d="M362.6,361.9h-14.5c-0.4,0-0.6-0.3-0.6-0.7c0,0,0,0,0,0l3.7-74.4c0-0.4,0.3-0.6,0.7-0.6c0,0,0.1,0,0.1,0&#10;&#9;&#9;l29.8,6.4c0.2,0,0.3,0.1,0.4,0.3c0.1,0.2,0.1,0.3,0.1,0.5l-19,68.1C363.2,361.7,362.9,361.9,362.6,361.9z M348.8,360.6h13.3&#10;&#9;&#9;l18.7-66.9l-28.4-6.1L348.8,360.6z"/>
	<path class="st2_team-meeting-1-20" d="M349,274.6c0,0-29.4,6.6-39.2,13.6c-4.2,3-7.8,72.3-7.8,72.3l12.9,1.5c0,0,11.7-56.6,16.2-58.5&#10;&#9;&#9;s28.5-1.1,28.5-1.1S367.3,281.8,349,274.6z"/>
	<path class="st1_team-meeting-1-20" d="M314.9,362.7L314.9,362.7l-13-1.6c-0.3,0-0.6-0.3-0.6-0.7c0-0.2,0.9-17.5,2.3-35.1c2.8-35.7,4.9-37.2,5.7-37.8&#10;&#9;&#9;c9.9-6.9,38.2-13.4,39.5-13.7c0.1,0,0.3,0,0.4,0c18.7,7.4,11.1,28.5,11,28.7c-0.1,0.3-0.3,0.4-0.6,0.4c-0.2,0-23.9-0.8-28.2,1&#10;&#9;&#9;c-3.1,1.3-11.3,36.3-15.8,58C315.5,362.4,315.2,362.7,314.9,362.7z M302.6,359.9l11.8,1.4c2.2-10.7,12-56.5,16.5-58.4&#10;&#9;&#9;c4.3-1.8,24.8-1.2,28.2-1.1c1.1-3.4,1.5-7,1.4-10.6c-0.5-7.7-4.4-13.1-11.6-16c-2.6,0.6-29.6,6.9-38.8,13.4&#10;&#9;&#9;C307.2,290.7,304,333.1,302.6,359.9z"/>
	<path class="st2_team-meeting-1-20" d="M406.1,228.3c0,0,10.2,16.6,9.6,20.4s-6.8,4.5-21.5,5l-9.4-27.5L406.1,228.3z"/>
	<path class="st1_team-meeting-1-20" d="M394.1,254.2c-0.3,0-0.5-0.2-0.6-0.4l-9.4-27.5c-0.1-0.2,0-0.4,0.1-0.6c0.1-0.2,0.3-0.3,0.6-0.2l21.4,2.2&#10;&#9;&#9;c0.2,0,0.4,0.1,0.5,0.3c1.1,1.7,10.3,16.9,9.7,20.8C415.6,253.1,408.7,253.8,394.1,254.2L394.1,254.2z M385.7,226.8l8.9,26.1&#10;&#9;&#9;c13.7-0.4,19.9-1.2,20.5-4.4c0.4-2.6-5.3-13.1-9.3-19.6L385.7,226.8z"/>
	<path class="st2_team-meeting-1-20" d="M313.9,230.7c0,0-13.6,18.1-11.7,20.7s32.5,2.1,32.5,2.1l2.6-22.9H313.9z"/>
	<path class="st1_team-meeting-1-20" d="M327.4,254.2c-9.9,0-24.3-0.4-25.8-2.5c-2-2.8,8.5-17.2,11.7-21.5c0.1-0.2,0.3-0.3,0.5-0.2h23.4&#10;&#9;&#9;c0.2,0,0.4,0.1,0.5,0.2c0.1,0.1,0.2,0.3,0.2,0.5l-2.7,22.9c0,0.3-0.3,0.6-0.6,0.6C332.9,254.2,330.4,254.2,327.4,254.2z&#10;&#9;&#9; M314.2,231.3c-6.3,8.5-12.5,18.3-11.5,19.7s16.7,2.1,31.4,1.9l2.5-21.6H314.2z"/>
	<path class="st3_team-meeting-1-20 targetColor" d="M384.7,194.8c0,0-35.9-4.8-45.5,0s-29.5,39.1-29.5,39.1l25.1,6.3l-4,53.2c0,0,1.6,9.1,30.8,9.1&#10;&#9;&#9;s29.4-3.6,29.4-3.6s6.8-41.5,4.4-63.8l14-4.4C409.5,230.7,401.9,203.1,384.7,194.8z" style="fill: rgb(104, 225, 253);"/>
	<path class="st2_team-meeting-1-20" d="M343.6,181.6c0,0,2.8,2.7,5.1-0.6"/>
	<path class="st1_team-meeting-1-20" d="M346,183.2c-1.1,0-2.1-0.5-2.9-1.2c-0.2-0.2-0.2-0.6,0-0.9c0.2-0.2,0.6-0.2,0.9,0c0.6,0.6,1.4,0.9,2.2,0.9&#10;&#9;&#9;c0.8-0.1,1.5-0.6,2-1.3c0.2-0.3,0.6-0.3,0.9-0.1c0.3,0.2,0.3,0.6,0.1,0.9c-0.6,1-1.7,1.7-2.8,1.9L346,183.2z"/>
	
		<ellipse transform="matrix(0.2588 -0.9659 0.9659 0.2588 99.7304 463.0337)" class="st1_team-meeting-1-20" cx="351.6" cy="166.5" rx="1.9" ry="0.8"/>
</g>
<g id="Character_Male_1_team-meeting-1-20">
	<path class="st2_team-meeting-1-20" d="M100.2,122.6c-0.2-1.7,0.2-3.3,1.1-4.8c1-1.3,3.2-1.8,4.3-0.5c-0.4-2.9,2.1-5.7,4.9-6.5s5.9,0,8.7,1&#10;&#9;&#9;s5.4,2.4,8.3,3c2.9,0.6,6.2,0.2,8.3-2c0,3.5-0.1,7.3-2.2,10.1c-1.7,2.1-4.4,3.2-7,3.8s-5.4,0.7-8,1.4c-1,0.3-2.2,0.8-2.4,1.8&#10;&#9;&#9;c-0.1,0.8,0,1.6,0.3,2.3c0.8,3.3-0.6,6.7-3.5,8.5C101.8,147.2,100.3,128.9,100.2,122.6z"/>
	<path class="st1_team-meeting-1-20" d="M108.7,142.9c-1,0-2-0.3-2.9-0.8c-5.8-3.3-6.2-16.8-6.3-19.5l0,0c-0.2-1.8,0.3-3.7,1.3-5.2&#10;&#9;&#9;c0.7-1,1.9-1.5,3.1-1.5c0.4,0,0.8,0,1.1,0.1c0.3-2.8,2.9-5.1,5.4-5.8c3.3-0.9,6.8,0.2,9.1,1c0.8,0.3,1.6,0.6,2.3,1&#10;&#9;&#9;c1.9,0.9,3.8,1.5,5.9,2c3.1,0.6,6-0.1,7.7-1.8c0.2-0.2,0.5-0.3,0.8-0.2c0.3,0.1,0.4,0.4,0.4,0.7c0,3.9-0.1,7.7-2.4,10.5&#10;&#9;&#9;c-1.6,1.9-4.1,3.3-7.4,4c-1.1,0.2-2.3,0.4-3.4,0.6c-1.5,0.2-3,0.5-4.5,0.9c-1.1,0.3-1.8,0.8-2,1.3c-0.1,0.5,0,1,0.2,1.5l0.1,0.4&#10;&#9;&#9;c0.9,3.6-0.7,7.4-3.8,9.3C111.9,142.3,110.3,142.8,108.7,142.9z M103.9,117.3L103.9,117.3c-0.8,0-1.5,0.4-2,1&#10;&#9;&#9;c-0.8,1.3-1.2,2.8-1,4.3l0,0c0,7,1.5,16,5.6,18.3c1.6,0.9,3.7,0.7,6.1-0.7c2.6-1.6,3.9-4.7,3.2-7.7l-0.1-0.4&#10;&#9;&#9;c-0.3-0.7-0.4-1.5-0.2-2.3c0.3-1.1,1.3-1.8,2.9-2.3c1.5-0.4,3.1-0.7,4.7-0.9c1.1-0.2,2.2-0.3,3.3-0.6c3.1-0.7,5.3-1.8,6.6-3.5&#10;&#9;&#9;c1.7-2.1,2.1-5,2.1-8.2c-2.3,1.4-5.1,1.8-7.7,1.2c-2.1-0.5-4.2-1.2-6.1-2.1c-0.8-0.3-1.5-0.7-2.3-0.9c-3.4-1.3-6-1.6-8.2-1&#10;&#9;&#9;c-2.4,0.7-4.8,3-4.4,5.7c0.1,0.4-0.2,0.7-0.6,0.8c-0.2,0-0.5-0.1-0.6-0.2C104.8,117.4,104.4,117.2,103.9,117.3z"/>
	<path class="st1_team-meeting-1-20" d="M140.6,161.4c0,0,22.7,39.6,25.7,46.5s-10.4,23-15.6,19.1S140.6,161.4,140.6,161.4z"/>
	<path class="st1_team-meeting-1-20" d="M97.1,368c0,0-0.9,5.8,0.4,8.1s2.5,5.1,3.1,10.3c-2.2,2.4-5.2,3.8-8.5,3.9c-5.4,0-10.7-4-11.3-6&#10;&#9;&#9;s4.3-22.5,4.3-22.5L97.1,368z"/>
	<path class="st1_team-meeting-1-20" d="M134.1,226.8l-25.9,7.2l-6-74.8c0,0,21.4-5.1,26.6-2.7S134.1,226.8,134.1,226.8z"/>
	<path class="st1_team-meeting-1-20" d="M108.2,234.7c-0.4,0-0.7-0.3-0.7-0.6l-6-74.8c0-0.3,0.2-0.7,0.5-0.7c0.9-0.2,21.7-5.1,27-2.6&#10;&#9;&#9;c5.3,2.5,5.6,59.5,5.7,70.9c0,0.3-0.2,0.6-0.5,0.7l-25.9,7.2L108.2,234.7z M103,159.8l5.9,73.3l24.5-6.8&#10;&#9;&#9;c-0.1-32.6-1.8-67.7-4.9-69.1C124.6,155.3,109.3,158.3,103,159.8z"/>
	<path class="st1_team-meeting-1-20" d="M125.4,354.5V372l8.4,2.4l-0.2-3.6l3.8,3.8c0,0,22.4,4,22.3,1s-2.4-4.6-5.2-6.1c-3-1.6-11.1-6.1-11.1-6.1&#10;&#9;&#9;l-1.2-12.8"/>
	<path class="st2_team-meeting-1-20" d="M85.3,233.9l-6.9,132.9c0,0,0.7,4.9,11.2,5.5s9.5-1.9,9.5-1.9l16.4-97.5l6.8,86.6l22.8,1.4l-4.5-136.5&#10;&#9;&#9;L85.3,233.9z"/>
	<path class="st1_team-meeting-1-20" d="M92.7,373c-0.9,0-2,0-3.1-0.1c-10.9-0.6-11.8-5.8-11.8-6l6.9-133c0-0.3,0.2-0.5,0.5-0.6l55.2-9.5&#10;&#9;&#9;c0.2,0,0.4,0,0.5,0.1c0.1,0.1,0.2,0.3,0.2,0.5l4.5,136.5c0,0.3-0.3,0.6-0.6,0.7c0,0,0,0-0.1,0l-22.8-1.4c-0.3,0-0.6-0.3-0.6-0.6&#10;&#9;&#9;l-6.4-81.4l-15.5,92.2c0,0.4-0.1,0.7-0.3,1C98.8,372.4,96.5,373,92.7,373z M79.1,366.8c0,0,0.9,4.2,10.6,4.8&#10;&#9;&#9;c6.6,0.4,8.3-0.5,8.7-0.9c0.1-0.1,0.1-0.2,0.1-0.2c0-0.1,0-0.2,0-0.3l16.4-97.5c0-0.3,0.3-0.6,0.7-0.5c0.3,0,0.6,0.3,0.6,0.6&#10;&#9;&#9;l6.7,86l21.5,1.3l-4.5-135l-54,9.3L79.1,366.8L79.1,366.8z"/>
	<path class="st3_team-meeting-1-20 targetColor" d="M107.3,152.9c0,0,8.4,89.4,4.4,94.5s-28.5,9.3-30.3-0.8c-3-16.5-1.4-75.7,2.2-81.3&#10;&#9;&#9;C97.9,153.1,107.3,152.9,107.3,152.9z" style="fill: rgb(104, 225, 253);"/>
	<path class="st3_team-meeting-1-20 targetColor" d="M140.6,161.4c0,0,12.7,82,10.3,84.3s-20.5,4.6-24.1,2.2s-3.4-95.5-3.4-95.5S133.3,154.2,140.6,161.4z" style="fill: rgb(104, 225, 253);"/>
	<path class="st2_team-meeting-1-20" d="M122.7,150.9L123,161c0,0-1.2,4.7-8,3.3s-8-6-8-6l0.2-19c0,0,3.6-6.4,1.7-17.3c0,0,9.5,1.3,21,2.2&#10;&#9;&#9;c0,0,0.8,14.7,0.2,20S122.7,150.9,122.7,150.9z"/>
	<path class="st1_team-meeting-1-20" d="M117.3,165.3c-0.8,0-1.7-0.1-2.5-0.3c-7.2-1.5-8.5-6.4-8.6-6.6c0-0.1,0-0.1,0-0.2l0.2-19c0-0.1,0-0.2,0.1-0.3&#10;&#9;&#9;c0-0.1,3.5-6.3,1.7-16.8c0-0.2,0-0.5,0.2-0.6c0.2-0.2,0.4-0.2,0.6-0.2c0.1,0,9.6,1.3,20.9,2.2c0.4,0,0.6,0.3,0.6,0.7&#10;&#9;&#9;c0,0.6,0.8,14.8,0.2,20.1c-0.6,4.8-5.5,6.6-7.3,7.1l0.3,9.6c0,0.1,0,0.1,0,0.2C123.7,161.3,122.6,165.3,117.3,165.3z M107.6,158.2&#10;&#9;&#9;c0.2,0.6,1.6,4.2,7.5,5.4c5.7,1.1,7-2.1,7.2-2.7l-0.3-10.1c0-0.3,0.2-0.6,0.6-0.7c0.1,0,6.2-1.3,6.7-6c0.5-4.6,0-16.5-0.2-19.3&#10;&#9;&#9;c-9-0.7-16.9-1.7-19.5-2c1.4,9.6-1.3,15.6-1.9,16.6L107.6,158.2z"/>
	<path class="st2_team-meeting-1-20" d="M110.3,138.6c-0.3-0.9-0.8-1.7-1.6-2.3c-0.7-0.5-1.6-0.9-2.4-1.1c-0.5-0.2-1-0.3-1.4-0.2&#10;&#9;&#9;c-0.4,0.1-0.7,0.2-1,0.4c-0.7,0.4-1.3,1-1.6,1.8c-0.2,0.6-0.2,1.3,0,1.9c0.1,0.7,0.3,1.4,0.6,2c1.3,2.7,4.5,3.8,7.2,2.6&#10;&#9;&#9;c0,0,0,0,0.1,0"/>
	<path class="st1_team-meeting-1-20" d="M107.7,145c-0.7,0-1.4-0.1-2-0.3c-1.5-0.5-2.8-1.7-3.5-3.1c-0.3-0.7-0.5-1.5-0.7-2.2c-0.2-0.7-0.2-1.5,0-2.3&#10;&#9;&#9;c0.3-0.9,1-1.7,1.9-2.2c0.4-0.2,0.8-0.4,1.2-0.5c0.6-0.1,1.2,0,1.8,0.2c0.9,0.3,1.8,0.7,2.6,1.2c0.9,0.7,1.5,1.6,1.8,2.7&#10;&#9;&#9;c0.1,0.4,0,0.8-0.4,0.9c-0.4,0.1-0.8,0-0.9-0.4c0,0,0-0.1,0-0.1c-0.2-0.8-0.7-1.5-1.3-2c-0.7-0.5-1.4-0.8-2.2-1&#10;&#9;&#9;c-0.4-0.1-0.7-0.2-1.1-0.2c-0.3,0.1-0.5,0.2-0.7,0.3c-0.6,0.3-1,0.8-1.3,1.4c-0.1,0.5-0.1,1.1,0,1.6c0.1,0.6,0.3,1.3,0.5,1.9&#10;&#9;&#9;c1.1,2.3,3.9,3.3,6.2,2.3c0,0,0.1,0,0.1,0c0.3-0.2,0.8,0,0.9,0.3s0,0.8-0.3,0.9c0,0,0,0,0,0C109.5,144.8,108.6,145,107.7,145z"/>
	<path class="st2_team-meeting-1-20" d="M125.2,134.8c0,0,3.9,5.1,3.2,6s-3.2,0.5-3.2,0.5"/>
	<path class="st1_team-meeting-1-20" d="M126.3,142.2c-0.4,0-0.9,0-1.3-0.1c-0.4-0.1-0.6-0.4-0.6-0.8c0,0,0,0,0,0c0.1-0.4,0.4-0.6,0.8-0.6&#10;&#9;&#9;c0.8,0.1,2.2,0.1,2.5-0.3c0-0.5-1.4-2.9-3.2-5.2c-0.2-0.3-0.1-0.8,0.2-1c0.3-0.2,0.7-0.1,0.9,0.1c2.8,3.6,3.9,6,3.2,6.9&#10;&#9;&#9;C128.2,141.9,127.3,142.3,126.3,142.2z"/>
	<ellipse transform="matrix(0.96 -0.28 0.28 0.96 -32.3862 39.3843)" class="st1_team-meeting-1-20" cx="121.7" cy="133" rx="0.9" ry="1.2"/>
	
		<ellipse transform="matrix(0.9596 -0.2815 0.2815 0.9596 -32.1112 41.2923)" class="st1_team-meeting-1-20" cx="127.7" cy="132.4" rx="0.9" ry="1.2"/>
	<path class="st2_team-meeting-1-20" d="M126.5,143.9l-4.6-0.1c0,0-0.6,3.3,1.8,4.1S126.5,143.9,126.5,143.9z"/>
	<path class="st1_team-meeting-1-20" d="M124.3,148.6c-0.3,0-0.5,0-0.8-0.1c-2.4-0.8-2.5-3.6-2.3-4.9c0-0.3,0.3-0.6,0.7-0.6l4.6,0.1&#10;&#9;&#9;c0.2,0,0.4,0.1,0.5,0.2c0.1,0.1,0.2,0.3,0.2,0.5c0,0.4-0.3,3.4-1.8,4.4C125,148.5,124.7,148.7,124.3,148.6z M122.5,144.5&#10;&#9;&#9;c0,0.8,0.1,2.3,1.4,2.7c0.2,0.1,0.4,0.1,0.7,0c0.6-0.7,1-1.6,1.1-2.6L122.5,144.5z"/>
	<path class="st1_team-meeting-1-20" d="M122.7,150.9c0,0-5.3,0-7.8-1.4c0,0,2.1,6,7.8,7.5L122.7,150.9z"/>
	<path class="st1_team-meeting-1-20" d="M122.8,157.7c-0.1,0-0.1,0-0.2,0c-6-1.6-8.2-7.7-8.3-8c-0.1-0.4,0.1-0.8,0.4-0.9c0.2-0.1,0.4-0.1,0.6,0.1&#10;&#9;&#9;c2.3,1.3,7.3,1.3,7.4,1.3l0,0c0.4,0,0.7,0.3,0.7,0.7l0,0l0.1,6.1c0,0.2-0.1,0.4-0.3,0.6C123.1,157.6,122.9,157.7,122.8,157.7z&#10;&#9;&#9; M116.3,150.8c1.2,2.4,3.3,4.2,5.7,5.3v-4.5C120.1,151.5,118.2,151.3,116.3,150.8z"/>
	<path class="st1_team-meeting-1-20" d="M78.3,225.1c-0.4,0-0.7-0.3-0.7-0.6c0-0.4,0.2-0.7,0.6-0.8c0.2,0,20.8-2.3,27-5.7c0.3-0.2,0.8-0.1,0.9,0.3&#10;&#9;&#9;s0.1,0.8-0.3,0.9c-6.4,3.5-26.6,5.8-27.5,5.9L78.3,225.1z"/>
	<path class="st1_team-meeting-1-20" d="M83.7,165.4c0,0-40.1,55.6-22.9,69.9c15.7,13.1,50.5-8.7,50.5-8.7l-2.1-18.5c0,0-27.5,14.9-28,8&#10;&#9;&#9;C80.6,206,94.1,192,94.1,192c2.4-4.5,2.9-9.9,1.2-14.8C93.6,171.6,89.2,167.2,83.7,165.4z"/>
	<path class="st2_team-meeting-1-20" d="M151.8,234.6h-39.9c-2.7,0-4.9-2.2-4.9-4.9c0-0.3,0-0.7,0.1-1l8.5-39.9c0.5-2.4,2.6-4.1,5.1-4.1H160&#10;&#9;&#9;c2.9,0,5.2,2.3,5.2,5.2c0,0.4,0,0.7-0.1,1.1l-8.5,39.8C156.1,233,154.1,234.6,151.8,234.6z"/>
	<path class="st1_team-meeting-1-20" d="M151.8,235.2h-39.9c-3.1,0-5.6-2.5-5.6-5.6c0-0.4,0-0.8,0.1-1.2l8.5-40c0.6-2.7,3-4.6,5.7-4.6H160&#10;&#9;&#9;c3.2,0,5.8,2.6,5.8,5.8c0,0.4,0,0.8-0.1,1.2l-8.5,39.8C156.7,233.4,154.4,235.2,151.8,235.2z M120.6,185.2c-2.2,0-4,1.5-4.5,3.6&#10;&#9;&#9;l-8.5,39.9c-0.5,2.3,1,4.6,3.3,5.1c0.3,0.1,0.6,0.1,0.9,0.1h39.9c2,0,3.8-1.4,4.2-3.4l8.5-39.8c0.5-2.5-1.1-4.9-3.5-5.4&#10;&#9;&#9;c-0.3-0.1-0.6-0.1-0.9-0.1H120.6z"/>
	<path class="st2_team-meeting-1-20" d="M103.6,214.5c-0.2-1.4-0.1-2.8,0.3-4.2c0.4-0.9,1-1.7,1.8-2.4c1.3-1.3,2.6-2.5,4-3.6c1.3-1,2.8-2,4.4-1.7&#10;&#9;&#9;c-0.5,2.3-1.9,4.4-3.8,5.8c0.7-0.7,1.5-1.3,2.4-1.6c0.6-0.2,1.5-0.2,1.8,0.4c0.1,0.4,0.1,0.8-0.2,1.2c-0.7,1.6-1.9,3-3.3,4.1l1.5-1&#10;&#9;&#9;c0.4-0.3,0.8-0.5,1.3-0.6c0.5-0.1,1,0.2,1.2,0.6c0.1,0.4,0.1,0.7-0.1,1.1c-0.4,1-1,1.8-1.9,2.4c0.6-0.5,1.2-0.8,1.9-0.9&#10;&#9;&#9;c0.7-0.1,1.4,0.3,1.7,1c0.1,0.4,0,0.8-0.2,1.1c-1.2,2.2-3.9,2.5-5.2,4.3c-1,1.4-0.5,2.9-2.6,3.7&#10;&#9;&#9;C103.6,226.3,103.9,217.4,103.6,214.5z"/>
	<path class="st1_team-meeting-1-20" d="M107.2,225.2c-0.6,0-1.1-0.2-1.6-0.4c-2.3-1.4-2.5-5.9-2.7-8.9c0-0.5-0.1-1-0.1-1.4c-0.2-1.5-0.1-3.1,0.4-4.5&#10;&#9;&#9;c0.5-1,1.1-1.9,1.9-2.6c1.3-1.3,2.6-2.6,4.1-3.7c1.3-1,3.1-2.2,5-1.8c0.2,0,0.3,0.2,0.4,0.3c0.1,0.2,0.1,0.3,0.1,0.5&#10;&#9;&#9;c-0.3,1.1-0.7,2.2-1.3,3.2c0.7,0,1.4,0.4,1.7,1c0.2,0.6,0.1,1.2-0.2,1.8c-0.2,0.5-0.5,1.1-0.9,1.6c0.7,0,1.3,0.4,1.6,1&#10;&#9;&#9;c0.2,0.5,0.1,1.1-0.1,1.6c-0.1,0.1-0.1,0.3-0.2,0.4c0.9,0,1.8,0.7,2,1.6c0.1,0.6,0,1.1-0.3,1.6c-0.7,1.2-1.8,2.1-3.1,2.7&#10;&#9;&#9;c-0.8,0.4-1.6,1-2.2,1.7c-0.3,0.4-0.5,0.8-0.6,1.3c-0.3,1.2-1.1,2.2-2.3,2.6C108.4,225.1,107.8,225.2,107.2,225.2z M113.2,203.2&#10;&#9;&#9;c-1.1,0.2-2.2,0.8-3.1,1.6c-1.4,1.1-2.7,2.3-3.9,3.6c-0.7,0.6-1.2,1.4-1.6,2.2c-0.4,1.2-0.5,2.6-0.3,3.8l0,0c0,0.4,0.1,0.9,0.1,1.4&#10;&#9;&#9;c0.1,2.3,0.4,6.7,2.1,7.8c0.6,0.3,1.3,0.3,1.9,0c0.8-0.3,1.3-1,1.5-1.8c0.2-0.6,0.4-1.2,0.8-1.7c0.7-0.9,1.6-1.6,2.6-2.1&#10;&#9;&#9;c1-0.4,1.9-1.2,2.5-2.1c0.1-0.2,0.2-0.4,0.2-0.7c-0.1-0.3-0.5-0.5-0.9-0.5c-0.5,0.1-1,0.3-1.4,0.7l-0.2,0.1c-0.3,0.2-0.8,0.1-1-0.2&#10;&#9;&#9;c-0.2-0.3-0.1-0.7,0.2-0.9l0.2-0.1c0.7-0.5,1.2-1.1,1.5-1.9c0.1-0.4,0.1-0.5,0.1-0.5s-0.2-0.2-0.4-0.1c-0.4,0.1-0.7,0.2-1,0.4&#10;&#9;&#9;l-1.5,1c-0.3,0.2-0.8,0.2-1-0.2c0,0,0,0,0,0c-0.2-0.3-0.2-0.8,0.2-1c0,0,0,0,0,0c1.3-1,2.4-2.3,3.1-3.8c0.2-0.4,0.2-0.6,0.2-0.6&#10;&#9;&#9;s-0.5-0.2-0.9-0.1c-0.3,0.1-0.7,0.3-1,0.4c-0.4,0.4-0.8,0.7-1.3,1c-0.3,0.2-0.7,0.2-0.9-0.1c-0.2-0.3-0.2-0.7,0-0.9&#10;&#9;&#9;c0.4-0.4,0.8-0.8,1.3-1.1C112,205.8,112.8,204.6,113.2,203.2L113.2,203.2z"/>
	<path class="st2_team-meeting-1-20" d="M164.4,211.7c-0.2-2.7-1-5.6-3.4-7c-1.5-0.8-3.2-0.9-4.7-0.1c-0.3,0.1-0.5,0.3-0.6,0.6c-0.1,0.4,0.3,0.8,0.7,1&#10;&#9;&#9;c0.8,0.5,1.6,0.8,2.5,1.1c-1.5-0.1-2.8,0.7-3.4,2c0.9,1,2.1,1.6,3.4,1.8c-0.9-0.2-1.8,0.1-2.4,0.8c-0.9,1.2-0.2,1.5,0.8,2.3&#10;&#9;&#9;c-0.4-0.1-0.8,0-1.2,0.1c-0.4,0.2-0.7,0.6-0.6,1c0.1,0.8,1.1,1,1.7,1.4c0.5,0.3,1,0.8,1.2,1.4c0.1,0.3,0.2,0.7,0.3,1&#10;&#9;&#9;c1.4,2.3,4.3,0.4,5-1.2C164.3,215.9,164.6,213.8,164.4,211.7z"/>
	<path class="st1_team-meeting-1-20" d="M160.3,220.9c-1,0-1.9-0.5-2.3-1.4c-0.1-0.3-0.2-0.5-0.3-0.8l-0.1-0.3c-0.2-0.4-0.5-0.8-0.9-1l-0.4-0.2&#10;&#9;&#9;c-0.6-0.3-1.5-0.7-1.6-1.7c0-0.7,0.4-1.4,1-1.7c-0.4-0.5-0.4-1.2,0.2-2.2c0.1-0.2,0.3-0.4,0.5-0.6c-0.5-0.3-1-0.7-1.5-1.2&#10;&#9;&#9;c-0.2-0.2-0.2-0.5-0.1-0.7c0.4-0.8,1-1.5,1.7-1.9l-0.5-0.3c-1.1-0.6-1.1-1.4-1-1.7c0.1-0.5,0.5-0.9,0.9-1.1&#10;&#9;&#9;c1.7-0.9,3.7-0.8,5.4,0.1c2.7,1.6,3.5,5,3.7,7.5l0,0c0.2,2.2-0.1,4.4-0.9,6.5c-0.7,1.5-2.1,2.5-3.8,2.7L160.3,220.9z M156.8,214.9&#10;&#9;&#9;c-0.2,0-0.3,0-0.5,0.1c-0.1,0.1-0.2,0.2-0.2,0.3s0.4,0.4,0.8,0.6l0.5,0.3c0.7,0.4,1.2,1,1.5,1.8c0,0.1,0.1,0.2,0.1,0.4&#10;&#9;&#9;c0,0.2,0.1,0.3,0.2,0.5c0.2,0.5,0.7,0.8,1.2,0.7c1.1-0.2,2-0.9,2.6-1.9c0.7-1.9,1-3.8,0.8-5.8l0,0c-0.2-2.2-0.8-5.2-3-6.4&#10;&#9;&#9;c-1.3-0.7-2.8-0.7-4.1-0.1c-0.1,0-0.2,0.1-0.2,0.1c0,0,0.1,0.1,0.4,0.2c0.7,0.4,1.5,0.8,2.3,1c0.4,0.1,0.6,0.4,0.5,0.8&#10;&#9;&#9;c-0.1,0.4-0.4,0.6-0.8,0.6c-1-0.1-1.9,0.4-2.5,1.2c0.7,0.7,1.6,1.1,2.6,1.2l0,0c0.4,0.1,0.7,0.4,0.6,0.8c0,0.4-0.4,0.7-0.8,0.6&#10;&#9;&#9;c0,0,0,0,0,0l0,0c-0.9-0.1-1.4,0.1-1.7,0.6s-0.4,0.5,0.4,1.1l0.2,0.2c0.2,0.2,0.3,0.5,0.2,0.8c-0.1,0.3-0.4,0.5-0.8,0.4&#10;&#9;&#9;L156.8,214.9z"/>
</g>
<g id="Chair_team-meeting-1-20">
	<path class="st1_team-meeting-1-20" d="M358.6,213h12.6c16.8,0,30.4,13.6,30.4,30.4l0,0v31.1l0,0h-73.4l0,0v-31.1C328.2,226.6,341.8,213,358.6,213&#10;&#9;&#9;C358.6,213,358.6,213,358.6,213z"/>
	<path class="st1_team-meeting-1-20" d="M401.6,275.2h-73.4c-0.3,0-0.6-0.3-0.6-0.6v-31.1c0-17.1,13.9-31,31-31h12.6c17.1,0,31,13.9,31,31v31.1&#10;&#9;&#9;C402.2,274.9,402,275.2,401.6,275.2C401.6,275.2,401.6,275.2,401.6,275.2z M328.8,273.9H401v-30.5c0-16.4-13.3-29.7-29.8-29.8&#10;&#9;&#9;h-12.6c-16.4,0-29.7,13.3-29.8,29.8V273.9z"/>
	<path class="st1_team-meeting-1-20" d="M333,301.4h59.3c2.7,0,4.8,2.1,4.8,4.8v1.6c0,2.7-2.1,4.8-4.8,4.8H333c-2.7,0-4.8-2.1-4.8-4.8v-1.6&#10;&#9;&#9;C328.2,303.6,330.4,301.4,333,301.4z"/>
	<path class="st1_team-meeting-1-20" d="M392.3,313.2H333c-3,0-5.4-2.4-5.4-5.4v0v-1.6c0-3,2.4-5.4,5.4-5.4h59.3c3,0,5.4,2.4,5.4,5.4l0,0v1.6&#10;&#9;&#9;C397.7,310.8,395.3,313.2,392.3,313.2z M333,302c-2.3,0-4.2,1.9-4.2,4.2v1.6c0,2.3,1.8,4.2,4.1,4.2c0,0,0,0,0.1,0h59.3&#10;&#9;&#9;c2.3,0,4.2-1.9,4.2-4.2v-1.6c0-2.3-1.8-4.2-4.1-4.2c0,0,0,0-0.1,0H333z"/>
	<path class="st1_team-meeting-1-20" d="M364.9,249.6c0,0,2.9,21.3,0,34.6s-9,20.8-9,20.8h10.3c4.2-7.2,7.1-15,8.8-23.1c2.7-13.3,0-32.2,0-32.2H364.9z&#10;&#9;&#9;"/>
	<path class="st1_team-meeting-1-20" d="M366.2,305.5h-10.3c-0.2,0-0.5-0.1-0.6-0.4c-0.1-0.2-0.1-0.5,0.1-0.6c0.1-0.1,6.1-7.5,8.9-20.5s0-34.1,0-34.4&#10;&#9;&#9;c0-0.3,0.2-0.7,0.5-0.7c0,0,0.1,0,0.1,0H375c0.3,0,0.6,0.2,0.6,0.5c0,0.2,2.6,19.1,0,32.4c-1.7,8.2-4.7,16.1-8.9,23.4&#10;&#9;&#9;C366.6,305.4,366.4,305.5,366.2,305.5z M357.1,304.3h8.8c4-7.1,6.9-14.7,8.5-22.6c2.4-11.8,0.5-28.3,0.1-31.4h-8.9&#10;&#9;&#9;c0.5,3.8,2.5,22.2-0.1,34.1C364,291.4,361.2,298.2,357.1,304.3z"/>
	<polygon class="st1_team-meeting-1-20" points="334.9,309.3 328.2,382.7 333.3,382.7 342.8,307 &#9;"/>
	<path class="st1_team-meeting-1-20" d="M333.3,383.3h-5.1c-0.2,0-0.3-0.1-0.5-0.2c-0.1-0.1-0.2-0.3-0.2-0.5l6.6-73.4c0-0.3,0.2-0.5,0.4-0.5l8-2.3&#10;&#9;&#9;c0.2-0.1,0.4,0,0.6,0.1c0.2,0.1,0.2,0.3,0.2,0.5l-9.6,75.7C333.9,383.1,333.6,383.3,333.3,383.3z M328.9,382.1h3.8l9.4-74.2&#10;&#9;&#9;l-6.7,1.9L328.9,382.1z"/>
	<polygon class="st1_team-meeting-1-20" points="389.6,309.3 396.3,382.7 391.2,382.7 381.7,307 &#9;"/>
	<path class="st1_team-meeting-1-20" d="M396.3,383.3h-5.1c-0.3,0-0.6-0.2-0.6-0.5l-9.6-75.7c0-0.2,0.1-0.4,0.2-0.5c0.2-0.1,0.4-0.2,0.6-0.1l8,2.3&#10;&#9;&#9;c0.2,0.1,0.4,0.3,0.4,0.5l6.6,73.4C397,383,396.7,383.3,396.3,383.3C396.4,383.3,396.3,383.3,396.3,383.3L396.3,383.3z&#10;&#9;&#9; M391.8,382.1h3.8l-6.5-72.3l-6.7-1.9L391.8,382.1z"/>
</g>
</svg>