<svg version="1.1" id="Layer_1" xmlns="http://www.w3.org/2000/svg" xmlns:xlink="http://www.w3.org/1999/xlink" x="0px" y="0px" viewBox="0 0 500 500" style="width: 262px;" xml:space="preserve" data-imageid="conference-52" imageName="Conference" class="illustrations_image">
<style type="text/css">
	.st0_conference-52{fill:#FFFFFF;}
	.st1_conference-52{fill:#D1D3D4;}
	.st2_conference-52{fill:#68E1FD;}
	.st3_conference-52{fill:#231F20;}
</style>
<g id="Screen_conference-52">
	<path class="st0_conference-52" d="M268.9,92.7h164c2,0,3.5,1.6,3.5,3.5v101.2c0,2-1.6,3.5-3.5,3.5h-164c-2,0-3.5-1.6-3.5-3.5V96.2&#10;&#9;&#9;C265.4,94.3,267,92.7,268.9,92.7z"/>
	<path class="st1_conference-52" d="M431.5,201.7H270.4c-3.1,0-5.6-2.5-5.6-5.6V97.7c0-3.1,2.5-5.7,5.6-5.7c0,0,0,0,0,0h161.2&#10;&#9;&#9;c3.1,0,5.6,2.5,5.6,5.7v98.4C437.2,199.2,434.6,201.7,431.5,201.7C431.5,201.7,431.5,201.7,431.5,201.7z M270.4,93.4&#10;&#9;&#9;c-2.3,0-4.2,1.9-4.2,4.2v98.4c0,2.3,1.9,4.2,4.2,4.2h161.2c2.3,0,4.2-1.9,4.2-4.2V97.7c0-2.3-1.9-4.2-4.2-4.2H270.4z"/>
	<path class="st1_conference-52" d="M426.9,193.5H275c-0.4,0-0.7-0.3-0.7-0.7c0,0,0,0,0,0v-91.8c0-0.4,0.3-0.7,0.7-0.7l0,0h151.9&#10;&#9;&#9;c0.4,0,0.7,0.3,0.7,0.7v0v91.8C427.6,193.2,427.2,193.5,426.9,193.5L426.9,193.5z M275.7,192.1h150.5v-90.4H275.7V192.1z"/>
	<path class="st1_conference-52" d="M417.1,171.6h-23c-0.4,0-0.7-0.3-0.7-0.7s0.3-0.7,0.7-0.7c0,0,0,0,0,0h23c0.4,0,0.7,0.3,0.7,0.7&#10;&#9;&#9;C417.8,171.3,417.5,171.6,417.1,171.6z"/>
	<path class="st1_conference-52" d="M417.1,176.2h-23c-0.4,0-0.7-0.3-0.7-0.7s0.3-0.7,0.7-0.7c0,0,0,0,0,0h23c0.4,0,0.7,0.3,0.7,0.7&#10;&#9;&#9;C417.8,175.9,417.5,176.2,417.1,176.2z"/>
	<path class="st1_conference-52" d="M410.2,180.9h-16.1c-0.4,0-0.7-0.3-0.7-0.7s0.3-0.7,0.7-0.7c0,0,0,0,0,0h16.1c0.4,0,0.7,0.3,0.7,0.7&#10;&#9;&#9;C410.9,180.5,410.6,180.9,410.2,180.9z"/>
	<path class="st1_conference-52" d="M310.4,111.3h-23c-0.4,0-0.7-0.3-0.7-0.7c0-0.4,0.3-0.7,0.7-0.7h23c0.4,0,0.7,0.3,0.7,0.7&#10;&#9;&#9;C311.1,110.9,310.8,111.3,310.4,111.3z"/>
	<path class="st1_conference-52" d="M310.4,115.9h-23c-0.4,0-0.7-0.3-0.7-0.7c0-0.4,0.3-0.7,0.7-0.7h23c0.4,0,0.7,0.3,0.7,0.7&#10;&#9;&#9;C311.1,115.6,310.8,115.9,310.4,115.9z"/>
	<path class="st1_conference-52" d="M303.5,120.5h-16.1c-0.4,0-0.7-0.3-0.7-0.7c0-0.4,0.3-0.7,0.7-0.7h16.1c0.4,0,0.7,0.3,0.7,0.7&#10;&#9;&#9;C304.3,120.2,303.9,120.5,303.5,120.5L303.5,120.5z"/>
</g>
<g id="Pie_Chart_conference-52">
	<path class="st2_conference-52 targetColor" d="M325.7,122.2c8.5,8.5,17,17,25.5,25.5c0.3,0.3,0.6,0.4,1,0.4h39.1c-0.7,20.8-18.2,37.1-39,36.4&#10;&#9;&#9;c-20.8-0.7-37.1-18.2-36.4-39c0.3-8.8,3.6-17.1,9.4-23.7L325.7,122.2L325.7,122.2z" style="fill: rgb(104, 225, 253);"/>
	<path class="st1_conference-52" d="M355,109.1v36.4c0.1,0,0.2,0,0.4,0l35.3-0.1c0.8,0,0.8,0,0.7-0.8c-0.9-14.1-9.6-26.6-22.5-32.3&#10;&#9;&#9;c-3.9-1.7-8-2.7-12.2-3.1L355,109.1L355,109.1z"/>
	<path class="st1_conference-52" d="M352.4,145v-35.9c-4.2,0.2-8.4,1.1-12.4,2.6c-4.7,1.9-9.1,4.7-12.7,8.2L352.4,145z"/>
</g>
<g id="Character_conference-52">
	<path class="st2_conference-52 targetColor" d="M133.4,132.1c0,0-23.6,14.1-27.4,38.8c-2.7,17,0,98.6,0,98.6h28L133.4,132.1L133.4,132.1z" style="fill: rgb(104, 225, 253);"/>
	<polygon class="st3_conference-52" points="140.3,223.9 137.4,377.3 162.7,379 180.2,269.7 203.2,383 231.1,377.3 208.5,213.3 &#9;"/>
	<path class="st3_conference-52" d="M203.2,383.7c-0.1,0-0.3,0-0.4-0.1c-0.2-0.1-0.3-0.3-0.3-0.5l-22.3-109.5l-16.9,105.5&#10;&#9;&#9;c-0.1,0.4-0.4,0.6-0.7,0.6l-25.3-1.7c-0.4,0-0.7-0.3-0.6-0.7l3-153.4c0-0.3,0.3-0.6,0.6-0.7l68.2-10.6c0.2,0,0.4,0,0.5,0.1&#10;&#9;&#9;c0.2,0.1,0.3,0.3,0.3,0.5l22.6,164c0.1,0.4-0.2,0.7-0.6,0.8l-27.8,5.7L203.2,383.7L203.2,383.7z M180.2,269c0.3,0,0.6,0.2,0.7,0.6&#10;&#9;&#9;l22.9,112.6l26.5-5.5l-22.4-162.6L141,224.5l-2.9,152.2l24,1.7l17.4-108.7C179.6,269.3,179.9,269,180.2,269L180.2,269z"/>
	<path class="st0_conference-52" d="M150.9,102.1c-1.1-5-2.6-10-3.1-15.1s0.2-10.6,3.2-14.8c1.1-1.8,2.8-3.1,4.7-3.8c1.7-0.5,4.7,0.4,4.7,0.4&#10;&#9;&#9;c1.4-1,2.9-2,4.4-2.9c3.3-1.5,6.9-2.4,10.6-2.6c5.1-0.5,11.1-0.2,14.4,3.8c2.4,2.9,2.6,7,2.7,10.8c0.1,3.2,0.2,6.5,0.3,9.7"/>
	<path class="st3_conference-52" d="M150.9,102.8c-0.3,0-0.6-0.2-0.7-0.6c-0.3-1.3-0.6-2.6-0.9-3.9c-1-3.7-1.7-7.5-2.1-11.3&#10;&#9;&#9;c-0.4-4.2-0.1-10.3,3.3-15.3c1.2-1.9,3-3.4,5.1-4.1c1.6-0.3,3.2-0.2,4.8,0.3c1.4-1,2.8-1.9,4.2-2.8c3.4-1.5,7.1-2.4,10.8-2.6&#10;&#9;&#9;c7.3-0.7,12.2,0.6,15,4c2.7,3.3,2.8,7.9,2.9,11.3l0.3,9.7c0,0.4-0.3,0.7-0.7,0.7c0,0,0,0,0,0c-0.4,0-0.7-0.3-0.7-0.6c0,0,0,0,0-0.1&#10;&#9;&#9;l-0.2-9.6c-0.1-4.1-0.4-7.7-2.6-10.4c-2.5-3-7-4.2-13.8-3.5c-3.6,0.2-7.1,1.1-10.3,2.5c-1.5,0.9-2.9,1.8-4.3,2.8&#10;&#9;&#9;c-0.2,0.1-0.4,0.2-0.6,0.1c-1.4-0.5-2.8-0.6-4.2-0.4c-1.8,0.7-3.3,1.9-4.3,3.5c-3.1,4.6-3.4,10.3-3,14.3c0.4,3.7,1.1,7.4,2.1,11.1&#10;&#9;&#9;c0.3,1.3,0.6,2.6,0.9,4c0.1,0.4-0.2,0.8-0.5,0.9c0,0,0,0,0,0L150.9,102.8L150.9,102.8z"/>
	<path class="st3_conference-52" d="M212.6,238.5c-5.6-26.4-16.5-105.5-19-106.6c-6.1-2.8-38.1-5.9-45.3,6.4c-2.3,3.9,4.3,85.1,7.2,107.5&#10;&#9;&#9;L212.6,238.5L212.6,238.5z"/>
	<polygon class="st0_conference-52" points="181.4,144.1 177.4,153.7 187.2,210.9 180.2,222.8 168.8,214.4 172.8,153.2 162.7,140.7 &#9;"/>
	<path class="st3_conference-52" d="M180.2,223.5c-0.2,0-0.3-0.1-0.4-0.1l-11.4-8.4c-0.2-0.1-0.3-0.4-0.3-0.6l4-61l-10-12.3&#10;&#9;&#9;c-0.2-0.2-0.2-0.6-0.1-0.8c0.2-0.3,0.5-0.4,0.8-0.3l18.7,3.4c0.2,0,0.4,0.2,0.5,0.4c0.1,0.2,0.1,0.4,0,0.6l-4,9.4l9.8,57&#10;&#9;&#9;c0,0.2,0,0.3-0.1,0.5l-7,11.9c-0.1,0.2-0.3,0.3-0.5,0.3L180.2,223.5L180.2,223.5z M169.6,214.1l10.4,7.6l6.5-11l-9.8-56.9&#10;&#9;&#9;c0-0.1,0-0.3,0.1-0.4l3.7-8.8l-15.9-2.9l8.9,11c0.1,0.1,0.2,0.3,0.2,0.5L169.6,214.1L169.6,214.1z"/>
	<path class="st2_conference-52 targetColor" d="M167.8,255l-11.2-121.1l30.9-1.1l5.6,122.2l29.3-2.9c-4.5-39.9-8.1-113.6-11.9-117.8&#10;&#9;&#9;c-14.2-15.4-50.6-10.3-50.6-10.3s-26.2,1.3-34.6,16.6c-2.1,3.9,0.1,106.9,0.4,123.5L167.8,255z" style="fill: rgb(104, 225, 253);"/>
	<path class="st3_conference-52" d="M129.8,259.7L129.8,259.7c-0.4,0-0.7-0.3-0.7-0.7l0,0c0-1,0-105.1,0-106.6c0-0.4,0.3-0.7,0.7-0.7c0,0,0,0,0,0&#10;&#9;&#9;c0.4,0,0.7,0.3,0.7,0.7c0,0,0,0,0,0c0,1.5,0,102.3,0,106.6C130.5,259.4,130.2,259.7,129.8,259.7L129.8,259.7z"/>
	<path class="st3_conference-52" d="M125.3,264.9c-0.4,0-0.7-0.3-0.8-0.7c0-0.4,0.2-0.7,0.6-0.7l41.5-9l-0.9-21.6c0-0.4,0.3-0.7,0.7-0.7&#10;&#9;&#9;c0,0,0,0,0,0c0.4,0,0.7,0.3,0.8,0.7l0.9,22.2c0,0.3-0.2,0.7-0.6,0.7l-42.1,9.2L125.3,264.9L125.3,264.9z"/>
	<path class="st0_conference-52" d="M185.1,123.6l1.7,10.8c0,0-1.7,15.7-13.6,12.9s-16.6-13.4-16.6-13.4l-1.5-28.5c0,0,8.7-4.8,6-23.8&#10;&#9;&#9;c9.7,4.1,20.3,5.5,30.8,4c0,0,4.2,19.6,2.9,28.7S185.1,123.6,185.1,123.6L185.1,123.6z"/>
	<path class="st3_conference-52" d="M175.8,148.4c-1,0-1.9-0.1-2.8-0.4c-12.1-2.8-16.9-13.4-17.1-13.8c0-0.1-0.1-0.2-0.1-0.2l-1.5-28.5&#10;&#9;&#9;c0-0.3,0.1-0.5,0.4-0.7c0.1,0,8.2-4.8,5.6-23c0-0.3,0.1-0.5,0.3-0.7c0.2-0.2,0.5-0.2,0.7-0.1c9.6,4,20.1,5.3,30.3,3.9&#10;&#9;&#9;c0.4-0.1,0.7,0.2,0.8,0.6c0.2,0.8,4.2,19.8,2.9,29c-1.2,7.9-7.3,9.5-9.5,9.8l1.5,10c0,0.1,0,0.1,0,0.2c0,0.4-1,8.5-6.1,12.2&#10;&#9;&#9;C179.7,147.8,177.8,148.4,175.8,148.4L175.8,148.4z M157.3,133.7c0.6,1.1,5.3,10.4,16,12.9c2.4,0.7,5,0.3,7.1-1.1&#10;&#9;&#9;c4.4-3.1,5.4-10.2,5.5-11.1l-1.6-10.7c-0.1-0.4,0.2-0.8,0.6-0.8c0,0,0.1,0,0.1,0c0.3,0,7.7-0.2,8.9-8.6c1.2-8-2-24.4-2.7-27.8&#10;&#9;&#9;c-9.9,1.2-20,0-29.3-3.6c2,16.2-4.4,21.8-6.1,23L157.3,133.7L157.3,133.7z"/>
	<path class="st0_conference-52" d="M179,97.1c0,0,5.6,10.3,3.9,11.9s-5.9,0-5.9,0"/>
	<path class="st3_conference-52" d="M180.5,110.4c-1.3,0-2.6-0.3-3.8-0.7c-0.4-0.1-0.5-0.5-0.4-0.9c0.1-0.4,0.5-0.5,0.9-0.4c0,0,0,0,0,0&#10;&#9;&#9;c1,0.3,4.1,1.1,5.2,0.1c0.7-0.6-1.3-5.9-4.1-11c-0.2-0.3-0.1-0.8,0.3-0.9s0.8-0.1,0.9,0.3l0,0c1.8,3.2,5.7,11,3.8,12.7&#10;&#9;&#9;C182.6,110.1,181.6,110.4,180.5,110.4L180.5,110.4z"/>
	
		<ellipse transform="matrix(0.9992 -3.996804e-02 3.996804e-02 0.9992 -3.6895 6.8235)" class="st3_conference-52" cx="168.8" cy="95.7" rx="1.2" ry="2.7"/>
	
		<ellipse transform="matrix(0.9991 -4.205003e-02 4.205003e-02 0.9991 -3.8396 7.9669)" class="st3_conference-52" cx="187.5" cy="95.3" rx="1.2" ry="2.7"/>
	<path class="st0_conference-52" d="M162.7,100.5c-1-1.8-2.4-3.4-4.1-4.6c-0.8-0.7-1.9-1.2-3-1.3c-0.9,0-1.8,0.3-2.6,0.8c-2.4,1.4-4,3.7-4.6,6.4&#10;&#9;&#9;c-0.3,1.2-0.2,2.5,0.1,3.7c0.7,1.9,2,3.4,3.7,4.4c1.7,1,3.5,1.8,5.4,2.3"/>
	<path class="st3_conference-52" d="M157.6,112.9c-0.1,0-0.2,0-0.2,0c-1.9-0.6-3.8-1.4-5.6-2.4c-1.9-1.1-3.3-2.8-4-4.8c-0.4-1.3-0.4-2.7-0.2-4.1&#10;&#9;&#9;c0.6-2.9,2.4-5.4,4.9-6.9c0.9-0.6,1.9-0.9,3-0.9c1.3,0.1,2.5,0.7,3.4,1.5c1.7,1.3,3.2,3,4.3,4.8c0.2,0.3,0.1,0.8-0.3,1&#10;&#9;&#9;c-0.3,0.2-0.8,0.1-1-0.3l0,0c-1-1.7-2.3-3.2-3.9-4.4c-0.7-0.6-1.6-1.1-2.6-1.2c-0.8,0-1.6,0.3-2.2,0.7c-2.2,1.3-3.7,3.4-4.2,5.9&#10;&#9;&#9;c-0.2,1.1-0.2,2.3,0.1,3.3c0.6,1.7,1.8,3.1,3.4,4c1.7,1,3.4,1.7,5.2,2.3c0.4,0.1,0.6,0.5,0.5,0.9&#10;&#9;&#9;C158.3,112.7,158,112.9,157.6,112.9z"/>
	<path class="st3_conference-52" d="M185.1,123.6c-6.8,1-13.8-0.1-19.9-3.3c0,0,10.1,15.6,21.4,13.4L185.1,123.6z"/>
	<path class="st3_conference-52" d="M184.4,134.6c-10.6,0-19.4-13.3-19.8-13.9c-0.2-0.3-0.1-0.6,0.1-0.8c0.2-0.2,0.6-0.3,0.8-0.2&#10;&#9;&#9;c6,3.1,12.8,4.2,19.4,3.2c0.4-0.1,0.8,0.2,0.8,0.5c0,0,0,0,0,0l1.6,10.1c0.1,0.4-0.2,0.7-0.6,0.8&#10;&#9;&#9;C186,134.5,185.2,134.6,184.4,134.6L184.4,134.6z M167.4,122.1c3.1,4,10.5,12.1,18.5,11l-1.3-8.7&#10;&#9;&#9;C178.7,125.1,172.8,124.3,167.4,122.1L167.4,122.1z"/>
	<ellipse class="st3_conference-52" cx="179.5" cy="115.2" rx="1.9" ry="3"/>
	<path class="st3_conference-52" d="M170,104.6c-5.2,0-9.4-4.2-9.4-9.4s4.2-9.4,9.4-9.4c5.2,0,9.4,4.2,9.4,9.4c0,0,0,0,0,0&#10;&#9;&#9;C179.4,100.4,175.2,104.6,170,104.6z M170,87.2c-4.4,0-8,3.6-8,8s3.6,8,8,8s8-3.6,8-8S174.4,87.2,170,87.2z"/>
	<path class="st3_conference-52" d="M188.8,104.6c-5.2,0-9.4-4.2-9.4-9.4s4.2-9.4,9.4-9.4c5.2,0,9.4,4.2,9.4,9.4c0,0,0,0,0,0&#10;&#9;&#9;C198.2,100.4,194,104.6,188.8,104.6z M188.8,87.2c-4.4,0-8,3.6-8,8s3.6,8,8,8s8-3.6,8-8S193.2,87.2,188.8,87.2z"/>
	<path class="st0_conference-52" d="M282.6,150.6c-0.1-1.3,6.4-5.3,7.4-6.4c3.8-4,7.6-8,11.3-12c1.1-1.2,2.4-2.5,4.1-2.7c0.3,0,0.6,0,0.9,0.1&#10;&#9;&#9;c0.8,0.5,0.5,1.7,0.1,2.5c-1.6,3.2-3.5,6.3-5.6,9.2c5.6-3.9,11.2-7.6,17-11.1c0.9-0.6,2-1.1,3-0.6c0.6,0.4,1,1,1.1,1.7&#10;&#9;&#9;c0.7,2.8-0.3,5.7-1.5,8.3c-4.1,8.1-11.4,13.8-18.8,18.6c-3.6,2.4-6.6,5.1-10.1,7.6c-0.7,0.5-7.1,4.3-7,5.1&#10;&#9;&#9;C284.5,170.9,282.6,150.7,282.6,150.6L282.6,150.6z"/>
	<path class="st3_conference-52" d="M284.5,171.6c-0.4,0-0.7-0.3-0.7-0.7l0,0l-0.4-3.9c-0.5-5.9-1.5-16.4-1.5-16.5c-0.1-1.2,1.6-2.5,5.3-5.2&#10;&#9;&#9;c0.8-0.5,1.6-1.1,2.3-1.8c2.5-2.7,5-5.3,7.5-7.9l3.9-4.1c1-1.1,2.5-2.7,4.5-2.9c0.5-0.1,0.9,0,1.3,0.2c1,0.6,1.1,1.9,0.3,3.4&#10;&#9;&#9;c-1.1,2.1-2.3,4.2-3.5,6.2c4.6-3.1,9.3-6.1,14-9c1.1-0.6,2.4-1.3,3.7-0.6c0.8,0.5,1.3,1.3,1.4,2.2c0.6,2.5,0.1,5.4-1.6,8.8&#10;&#9;&#9;c-4.2,8.4-12,14.2-19,18.9c-2.1,1.4-4.1,3-6.1,4.5c-1.3,1-2.6,2-4,3c-0.2,0.1-0.6,0.4-1.2,0.8c-1.2,0.8-5,3.2-5.5,3.9&#10;&#9;&#9;C285.2,171.3,284.9,171.6,284.5,171.6L284.5,171.6L284.5,171.6z M285.2,170.8L285.2,170.8z M283.4,150.5c0.1,0.8,1,10.8,1.5,16.4&#10;&#9;&#9;c0.1,1,0.2,1.7,0.2,2.3c0.9-0.7,2.4-1.7,4.9-3.3c0.5-0.4,1-0.6,1.1-0.7c1.4-1,2.6-2,4-3c2-1.5,4-3.1,6.2-4.6&#10;&#9;&#9;c6.9-4.5,14.4-10.3,18.5-18.3c1.5-3,2-5.6,1.5-7.8c-0.1-0.5-0.3-0.9-0.7-1.2c-0.6-0.3-1.5,0.1-2.2,0.6c-5.7,3.5-11.5,7.2-17,11.1&#10;&#9;&#9;c-0.3,0.2-0.7,0.2-0.9-0.1c-0.2-0.3-0.3-0.6-0.1-0.9c2.1-2.9,3.9-6,5.5-9.1c0.4-0.7,0.5-1.4,0.2-1.5c-0.1-0.1-0.3-0.1-0.5-0.1&#10;&#9;&#9;c-1.4,0.1-2.5,1.2-3.6,2.4l-3.9,4.1c-2.5,2.7-5,5.3-7.5,7.9c-0.8,0.7-1.6,1.4-2.5,2C286.6,147.7,283.6,149.9,283.4,150.5&#10;&#9;&#9;L283.4,150.5z"/>
	<path class="st2_conference-52 targetColor" d="M210.5,134.3c0,0,31.2,24.4,37.6,27.6s32.9-14.2,32.9-14.2l18,15.6c0,0-31,37.4-50.9,36.7&#10;&#9;&#9;s-44.6-34.9-44.6-34.9" style="fill: rgb(104, 225, 253);"/>
	<path class="st3_conference-52" d="M298.9,153.1c-0.1,0-0.3,0-0.4-0.1c-0.3-0.2-0.4-0.7-0.2-1c4.2-6.5,1.9-10.3,1.9-10.4c-0.2-0.3-0.1-0.8,0.2-1&#10;&#9;&#9;c0.3-0.2,0.8-0.1,1,0.2l0,0c0.1,0.2,2.7,4.7-1.9,11.9C299.4,153,299.2,153.1,298.9,153.1L298.9,153.1z"/>
	<path class="st3_conference-52" d="M193.1,255.7c-0.2,0-0.3-0.1-0.5-0.2c-0.1-0.1-0.2-0.3-0.2-0.5l-1.6-35.8c0-0.4,0.3-0.7,0.7-0.7c0,0,0,0,0,0&#10;&#9;&#9;c0.4,0,0.7,0.3,0.7,0.7c0,0,0,0,0,0l1.6,35l28.5-2.9c0.4,0,0.7,0.2,0.8,0.6c0,0,0,0,0,0c0,0.4-0.2,0.7-0.6,0.8c0,0,0,0,0,0&#10;&#9;&#9;L193.1,255.7L193.1,255.7L193.1,255.7z"/>
</g>
<g id="Audience_conference-52">
	<path class="st0_conference-52" d="M375,291.1c1.6-9.7,17.7-12.1,16.9-0.7c-0.3,3.9-1.5,8-4.3,10.8s-7.2,4.2-10.9,2.5"/>
	<path class="st3_conference-52" d="M380.2,305.2c-1.3,0-2.5-0.3-3.7-0.8c-0.4-0.2-0.5-0.6-0.3-1c0.2-0.3,0.5-0.5,0.9-0.3c3.1,1.4,7.3,0.4,10-2.4&#10;&#9;&#9;c3-3.1,3.9-7.3,4.1-10.3c0.4-5.6-3.4-6.7-5.1-6.9c-4.3-0.5-9.6,2.5-10.4,7.7c-0.1,0.4-0.4,0.7-0.8,0.6c-0.4-0.1-0.7-0.4-0.6-0.8&#10;&#9;&#9;l0,0c1-6,7-9.5,12-8.9c3.3,0.4,6.7,2.8,6.4,8.4c-0.2,3.3-1.2,7.9-4.5,11.2C386,303.9,383.1,305.1,380.2,305.2L380.2,305.2z"/>
	<path class="st0_conference-52" d="M334.7,291.1c-1.6-9.7-17.7-12.1-16.9-0.7c0.3,3.9,1.5,8,4.3,10.8s7.2,4.2,10.9,2.5"/>
	<path class="st3_conference-52" d="M329.6,305.2c-3,0-5.9-1.3-8-3.5c-3.3-3.4-4.3-8-4.5-11.2c-0.4-5.6,3-8,6.3-8.4c5-0.6,11.1,2.9,12,8.9&#10;&#9;&#9;c0.1,0.4-0.2,0.8-0.6,0.8c-0.4,0.1-0.8-0.2-0.8-0.6l0,0c-0.8-5.1-6.2-8.2-10.4-7.7c-1.6,0.2-5.5,1.2-5.1,6.9&#10;&#9;&#9;c0.2,3,1.1,7.3,4.1,10.3c2.8,2.8,6.9,3.8,10,2.4c0.4-0.2,0.8,0,0.9,0.3c0,0,0,0,0,0c0.2,0.4,0.1,0.8-0.3,1c0,0,0,0-0.1,0&#10;&#9;&#9;C332,305,330.8,305.2,329.6,305.2L329.6,305.2z"/>
	<path class="st0_conference-52" d="M381.3,291.8l-2.8-28.6c0,0-7.8-9.6-23.6-9.6s-23.6,9.6-23.6,9.6l-1.2,25.3c0,12.5,3.2,20,8,24.2l-1.2,27.1&#10;&#9;&#9;c0,0,4.4,9.5,17.1,9.5s18-9.5,18-9.5l-1.1-24.5C375.8,312.3,379.5,305.9,381.3,291.8L381.3,291.8z"/>
	<path class="st3_conference-52" d="M354.9,253.6c15.9,0,23.6,9.6,23.6,9.6l2.8,28.6c-1.8,14.1-5.5,20.5-10.4,23.5l1.1,24.5&#10;&#9;&#9;c-3.9,6.1-10.7,9.7-18,9.5c-12.7,0-17.1-9.5-17.1-9.5l1.2-27.1c-4.9-4.3-8-11.8-8-24.2l1.2-25.3C331.2,263.2,339,253.6,354.9,253.6&#10;&#9;&#9; M354.8,252.2c-16.4,0-24.4,9.7-24.8,10.1c-0.2,0.2-0.3,0.5-0.3,0.8l-1.2,25.3c0,11.5,2.7,19.9,8,24.9l-1.2,26.4&#10;&#9;&#9;c0,0.2,0,0.5,0.1,0.7c0.2,0.4,4.9,10.4,18.5,10.4s19-9.9,19.2-10.3c0.1-0.2,0.2-0.5,0.2-0.8l-1-23.7c5.5-3.7,8.7-11.2,10.4-24&#10;&#9;&#9;c0-0.1,0-0.2,0-0.3l-2.8-28.7c0-0.3-0.1-0.5-0.3-0.8C379.3,261.8,371.2,252.1,354.8,252.2L354.8,252.2z"/>
	<path class="st3_conference-52" d="M413.4,354c-15.8-21.8-42.8-23.7-59-23.7s-43.2,1.9-59,23.7s-15,62.6-15,62.6h148&#10;&#9;&#9;C428.4,416.6,429.2,375.8,413.4,354z"/>
	<path class="st3_conference-52" d="M428.4,417.3h-148c-0.4,0-0.7-0.3-0.7-0.7c0-0.4-0.6-41.3,15.2-63.1c17.4-24,49.1-24,59.5-24&#10;&#9;&#9;c42.2,0,55.2,18.1,59.5,24c15.7,21.7,15.2,62.6,15.2,63.1C429.1,417,428.8,417.3,428.4,417.3L428.4,417.3z M281.1,415.9h146.6&#10;&#9;&#9;c0-5.4-0.5-41.7-14.9-61.5l0,0c-15.2-21-40.6-23.4-58.4-23.4s-43.2,2.4-58.4,23.4C281.6,374.2,281.1,410.5,281.1,415.9L281.1,415.9&#10;&#9;&#9;z"/>
	<path class="st0_conference-52" d="M305.9,404.7c-0.4,0-0.7-0.3-0.7-0.6l-4.9-47.3c-0.1-0.4,0.2-0.8,0.6-0.8s0.8,0.2,0.8,0.6c0,0,0,0.1,0,0.1&#10;&#9;&#9;l4.9,47.3C306.6,404.3,306.3,404.6,305.9,404.7L305.9,404.7L305.9,404.7z"/>
	<path class="st0_conference-52" d="M396.2,417.3h-0.1c-0.4-0.1-0.7-0.4-0.6-0.8c0,0,0,0,0,0l5.8-43.2c0.1-0.4,0.4-0.7,0.8-0.6&#10;&#9;&#9;c0.4,0.1,0.7,0.4,0.6,0.8c0,0,0,0,0,0l-5.8,43.2C396.9,417.1,396.6,417.3,396.2,417.3L396.2,417.3z"/>
	<path class="st2_conference-52 targetColor" d="M326.2,333.2c0,0,0.5-5.8,3-7.4s42.7-4.1,47.4,0s4.7,10.6,4.7,10.6S334.7,332.2,326.2,333.2L326.2,333.2z" style="fill: rgb(104, 225, 253);"/>
	<path class="st3_conference-52" d="M387.2,335.2H387c-34.8-10.7-63.9-0.1-64.2,0c-0.4,0.1-0.8,0-0.9-0.4c-0.1-0.4,0-0.8,0.4-0.9&#10;&#9;&#9;c0.3-0.1,29.9-10.9,65.2,0c0.4,0.1,0.6,0.5,0.5,0.9C387.8,335.1,387.5,335.3,387.2,335.2L387.2,335.2z"/>
	<path class="st0_conference-52" d="M319.5,295.4c-0.4,1.7-0.9,3.3-1.3,5c-2.2,8.4-4.6,16.8-4.7,25.4s2.4,17.7,8.6,23.6c5.7,5.4,13.6,7.5,21.3,9.1&#10;&#9;&#9;c7.9,1.6,16.1,2.8,24,1.5s15.8-5.5,19.9-12.4c4.2-7.2,3.8-16.3,2.1-24.5c-2.1-10.4-5.4-20.5-5.4-31.1c0-11.5,0.5-23.2-2.8-34.4&#10;&#9;&#9;c-1.5-5.1-4-10.2-8.4-13.2s-11.1-3-14.5,1.2c1-1.2-9.9-3.9-10.8-3.9c-2.7-0.1-5.4,0.7-7.7,2.2c-7.9,4.7-11.5,10.3-13.2,19.2&#10;&#9;&#9;C324.6,273.9,322.2,284.7,319.5,295.4L319.5,295.4z"/>
	<path class="st3_conference-52" d="M360.4,361.2c-5.7-0.1-11.5-0.8-17.1-2.1c-7.9-1.6-15.9-3.8-21.6-9.3s-9-14.3-8.9-24.2&#10;&#9;&#9;c0.1-8.1,2.2-16,4.2-23.6l0.5-1.9c0.4-1.6,0.9-3.3,1.3-5l0,0c2.7-10.6,5.1-21.5,7.1-32.3c1.8-9.3,5.7-15,13.5-19.7&#10;&#9;&#9;c2.4-1.6,5.2-2.4,8.1-2.3c0.4,0,8.6,1.7,10.9,3.4c3.8-3.8,10.5-3.4,14.8-0.6c3.9,2.6,6.8,7.1,8.7,13.6c2.9,9.9,2.9,20.2,2.8,30.2&#10;&#9;&#9;v4.4c0,7.6,1.8,15.1,3.5,22.4c0.6,2.8,1.3,5.7,1.9,8.6c2.1,10.6,1.4,18.8-2.2,25c-3.8,6.5-11.4,11.3-20.4,12.8&#10;&#9;&#9;C365.2,361.1,362.8,361.2,360.4,361.2L360.4,361.2z M320.2,295.5c-0.4,1.7-0.8,3.3-1.3,5l-0.5,1.9c-2,7.6-4.1,15.4-4.2,23.3&#10;&#9;&#9;c-0.1,9.5,2.9,17.9,8.4,23.1s13.3,7.3,20.9,8.9s15.8,2.8,23.8,1.5c8.5-1.4,15.8-5.9,19.4-12.1c3.4-5.9,4.1-13.7,2-24&#10;&#9;&#9;c-0.6-2.9-1.2-5.8-1.9-8.5c-1.7-7.4-3.5-15-3.5-22.7v-4.4c0-9.9,0.1-20.1-2.8-29.8c-1.8-6.2-4.5-10.4-8.1-12.8&#10;&#9;&#9;c-4-2.7-10.4-2.9-13.5,1l0,0c-0.3,0.3-0.7,0.4-1,0.1c-0.2-0.2-0.3-0.4-0.3-0.6c-1.3-1-9.1-3.1-10.1-3.1c-2.6-0.1-5.2,0.6-7.3,2.1&#10;&#9;&#9;c-7.5,4.4-11.2,9.9-12.9,18.8C325.3,273.9,322.9,284.8,320.2,295.5L320.2,295.5z"/>
	<path class="st0_conference-52" d="M142.4,291.1c1.6-9.7,17.7-12.1,16.9-0.7c-0.3,3.9-1.5,8-4.3,10.8s-7.2,4.2-10.9,2.5"/>
	<path class="st3_conference-52" d="M147.6,305.2c-1.3,0-2.5-0.3-3.7-0.8c-0.4-0.1-0.6-0.6-0.4-0.9c0.1-0.4,0.6-0.6,0.9-0.4c0,0,0.1,0,0.1,0&#10;&#9;&#9;c3.1,1.4,7.3,0.4,10-2.4c3-3.1,3.9-7.3,4.1-10.3c0.4-5.6-3.4-6.7-5.1-6.9c-4.3-0.5-9.6,2.5-10.4,7.7c-0.1,0.4-0.4,0.7-0.8,0.6&#10;&#9;&#9;c-0.4-0.1-0.7-0.4-0.6-0.8l0,0c1-6,7-9.5,12-8.9c3.3,0.4,6.7,2.8,6.3,8.4c-0.2,3.3-1.2,7.9-4.5,11.2&#10;&#9;&#9;C153.4,303.9,150.5,305.1,147.6,305.2L147.6,305.2z"/>
	<path class="st0_conference-52" d="M102.1,291.1c-1.6-9.7-17.7-12.1-16.9-0.7c0.3,3.9,1.5,8,4.3,10.8s7.2,4.2,10.8,2.5"/>
	<path class="st3_conference-52" d="M97,305.2c-3,0-5.9-1.3-8-3.5c-3.3-3.4-4.3-8-4.5-11.2c-0.4-5.6,3-8,6.3-8.4c5-0.6,11.1,2.9,12,8.9&#10;&#9;&#9;c0.1,0.4-0.2,0.8-0.6,0.8c-0.4,0.1-0.8-0.2-0.8-0.6l0,0c-0.8-5.1-6.2-8.2-10.4-7.7c-1.7,0.2-5.5,1.2-5.1,6.9&#10;&#9;&#9;c0.2,3,1.1,7.3,4.1,10.3c2.8,2.8,6.9,3.8,10,2.4c0.3-0.2,0.8-0.1,1,0.3c0,0,0,0.1,0,0.1c0.2,0.4,0.1,0.8-0.3,1c0,0,0,0-0.1,0&#10;&#9;&#9;C99.5,305,98.2,305.2,97,305.2L97,305.2z"/>
	<path class="st0_conference-52" d="M148.7,291.8l-2.8-28.6c0,0-7.8-9.6-23.6-9.6s-23.6,9.6-23.6,9.6l-1.2,25.3c0,12.5,3.2,20,8,24.2l-1.2,27.1&#10;&#9;&#9;c0,0,4.4,9.5,17.2,9.5s17.9-9.5,17.9-9.5l-1.1-24.5C143.2,312.3,146.8,305.9,148.7,291.8L148.7,291.8z"/>
	<path class="st3_conference-52" d="M122.3,253.6c15.9,0,23.6,9.6,23.6,9.6l2.8,28.6c-1.8,14.1-5.5,20.5-10.4,23.5l1.1,24.5&#10;&#9;&#9;c-3.9,6.1-10.7,9.7-17.9,9.5c-12.7,0-17.2-9.5-17.2-9.5l1.2-27.1c-4.9-4.3-8-11.8-8-24.2l1.2-25.3&#10;&#9;&#9;C98.7,263.2,106.5,253.6,122.3,253.6 M122.3,252.2c-16.4,0-24.4,9.7-24.8,10.1c-0.2,0.2-0.3,0.5-0.3,0.8L96,288.4&#10;&#9;&#9;c0,11.5,2.7,19.9,8,24.9l-1.2,26.4c0,0.2,0,0.5,0.1,0.7c0.2,0.4,4.9,10.4,18.5,10.4s19-9.9,19.2-10.3c0.1-0.2,0.2-0.5,0.2-0.8&#10;&#9;&#9;l-1-23.7c5.5-3.7,8.7-11.2,10.4-24c0-0.1,0-0.2,0-0.3l-2.8-28.7c0-0.3-0.1-0.5-0.3-0.8C146.7,261.8,138.6,252.1,122.3,252.2&#10;&#9;&#9;L122.3,252.2z"/>
	<path class="st0_conference-52" d="M94.1,297.2c3.6,2.7,7.4,4.6,9,9.8c0.2,0.8,0.5,1.5,0.9,2.2c0.4,0.5,1,0.8,1.6,1.1c1.7,0.7,3.6,1.1,5.4,1.1&#10;&#9;&#9;c0.7-0.1,1.5,0,2.2,0.1c0.7,0.3,1.4,0.7,2,1.1c3.2,2.1,7.3,2.4,10.8,0.9c0.8-0.5,1.8-0.8,2.7-0.9c0.9,0.1,1.8,0.4,2.7,0.7&#10;&#9;&#9;c4.1,1.1,7.5-2.2,10.2-4.7c1.4-1.3,2.2-1.5,2.9-3.4s-0.2-3.8,1.2-5.4c0.6-0.5,1.2-1,1.9-1.4c2.7-1.8,3.6-5.3,4.4-8.5&#10;&#9;&#9;c1-3.5,1.6-7.1,1.9-10.7c0-1.4,0-3,0.7-4.2c0.4-0.6,0.9-1.2,1.5-1.7c1.3-1.6,1.7-3.7,1.1-5.7c-0.5-1.6-1.7-3-1.9-4.7&#10;&#9;&#9;c-0.1-0.9,0.2-1.9,0.1-2.8c-0.1-3-3.3-4.9-6-6.2c0.6-5.8-6.9-6.4-10.5-8.4c-2.4-1.3-4.9-2.6-7.6-2.4c-1.6,0.1-3.2,0.7-4.8,0.8&#10;&#9;&#9;c-3.8,0.4-8-1.6-11.4,0.2c-0.9,0.7-1.9,1.3-3,1.7c-1.1,0.2-2.3,0.1-3.4-0.1c-3.9-0.5-7.1,0.7-10.3,2.9c-2,2.1-3.9,4.3-5.7,6.7&#10;&#9;&#9;c-4.6,0.3-8.2,5.4-6.8,9.8c0.2,0.5,0.3,1,0.4,1.5c0,0.6-0.1,1.2-0.2,1.7c-0.4,2.6,0.4,5.2,2.3,7c-2.9,2.6-3.1,7.1-0.4,10&#10;&#9;&#9;c0.2,0.2,0.5,0.5,0.7,0.7c-0.6,2.9,0.2,6,2.2,8.2C91.8,295.3,92.9,296.2,94.1,297.2L94.1,297.2z"/>
	<path class="st3_conference-52" d="M121.5,315c-2.4,0-4.7-0.7-6.7-2l-0.4-0.3c-0.4-0.3-0.9-0.6-1.5-0.8c-0.5-0.1-1.1-0.1-1.6-0.1H111&#10;&#9;&#9;c-2,0.1-3.9-0.3-5.7-1.1c-0.7-0.3-1.3-0.7-1.9-1.3c-0.5-0.6-0.8-1.4-1-2.1l-0.1-0.3c-1.2-4-4-6-6.9-8l-1.9-1.4&#10;&#9;&#9;c-1.2-0.9-2.3-1.9-3.3-3c-2.1-2.3-3-5.4-2.5-8.4c-3.1-2.9-3.4-7.8-0.5-11c-1.7-2-2.4-4.6-2-7.1l0.1-0.4c0.1-0.4,0.1-0.7,0.1-1.1&#10;&#9;&#9;c0-0.3-0.1-0.7-0.2-1l-0.1-0.4c-1.2-4.7,1.7-9.4,6.3-10.5c0.3-0.1,0.6-0.1,0.8-0.2C94,252.2,96,250,98,248c3.7-2.5,7.1-3.4,10.8-3&#10;&#9;&#9;l0.6,0.1c1.5,0.5,3,0.1,4.2-0.9c0.4-0.3,0.8-0.5,1.2-0.7c2.3-1.2,4.9-0.9,7.3-0.6c1.4,0.3,2.9,0.3,4.4,0.3c0.7-0.1,1.4-0.2,2.1-0.4&#10;&#9;&#9;c0.9-0.2,1.8-0.4,2.7-0.4c2.9-0.1,5.7,1.2,8,2.5c1,0.5,2.1,1,3.2,1.3c3.5,1.2,7.9,2.8,7.7,7.2c2.8,1.4,5.8,3.4,6,6.6&#10;&#9;&#9;c0,0.5,0,1-0.1,1.5c-0.1,0.4-0.1,0.9-0.1,1.3c0.1,0.9,0.5,1.8,0.9,2.6c0.3,0.6,0.6,1.3,0.9,1.9c0.7,2.2,0.2,4.6-1.2,6.4&#10;&#9;&#9;c-0.2,0.2-0.4,0.4-0.6,0.6c-0.3,0.3-0.6,0.6-0.8,1c-0.5,1-0.7,2.2-0.6,3.4v0.5c-0.2,3.7-0.8,7.3-1.9,10.8c-0.9,3.6-1.9,6.9-4.7,8.9&#10;&#9;&#9;c-0.2,0.1-0.4,0.3-0.6,0.4c-0.4,0.2-0.8,0.5-1.1,0.9c-0.6,0.8-0.8,1.7-0.7,2.7c0,0.9-0.1,1.7-0.4,2.5c-0.4,1.1-1.2,2.1-2.1,2.8&#10;&#9;&#9;c-0.3,0.2-0.6,0.5-1,0.9c-2.7,2.6-6.4,6.1-10.9,4.9c-0.3-0.1-0.7-0.2-1-0.3c-0.5-0.2-1-0.3-1.5-0.4c-0.7,0.1-1.4,0.3-2,0.6&#10;&#9;&#9;l-0.5,0.2C124.8,314.7,123.1,315,121.5,315L121.5,315z M112.1,310.5c0.5,0,0.9,0,1.3,0.2c0.7,0.2,1.3,0.6,1.9,1l0.4,0.3&#10;&#9;&#9;c3,2,6.8,2.3,10.2,0.8l0.5-0.2c0.8-0.4,1.7-0.7,2.6-0.8c0.7,0,1.4,0.2,2,0.5c0.3,0.1,0.6,0.2,0.9,0.3c3.7,1,6.9-2.1,9.5-4.5&#10;&#9;&#9;c0.4-0.4,0.7-0.7,1-0.9c0.8-0.5,1.4-1.3,1.7-2.2c0.2-0.6,0.3-1.3,0.3-2c-0.1-1.3,0.3-2.6,1.1-3.6c0.4-0.4,0.9-0.8,1.5-1.1&#10;&#9;&#9;c0.2-0.1,0.4-0.2,0.6-0.4c2.4-1.6,3.3-4.7,4.1-8c1-3.4,1.6-7,1.8-10.5v-0.5c-0.1-1.4,0.2-2.8,0.8-4.1c0.3-0.4,0.6-0.8,1-1.2&#10;&#9;&#9;c0.2-0.2,0.4-0.4,0.5-0.6c1.1-1.4,1.5-3.3,0.9-5c-0.2-0.6-0.5-1.2-0.8-1.7c-0.6-1-1-2-1.1-3.1c0-0.5,0-1.1,0.1-1.6&#10;&#9;&#9;c0.1-0.4,0.1-0.8,0.1-1.2c-0.1-2.6-3-4.4-5.6-5.6c-0.3-0.1-0.4-0.4-0.4-0.7c0.4-3.7-3.2-5-6.7-6.2c-1.2-0.4-2.3-0.9-3.5-1.4&#10;&#9;&#9;c-2.3-1.2-4.7-2.5-7.3-2.3c-0.8,0.1-1.7,0.2-2.5,0.4c-0.8,0.2-1.5,0.3-2.3,0.4c-1.6,0.1-3.2,0-4.7-0.3c-2.3-0.3-4.6-0.6-6.5,0.4&#10;&#9;&#9;c-0.3,0.2-0.7,0.4-1,0.6c-0.6,0.5-1.4,0.9-2.1,1.1c-1,0.2-2.1,0.2-3.1,0l-0.6-0.1c-3.3-0.4-6.4,0.4-9.8,2.7c-1.9,2-3.7,4.1-5.4,6.3&#10;&#9;&#9;c-0.1,0.3-0.3,0.4-0.6,0.5c-4,0.5-6.8,4.1-6.3,8.1c0,0.3,0.1,0.5,0.1,0.8l0.1,0.3c0.4,0.9,0.4,1.9,0.1,2.9l-0.1,0.4&#10;&#9;&#9;c-0.4,2.3,0.4,4.7,2.1,6.4c0.1,0.1,0.2,0.3,0.2,0.5c0,0.2-0.1,0.4-0.3,0.5c-2.6,2.4-2.7,6.4-0.3,9c0.2,0.2,0.4,0.4,0.6,0.5&#10;&#9;&#9;c0.2,0.2,0.3,0.5,0.3,0.8c-0.6,2.7,0.2,5.5,2.1,7.6c0.9,1.1,2,2,3.1,2.8l0,0c0.6,0.5,1.2,0.9,1.8,1.3c3,2.1,6.1,4.3,7.4,8.8&#10;&#9;&#9;l0.1,0.3c0.1,0.6,0.4,1.1,0.7,1.6c0.4,0.4,0.8,0.7,1.3,0.9c1.6,0.7,3.4,1,5.1,1h0.4c0.2,0,0.5,0,0.7,0V310.5z"/>
	<path class="st2_conference-52 targetColor" d="M93.7,333.2c0,0,0.5-5.8,3-7.4s42.7-4.1,47.4,0s4.7,10.6,4.7,10.6S102.2,332.2,93.7,333.2L93.7,333.2z" style="fill: rgb(104, 225, 253);"/>
	<path class="st0_conference-52" d="M180.8,354c-15.8-21.8-42.8-23.7-59-23.7s-43.2,1.9-59,23.7s-15,62.6-15,62.6h148&#10;&#9;&#9;C195.8,416.6,196.6,375.8,180.8,354z"/>
	<path class="st3_conference-52" d="M195.9,417.3h-148c-0.4,0-0.7-0.3-0.7-0.7c0-0.4-0.6-41.4,15.2-63.1c17.4-24,49.1-24,59.6-24&#10;&#9;&#9;c42.2,0,55.3,18.1,59.6,24c15.7,21.7,15.2,62.7,15.2,63.1C196.6,417,196.3,417.3,195.9,417.3C195.9,417.3,195.9,417.3,195.9,417.3z&#10;&#9;&#9; M48.6,415.9h146.6c0-5.5-0.6-41.7-14.9-61.5l0,0c-15.2-21-40.6-23.4-58.4-23.4s-43.2,2.4-58.4,23.4&#10;&#9;&#9;C49.1,374.2,48.6,410.4,48.6,415.9L48.6,415.9z"/>
	<path class="st3_conference-52" d="M79.2,417.3c-0.4,0-0.7-0.3-0.7-0.7l-3.8-50c0-0.4,0.3-0.7,0.7-0.8c0.4,0,0.7,0.3,0.8,0.7l3.8,50&#10;&#9;&#9;C79.9,416.9,79.6,417.3,79.2,417.3L79.2,417.3z"/>
	<path class="st3_conference-52" d="M167.6,417.3L167.6,417.3c-0.5,0-0.8-0.4-0.7-0.8c0,0,0,0,0,0l3.8-48.5c0-0.4,0.4-0.7,0.8-0.7s0.7,0.4,0.7,0.8&#10;&#9;&#9;l0,0l-3.8,48.5C168.3,417,168,417.3,167.6,417.3L167.6,417.3z"/>
	<path class="st0_conference-52" d="M274.2,300c1.6-9.7,17.7-12.1,16.9-0.7c-0.3,3.9-1.5,8-4.3,10.8s-7.2,4.2-10.9,2.5"/>
	<path class="st3_conference-52" d="M279.3,314.1c-1.3,0-2.5-0.3-3.7-0.8c-0.4-0.2-0.5-0.6-0.3-1c0.2-0.3,0.5-0.5,0.9-0.3c3.1,1.4,7.3,0.4,10-2.4&#10;&#9;&#9;c3-3.1,3.9-7.3,4.1-10.3c0.4-5.6-3.4-6.7-5.1-6.9c-4.3-0.5-9.6,2.5-10.4,7.7c-0.1,0.4-0.4,0.7-0.8,0.6c-0.4-0.1-0.7-0.4-0.6-0.8&#10;&#9;&#9;c1-6,7-9.5,12-8.9c3.3,0.4,6.7,2.8,6.4,8.4c-0.2,3.3-1.2,7.9-4.5,11.2C285.1,312.8,282.3,314,279.3,314.1L279.3,314.1z"/>
	<path class="st0_conference-52" d="M233.9,300c-1.6-9.7-17.7-12.1-16.9-0.7c0.3,3.9,1.5,8,4.3,10.8s7.2,4.2,10.9,2.5"/>
	<path class="st3_conference-52" d="M228.7,314.1c-3,0-5.9-1.3-8-3.5c-3.3-3.4-4.3-8-4.5-11.2c-0.4-5.6,3-8,6.3-8.4c5-0.6,11.1,2.9,12,8.9&#10;&#9;&#9;c0.1,0.4-0.2,0.8-0.6,0.8c-0.4,0.1-0.8-0.2-0.8-0.6c-0.8-5.1-6.2-8.2-10.4-7.7c-1.6,0.2-5.5,1.2-5.1,6.9c0.2,3,1.1,7.3,4.1,10.3&#10;&#9;&#9;c2.8,2.8,6.9,3.8,10,2.4c0.4-0.2,0.8,0,0.9,0.3c0,0,0,0,0,0c0.2,0.4,0,0.8-0.4,1C231.1,313.8,229.9,314.1,228.7,314.1L228.7,314.1z&#10;&#9;&#9;"/>
	<path class="st0_conference-52" d="M280.4,300.7l-2.8-28.6c0,0-7.8-9.6-23.6-9.6s-23.6,9.6-23.6,9.6l-1.2,25.3c0,12.5,3.2,20,8.1,24.2l-1.2,27.1&#10;&#9;&#9;c0,0,4.4,9.5,17.1,9.5s17.9-9.5,17.9-9.5l-1.1-24.5C274.9,321.2,278.6,314.8,280.4,300.7L280.4,300.7z"/>
	<path class="st3_conference-52" d="M254,262.5c15.9,0,23.6,9.6,23.6,9.6l2.8,28.6c-1.8,14.1-5.5,20.5-10.4,23.5l1.1,24.5&#10;&#9;&#9;c-3.9,6.1-10.7,9.7-17.9,9.5c-12.7,0-17.1-9.5-17.1-9.5l1.2-27.1c-4.9-4.3-8.1-11.8-8.1-24.2l1.2-25.3&#10;&#9;&#9;C230.4,272.1,238.1,262.5,254,262.5 M254,261.1c-16.4,0-24.4,9.7-24.8,10.1c-0.2,0.2-0.3,0.5-0.3,0.8l-1.2,25.3&#10;&#9;&#9;c0,11.5,2.7,19.9,8,24.9l-1.2,26.4c0,0.2,0,0.5,0.1,0.7c0.2,0.4,4.9,10.4,18.5,10.4s19-9.9,19.2-10.3c0.1-0.2,0.2-0.5,0.2-0.8&#10;&#9;&#9;l-1.1-23.7c5.5-3.7,8.7-11.2,10.4-24c0-0.1,0-0.2,0-0.3l-2.7-28.6c0-0.3-0.1-0.5-0.3-0.8C278.4,270.8,270.4,261.1,254,261.1&#10;&#9;&#9;L254,261.1z"/>
	<path class="st0_conference-52" d="M227.6,303c0.5,1.4,1,2.7,1.6,4c1.4,3.1,5.3,6.8,7.1,9.7c2.2,3.5,1.9,2.8,5.8,3.2c8.6,0.9,17.3,1,25.9,0.3&#10;&#9;&#9;c2-0.2,4.2-0.5,5.6-2c0.7-0.8,1.2-1.8,1.5-2.8c3.3-8.4,6.3-17,9-25.6c1.2-3.5,1.6-7.2,1.2-10.9c-0.1-1-0.6-9.3-2.8-8.5&#10;&#9;&#9;c1.4-0.5,3.3,0.4,4.8,0.8c-1.8-4-5.4-8.4-9.8-8.2c1-5.8-4.4-9.7-10-11.7s-11.6-1.3-17.5-0.3c-5.1,0.8-10.3,1.7-15,3.9&#10;&#9;&#9;c-9.1,4.3-15,15.8-13.2,25.9C223.2,288.4,225.1,295.8,227.6,303L227.6,303z"/>
	<path class="st3_conference-52" d="M256.7,321.4c-4.9,0-9.7-0.3-14.6-0.8c-0.7-0.1-1.2-0.1-1.7-0.1c-2.5-0.2-2.8-0.4-4.7-3.4&#10;&#9;&#9;c-0.9-1.3-1.9-2.6-2.9-3.8c-1.7-1.8-3.1-3.9-4.3-6.1c-0.6-1.3-1.1-2.7-1.6-4.1l0,0c-2.6-7.2-4.5-14.7-5.7-22.3&#10;&#9;&#9;c-1.8-10.3,4.3-22.3,13.6-26.6c4.8-2.2,10.1-3.2,15.2-4c5.9-0.9,12.2-1.7,17.8,0.4c7,2.5,10.9,6.8,10.6,11.7c4.5,0.3,8,4.8,9.7,8.6&#10;&#9;&#9;c0.1,0.3,0.1,0.5-0.1,0.8c-0.2,0.2-0.5,0.3-0.7,0.2c-0.4-0.1-0.8-0.2-1.2-0.4s-0.9-0.3-1.4-0.4c0.5,1.1,1.1,3.3,1.4,7.6v0.1&#10;&#9;&#9;c0.4,3.8,0,7.6-1.3,11.2c-2.7,8.6-5.7,17.2-9,25.6c-0.4,1.1-0.9,2.1-1.6,3c-1.6,1.7-4,2-6.1,2.2&#10;&#9;&#9;C264.4,321.3,260.6,321.4,256.7,321.4L256.7,321.4z M228.3,302.7c0.5,1.4,1,2.7,1.6,4c1.1,2.1,2.4,4,4,5.7c1.1,1.2,2.1,2.6,3,3.9&#10;&#9;&#9;c1.1,1.7,2.2,2.6,3.5,2.7c0.5,0,1.1,0.1,1.8,0.1c8.5,0.9,17.2,1,25.7,0.3c1.9-0.2,3.9-0.4,5.1-1.7c0.6-0.8,1.1-1.6,1.4-2.5&#10;&#9;&#9;c3.3-8.4,6.3-17,9-25.5c1.2-3.4,1.6-7.1,1.3-10.7v-0.1c-0.5-6.8-1.6-7.7-1.8-7.8l0,0h-0.1c-0.4,0.1-0.8-0.1-0.9-0.4&#10;&#9;&#9;c-0.1-0.4,0.1-0.8,0.4-0.9l0,0l0,0c1.2-0.3,2.5-0.2,3.7,0.3c-1.9-3.5-5-6.5-8.4-6.3c-0.2,0-0.4-0.1-0.6-0.2&#10;&#9;&#9;c-0.1-0.2-0.2-0.4-0.2-0.6c1.1-6.4-6.3-9.8-9.5-10.9c-5.3-1.9-11.4-1.2-17.1-0.3c-5.2,0.8-10.2,1.7-14.8,3.9&#10;&#9;&#9;c-8.8,4.1-14.5,15.4-12.8,25.1C223.9,288.2,225.8,295.5,228.3,302.7L228.3,302.7L228.3,302.7z"/>
	<path class="st0_conference-52" d="M225.4,342.1c0,0,0.5-5.8,3-7.4s42.7-4.1,47.4,0s4.7,10.6,4.7,10.6S233.9,341.1,225.4,342.1L225.4,342.1z"/>
	<path class="st3_conference-52" d="M280.4,346.1L280.4,346.1c-0.5,0-46.7-4.2-54.9-3.3c-0.2,0-0.4,0-0.6-0.2c-0.2-0.1-0.2-0.4-0.2-0.6&#10;&#9;&#9;c0-0.6,0.6-6.2,3.3-7.9c2-1.3,43-4.6,48.2,0.1c4.9,4.3,4.9,10.9,4.9,11.1c0,0.2-0.1,0.4-0.2,0.5C280.7,346,280.6,346,280.4,346.1&#10;&#9;&#9;L280.4,346.1z M229.2,341.2c12.8,0,44.6,2.8,50.4,3.4c-0.3-3.5-1.8-6.8-4.4-9.3c-1.8-1.6-11-2.4-24-2c-12.1,0.4-21.6,1.5-22.5,2&#10;&#9;&#9;c-1.5,1-2.3,4.1-2.5,5.9C227,341.2,228,341.1,229.2,341.2L229.2,341.2z"/>
	<path class="st2_conference-52 targetColor" d="M312.5,362.9c-15.8-21.8-42.8-23.7-59-23.7s-43.2,1.9-59,23.7s-15,53.7-15,53.7h148&#10;&#9;&#9;C327.5,416.6,328.3,384.7,312.5,362.9z" style="fill: rgb(104, 225, 253);"/>
	<path class="st2_conference-52 targetColor" d="M327.6,417.3h-148c-0.4,0-0.7-0.3-0.7-0.7c0-0.3-0.6-32.4,15.2-54.2c17.4-24,49.1-24,59.6-24&#10;&#9;&#9;c42.2,0,55.3,18.1,59.6,24c15.7,21.7,15.2,53.8,15.2,54.2C328.3,417,328,417.3,327.6,417.3C327.6,417.3,327.6,417.3,327.6,417.3z&#10;&#9;&#9; M180.3,415.9h146.6c0-4.8-0.7-33-14.9-52.6c-15.2-21-40.6-23.4-58.4-23.4s-43.2,2.4-58.4,23.4C181,382.8,180.3,411.1,180.3,415.9&#10;&#9;&#9;L180.3,415.9z" style="fill: rgb(104, 225, 253);"/>
	<path class="st3_conference-52" d="M208.8,417.3c-0.4,0-0.7-0.3-0.7-0.7l-1.9-43.2c0-0.4,0.3-0.7,0.7-0.7c0,0,0,0,0,0c0.4,0,0.7,0.3,0.8,0.7&#10;&#9;&#9;l1.9,43.2C209.5,417,209.2,417.3,208.8,417.3C208.8,417.3,208.8,417.3,208.8,417.3L208.8,417.3z"/>
	<path class="st3_conference-52" d="M296.6,417.3L296.6,417.3c-0.4,0-0.7-0.4-0.7-0.8c0,0,0,0,0,0l2.3-40.1c0-0.4,0.3-0.7,0.7-0.7c0,0,0,0,0,0&#10;&#9;&#9;c0.4,0,0.7,0.4,0.7,0.8c0,0,0,0,0,0l-2.3,40.1C297.4,417,297,417.4,296.6,417.3C296.6,417.3,296.6,417.3,296.6,417.3z"/>
</g>
</svg>