<svg version="1.1" id="Layer_1" xmlns="http://www.w3.org/2000/svg" xmlns:xlink="http://www.w3.org/1999/xlink" x="0px" y="0px" viewBox="0 0 500 500" style="width: 262px;" xml:space="preserve" data-imageid="team-presentation-3-40" imageName="Team Presentation 3" class="illustrations_image">
<style type="text/css">
	.st0_team-presentation-3-40{fill:#FFFFFF;}
	.st1_team-presentation-3-40{fill:#093F68;}
	.st2_team-presentation-3-40{fill:#DFEAEF;}
	.st3_team-presentation-3-40{fill:#FFC9B0;}
	.st4_team-presentation-3-40{fill:#68E1FD;}
	.st5_team-presentation-3-40{fill:#725858;}
	.st6_team-presentation-3-40{fill:#FFBC0E;}
	.st7_team-presentation-3-40{fill:none;}
</style>
<g id="screen_team-presentation-3-40">
	<path class="st0_team-presentation-3-40" d="M47.6,111.6h404.9c2.5,0,4.6,2.1,4.6,4.6v206.1c0,5-4.1,9.1-9.1,9.1H52c-5,0-9.1-4.1-9-9.1V116.2&#10;&#9;&#9;C43,113.6,45,111.6,47.6,111.6z"/>
	<path class="st1_team-presentation-3-40" d="M448.9,333.2H51.1c-5.5,0-9.9-4.4-9.9-9.9V111.6c0-1,0.8-1.8,1.8-1.8c0,0,0,0,0,0h414c1,0,1.8,0.8,1.8,1.8&#10;&#9;&#9;v211.7C458.8,328.7,454.4,333.2,448.9,333.2z M44.8,113.4v209.9c0,3.5,2.8,6.3,6.3,6.3h397.8c3.5,0,6.3-2.8,6.3-6.3V113.4H44.8z"/>
	<path class="st0_team-presentation-3-40" d="M51.2,92.4h397.7c4.5,0,8.2,3.7,8.2,8.2v0v11l0,0H43l0,0v-11C43,96.1,46.6,92.4,51.2,92.4z"/>
	<path class="st1_team-presentation-3-40" d="M457,113.4H43c-1,0-1.8-0.8-1.8-1.8v-11c0-5.5,4.4-9.9,9.9-9.9h397.8c5.5,0,9.9,4.4,9.9,9.9v11&#10;&#9;&#9;C458.9,112.5,458,113.4,457,113.4C457,113.4,457,113.4,457,113.4z M44.8,109.7h410.5v-9.2c0-3.5-2.8-6.3-6.3-6.3H51.1&#10;&#9;&#9;c-3.5,0-6.3,2.8-6.3,6.3V109.7z"/>
	<circle class="st1_team-presentation-3-40" cx="57.7" cy="101" r="2.5"/>
	<circle class="st1_team-presentation-3-40" cx="66.2" cy="101" r="2.5"/>
	<circle class="st1_team-presentation-3-40" cx="74.7" cy="101" r="2.5"/>
</g>
<g id="graph_team-presentation-3-40">
	<path class="st2_team-presentation-3-40" d="M431.7,307.8H241.2c-1,0-1.8-0.8-1.8-1.8c0,0,0,0,0,0v-61.9c0-1,0.8-1.8,1.8-1.8h190.4c1,0,1.8,0.8,1.8,1.8&#10;&#9;&#9;V306C433.5,307,432.7,307.8,431.7,307.8C431.7,307.8,431.7,307.8,431.7,307.8z M243.1,304.2h186.8v-58.2H243.1V304.2z"/>
	<path class="st2_team-presentation-3-40" d="M276.8,307.8h-15.9c-1,0-1.8-0.8-1.8-1.8c0,0,0,0,0,0v-15.9c0-1,0.8-1.8,1.8-1.8c0,0,0,0,0,0h15.9&#10;&#9;&#9;c1,0,1.8,0.8,1.8,1.8V306C278.6,307,277.8,307.8,276.8,307.8C276.8,307.8,276.8,307.8,276.8,307.8z M262.7,304.2H275v-12.3h-12.3&#10;&#9;&#9;L262.7,304.2z"/>
	<path class="st2_team-presentation-3-40" d="M312.6,307.8h-15.9c-1,0-1.8-0.8-1.8-1.8c0,0,0,0,0,0v-19.7c0-1,0.8-1.8,1.8-1.8h15.9c1,0,1.8,0.8,1.8,1.8V306&#10;&#9;&#9;C314.4,307,313.6,307.8,312.6,307.8C312.6,307.8,312.6,307.8,312.6,307.8z M298.5,304.2h12.3v-16.1h-12.3V304.2z"/>
	<path class="st2_team-presentation-3-40" d="M348.4,307.8h-15.9c-1,0-1.8-0.8-1.8-1.8c0,0,0,0,0,0v-30.9c0-1,0.8-1.8,1.8-1.8h15.9c1,0,1.8,0.8,1.8,1.8V306&#10;&#9;&#9;C350.2,307,349.4,307.8,348.4,307.8C348.4,307.8,348.4,307.8,348.4,307.8z M334.2,304.2h12.3v-27.3h-12.3V304.2z"/>
	<path class="st2_team-presentation-3-40" d="M384.1,307.8h-15.9c-1,0-1.8-0.8-1.8-1.8c0,0,0,0,0,0v-27.9c0-1,0.8-1.8,1.8-1.8h15.9c1,0,1.8,0.8,1.8,1.8V306&#10;&#9;&#9;C386,307,385.1,307.8,384.1,307.8C384.1,307.8,384.1,307.8,384.1,307.8z M370,304.2h12.3v-24.3H370V304.2z"/>
	<path class="st2_team-presentation-3-40" d="M419.9,307.8H404c-1,0-1.8-0.8-1.8-1.8c0,0,0,0,0,0v-51.9c0-1,0.8-1.8,1.8-1.8h15.9c1,0,1.8,0.8,1.8,1.8V306&#10;&#9;&#9;C421.7,307,420.9,307.8,419.9,307.8C419.9,307.8,419.9,307.8,419.9,307.8z M405.8,304.2h12.3v-48.3h-12.3L405.8,304.2z"/>
	<path class="st2_team-presentation-3-40" d="M220.9,311.9H63.7c-1,0-1.8-0.8-1.8-1.8V127.3c0-1,0.8-1.8,1.8-1.8h157.2c1,0,1.8,0.8,1.8,1.8v182.8&#10;&#9;&#9;C222.7,311.1,221.9,311.9,220.9,311.9z M65.5,308.3h153.6V129.1H65.5V308.3z"/>
	<path class="st2_team-presentation-3-40" d="M328.5,230.2c-1.2,0-2.3,0-3.3-0.1c-26.1-1.8-45.7-24.5-43.9-50.5c1.8-26.1,24.5-45.7,50.5-43.9&#10;&#9;&#9;c18.2,1.3,34.1,12.9,40.8,29.9c5.1,13,4.2,27.6-2.4,39.9C361.9,220.6,345.9,230.1,328.5,230.2z M328.5,139.1&#10;&#9;&#9;c-24.1-0.1-43.8,19.5-43.8,43.6c-0.1,23,17.8,42.2,40.8,43.7c0.9,0.1,1.9,0.1,3.1,0.1c16,0,30.8-8.8,38.5-22.9&#10;&#9;&#9;c1.5-2.8,2.7-5.8,3.6-8.9c6.6-23.2-6.9-47.4-30.2-54C336.5,139.6,332.6,139.1,328.5,139.1L328.5,139.1z"/>
	<path class="st2_team-presentation-3-40" d="M368.6,206.3c-0.3,0-0.6-0.1-0.9-0.2l-40-21.7c-0.6-0.3-0.9-0.9-1-1.6v-45.5c0-1,0.8-1.8,1.8-1.8c0,0,0,0,0,0&#10;&#9;&#9;c26.2,0.1,47.4,21.4,47.3,47.6c0,7.8-2,15.4-5.7,22.3c-0.2,0.4-0.6,0.7-1.1,0.9C368.9,206.3,368.8,206.3,368.6,206.3z M330.4,181.7&#10;&#9;&#9;l37.5,20.3c1.1-2.4,2.1-4.8,2.8-7.3c6.6-23.2-6.9-47.4-30.2-54c-3.3-0.9-6.7-1.5-10.1-1.6V181.7z"/>
	<path class="st2_team-presentation-3-40" d="M368.6,206.3c-0.3,0-0.6-0.1-0.9-0.2l-40-21.7c-0.9-0.5-1.2-1.6-0.7-2.5c0.2-0.4,0.5-0.6,0.9-0.8l42.4-16.6&#10;&#9;&#9;c0.9-0.4,2,0.1,2.4,1c5.1,13,4.2,27.6-2.4,39.9c-0.2,0.4-0.6,0.7-1.1,0.9C368.9,206.3,368.8,206.3,368.6,206.3z M332.8,183.1l35,19&#10;&#9;&#9;c1.1-2.4,2.1-4.8,2.8-7.3c2.4-8.6,2.2-17.7-0.7-26.2L332.8,183.1z"/>
	<path class="st2_team-presentation-3-40" d="M268.7,149.9h-27.4c-1,0-1.8-0.8-1.8-1.8c0-1,0.8-1.8,1.8-1.8h27.4c1,0,1.8,0.8,1.8,1.8&#10;&#9;&#9;C270.5,149.1,269.7,149.9,268.7,149.9C268.7,149.9,268.7,149.9,268.7,149.9z"/>
	<path class="st2_team-presentation-3-40" d="M268.7,163.2h-27.4c-1,0-1.8-0.8-1.8-1.8c0-1,0.8-1.8,1.8-1.8h27.4c1,0,1.8,0.8,1.8,1.8&#10;&#9;&#9;C270.5,162.4,269.7,163.2,268.7,163.2C268.7,163.2,268.7,163.2,268.7,163.2z"/>
	<path class="st2_team-presentation-3-40" d="M257,176.6h-15.8c-1,0-1.8-0.8-1.8-1.8c0-1,0.8-1.8,1.8-1.8H257c1,0,1.8,0.8,1.8,1.8&#10;&#9;&#9;C258.8,175.7,258,176.5,257,176.6z"/>
	<path class="st2_team-presentation-3-40" d="M424.8,187.2H398c-1,0-1.8-0.8-1.8-1.8c0-1,0.8-1.8,1.8-1.8c0,0,0,0,0,0h26.7c1,0,1.8,0.8,1.8,1.8&#10;&#9;&#9;C426.5,186.4,425.7,187.2,424.8,187.2L424.8,187.2z"/>
	<path class="st2_team-presentation-3-40" d="M424.8,196.8H398c-1-0.1-1.8-0.9-1.7-1.9c0.1-0.9,0.8-1.6,1.7-1.7h26.7c1,0.1,1.8,0.9,1.7,1.9&#10;&#9;&#9;C426.4,196,425.6,196.7,424.8,196.8L424.8,196.8z"/>
	<path class="st2_team-presentation-3-40" d="M411.4,206.4H398c-1,0-1.8-0.8-1.8-1.8c0-1,0.8-1.8,1.8-1.8c0,0,0,0,0,0h13.4c1,0,1.8,0.8,1.8,1.8&#10;&#9;&#9;C413.2,205.6,412.4,206.4,411.4,206.4C411.4,206.4,411.4,206.4,411.4,206.4z"/>
	<path class="st2_team-presentation-3-40" d="M406.7,139.1h-22.9c-1,0-1.8-0.8-1.8-1.8c0-1,0.8-1.8,1.8-1.8c0,0,0,0,0,0h22.9c1,0,1.8,0.8,1.8,1.8&#10;&#9;&#9;C408.5,138.3,407.7,139.1,406.7,139.1C406.7,139.1,406.7,139.1,406.7,139.1z"/>
	<path class="st2_team-presentation-3-40" d="M398.9,149.9h-15.1c-1,0-1.8-0.8-1.8-1.8c0-1,0.8-1.8,1.8-1.8c0,0,0,0,0,0h15.1c1,0,1.8,0.8,1.8,1.8&#10;&#9;&#9;C400.7,149.1,399.9,149.9,398.9,149.9z"/>
	<path class="st2_team-presentation-3-40" d="M63.7,258.7c-0.2,0-0.3,0-0.5-0.1c-0.9-0.3-1.5-1.3-1.2-2.2c0.5-1.6,12.1-40.3,38.8-47.1&#10;&#9;&#9;c14.6-3.7,23.1,7.5,31.4,18.3c7.7,10.1,15,19.6,26.9,18.9c25.1-1.4,59.9-62.6,60.2-63.3c0.5-0.9,1.6-1.2,2.5-0.7s1.2,1.6,0.7,2.5&#10;&#9;&#9;l0,0c-1.5,2.6-36.1,63.5-63.2,65.1c-13.8,0.8-22-9.9-30-20.3s-15.4-20.1-27.7-17C76.9,219,65.5,257,65.4,257.4&#10;&#9;&#9;C65.2,258.2,64.5,258.7,63.7,258.7z"/>
	<path class="st2_team-presentation-3-40" d="M119,148.4H79.5c-1,0-1.8-0.8-1.8-1.8c0-1,0.8-1.8,1.8-1.8c0,0,0,0,0,0H119c1,0,1.8,0.8,1.8,1.8&#10;&#9;&#9;C120.8,147.6,120,148.4,119,148.4z"/>
	<path class="st2_team-presentation-3-40" d="M119,159.2H79.5c-1-0.1-1.8-0.9-1.7-1.9c0.1-0.9,0.8-1.6,1.7-1.7H119c1,0.1,1.8,0.9,1.7,1.9&#10;&#9;&#9;C120.6,158.4,119.9,159.1,119,159.2z"/>
	<path class="st2_team-presentation-3-40" d="M119,170H79.5c-1,0-1.8-0.8-1.8-1.8c0-1,0.8-1.8,1.8-1.8H119c1,0,1.8,0.8,1.8,1.8C120.8,169.2,120,170,119,170&#10;&#9;&#9;C119,170,119,170,119,170z"/>
	<path class="st2_team-presentation-3-40" d="M103,180.9H79.5c-1,0-1.8-0.8-1.8-1.8c0-1,0.8-1.8,1.8-1.8c0,0,0,0,0,0H103c1,0,1.8,0.8,1.8,1.8&#10;&#9;&#9;C104.8,180.1,104,180.9,103,180.9z"/>
	<path class="st2_team-presentation-3-40" d="M202.9,264.2h-18c-1,0-1.8-0.8-1.8-1.8c0-1,0.8-1.8,1.8-1.8c0,0,0,0,0,0h18c1,0,1.8,0.8,1.8,1.8&#10;&#9;&#9;C204.7,263.4,203.9,264.2,202.9,264.2C202.9,264.2,202.9,264.2,202.9,264.2z"/>
	<path class="st2_team-presentation-3-40" d="M202.9,275.9h-18c-1,0-1.8-0.8-1.8-1.8c0-1,0.8-1.8,1.8-1.8h18c1,0,1.8,0.8,1.8,1.8&#10;&#9;&#9;C204.7,275.1,203.9,275.9,202.9,275.9z"/>
</g>
<g id="character-2_team-presentation-3-40">
	<path class="st3_team-presentation-3-40" d="M233.1,290.1c-0.6,0.2-1.3,0.3-1.9,0.5c-6.9,2.1-13.6,6.7-17,13.2c-2.9,5.3-1.8,11-1.8,16.9&#10;&#9;&#9;c0,17.8,13.6,32.6,31.3,34.2v7.3c-0.1,3.2,2.4,6,5.6,6.1s6-2.4,6.1-5.6c0-0.2,0-0.3,0-0.5v-6.9c20.8-0.8,31-18.7,31-34.6&#10;&#9;&#9;c0-10.4-2.9-23.8-13.4-28.4c-3.8-1.7-8.1-2.2-12.2-2.6C251.6,288.7,242.1,287.9,233.1,290.1z"/>
	<path class="st1_team-presentation-3-40" d="M249.6,369.9c-4.2,0-7.7-3.4-7.7-7.7v-5.7c-17.9-2.5-31.2-17.7-31.3-35.8c0-1.2,0-2.4-0.1-3.6&#10;&#9;&#9;c-0.2-4.6-0.4-9.4,2.2-14.1c3.5-6.5,10.1-11.6,18.1-14c0.7-0.2,1.3-0.4,2-0.6l0,0c9-2.3,18.5-1.5,28.3-0.5c4,0.4,8.6,0.9,12.8,2.8&#10;&#9;&#9;c13,5.7,14.4,22.9,14.4,30c0,17-10.6,34.6-31,36.3v5.2C257.2,366.4,253.8,369.9,249.6,369.9z M246,290.5c-4.2,0-8.3,0.4-12.4,1.4&#10;&#9;&#9;l0,0c-0.6,0.2-1.2,0.3-1.8,0.5c-7,2.1-13,6.8-16,12.3c-2,3.8-1.9,7.9-1.7,12.2c0,1.2,0.1,2.5,0.1,3.8c0.1,16.8,12.9,30.8,29.7,32.4&#10;&#9;&#9;c0.9,0.1,1.7,0.9,1.7,1.8v7.3c0,2.2,1.8,4,4,4s4-1.8,4-4v-6.9c0-1,0.8-1.8,1.7-1.8c19.2-0.7,29.2-17.1,29.2-32.8&#10;&#9;&#9;c0-5-0.9-21.7-12.3-26.7c-3.7-1.6-8-2.1-11.7-2.5C255.8,290.9,250.9,290.6,246,290.5z M233.2,290.1L233.2,290.1z"/>
	<ellipse class="st3_team-presentation-3-40" cx="211.7" cy="321.6" rx="9" ry="9.8"/>
	<path class="st1_team-presentation-3-40" d="M211.7,333.2c-6,0-10.8-5.2-10.8-11.6s4.8-11.6,10.8-11.6s10.8,5.2,10.8,11.6S217.7,333.2,211.7,333.2z&#10;&#9;&#9; M211.7,313.6c-4,0-7.2,3.6-7.2,8s3.2,8,7.2,8s7.2-3.6,7.2-8S215.7,313.6,211.7,313.6z"/>
	<ellipse class="st3_team-presentation-3-40" cx="288.6" cy="321.6" rx="9" ry="9.8"/>
	<path class="st1_team-presentation-3-40" d="M288.6,333.2c-6,0-10.8-5.2-10.8-11.6s4.9-11.6,10.8-11.6s10.8,5.2,10.8,11.6S294.5,333.2,288.6,333.2z&#10;&#9;&#9; M288.6,313.6c-4,0-7.2,3.6-7.2,8s3.2,8,7.2,8s7.2-3.6,7.2-8S292.5,313.6,288.6,313.6z"/>
	<path class="st4_team-presentation-3-40 targetColor" d="M292,407.6v-32.5c0-7.6-7.2-13.7-16-13.7h-51.7c-8.9,0-16,6.1-16,13.7v32.5L292,407.6z" style="fill: rgb(104, 225, 253);"/>
	<path class="st1_team-presentation-3-40" d="M292,409.4h-83.7c-1,0-1.8-0.8-1.8-1.8v-32.5c0-8.5,8-15.5,17.9-15.5H276c9.8,0,17.9,7,17.9,15.5v32.5&#10;&#9;&#9;C293.9,408.6,293,409.4,292,409.4C292,409.4,292,409.4,292,409.4z M210.1,405.8h80.1v-30.7c0-6.6-6.4-11.9-14.2-11.9h-51.7&#10;&#9;&#9;c-7.9,0-14.2,5.3-14.2,11.9V405.8z"/>
	<path class="st1_team-presentation-3-40" d="M228.9,383.5c-1,0-1.8-0.8-1.8-1.8v-8.9c0-1,0.8-1.8,1.8-1.8c1,0,1.8,0.8,1.8,1.8c0,0,0,0,0,0v8.9&#10;&#9;&#9;C230.7,382.7,229.9,383.5,228.9,383.5z"/>
	<path class="st1_team-presentation-3-40" d="M271.5,383.5c-1,0-1.8-0.8-1.8-1.8v-8.9c0-1,0.8-1.8,1.8-1.8c1,0,1.8,0.8,1.8,1.8c0,0,0,0,0,0v8.9&#10;&#9;&#9;C273.3,382.7,272.5,383.5,271.5,383.5z"/>
	<rect x="237.8" y="355" class="st4_team-presentation-3-40 targetColor" width="24.7" height="6.4" style="fill: rgb(104, 225, 253);"/>
	<path class="st1_team-presentation-3-40" d="M262.5,363.2h-24.7c-1,0-1.8-0.8-1.8-1.8V355c0-1,0.8-1.8,1.8-1.8h24.7c1,0,1.8,0.8,1.8,1.8v6.4&#10;&#9;&#9;C264.3,362.4,263.5,363.2,262.5,363.2z M239.6,359.6h21.1v-2.8h-21.1V359.6z"/>
	<path class="st5_team-presentation-3-40" d="M282,365.5c3.8,0,7.5-0.1,11.3-0.3c0.7,0,1.4-0.1,2.1-0.4c0.9-0.5,1.5-1.3,1.8-2.3c3.2-8.6-7.6-17.7-4.8-26.4&#10;&#9;&#9;c0.6-2,2-3.9,2-6c0-3.8-4.2-6.2-6-9.6c-2-3.9-0.4-8.6,0.2-13c1.3-10.5-3.6-20.8-11.7-27.2c-7.5-5.9-18.4-9.4-25.7-1.2&#10;&#9;&#9;c-8.4-7.2-20.9-6.2-28.1,2.2c-0.9,1-1.6,2.1-2.3,3.3c-0.2,0.3-0.3,0.6-0.5,0.9c-3,6.1-2.7,13.4-5.9,19.3c-1.2,2.2-2.8,4.1-3.9,6.4&#10;&#9;&#9;c-2.2,4.7-1.8,10.1-1.7,15.2c0.1,6.3-0.5,12.9-3.3,18.6c-1.2,2-2.1,4.2-2.9,6.4c-1.4,4.8,0.8,10,4.4,13.6h35&#10;&#9;&#9;C255.2,364.7,268.8,365.5,282,365.5z"/>
	<path class="st1_team-presentation-3-40" d="M280.4,367.3c-6.4,0-13-0.2-19.3-0.4s-12.7-0.4-19-0.4h-35c-0.5,0-0.9-0.2-1.3-0.5c-4.5-4.5-6.3-10.2-4.9-15.4&#10;&#9;&#9;c0.5-1.7,1.2-3.3,2.1-4.8c0.3-0.6,0.6-1.2,0.9-1.8c2.2-4.6,3.2-10.2,3.1-17.7v-1.9c-0.1-4.7-0.2-9.6,1.9-14.1&#10;&#9;&#9;c0.7-1.3,1.4-2.6,2.2-3.8c0.6-0.9,1.2-1.8,1.6-2.6c1.6-2.9,2.2-6.1,3-9.5c0.6-3.4,1.6-6.6,2.9-9.8c0.2-0.3,0.3-0.7,0.5-1&#10;&#9;&#9;c5.8-10.5,19-14.3,29.5-8.5c0.8,0.4,1.5,0.9,2.3,1.5c8.2-7.6,19.5-3.7,27,2.2c9,7.1,13.7,18.1,12.3,28.9c-0.1,1-0.3,2-0.5,3.1&#10;&#9;&#9;c-0.6,3.3-1.1,6.4,0.1,8.9c0.7,1.2,1.5,2.3,2.5,3.2c1.7,1.9,3.7,4.1,3.7,7.2c-0.1,1.7-0.5,3.3-1.3,4.7c-0.3,0.6-0.6,1.2-0.8,1.9&#10;&#9;&#9;c-1.2,3.7,0.6,7.6,2.4,11.8c2.1,4.8,4.2,9.6,2.3,14.7c-0.4,1.4-1.4,2.6-2.7,3.3c-0.9,0.4-1.8,0.6-2.8,0.6&#10;&#9;&#9;c-3.5,0.2-7.2,0.3-11.3,0.3h-1.5L280.4,367.3z M207.9,362.9h34.3c6.3,0,12.8,0.2,19.1,0.4c6.8,0.2,13.9,0.4,20.7,0.4l0,0&#10;&#9;&#9;c4.1,0,7.7-0.1,11.2-0.3c0.5,0,0.9-0.1,1.4-0.2c0.4-0.3,0.8-0.8,0.9-1.3c1.4-3.7-0.4-7.7-2.2-12c-2-4.6-4.1-9.4-2.5-14.4&#10;&#9;&#9;c0.3-0.8,0.6-1.5,0.9-2.3c0.5-1,0.9-2.1,1-3.2c0-1.7-1.3-3.1-2.8-4.8c-1.2-1.2-2.2-2.5-3-4c-1.8-3.6-1.1-7.5-0.5-11.2&#10;&#9;&#9;c0.2-1,0.3-1.9,0.5-2.9c1.2-9.5-3-19.3-11-25.6c-6.9-5.5-16.7-8.7-23.2-1.4c-0.7,0.7-1.8,0.8-2.5,0.2c-7.6-6.5-19-5.6-25.5,2&#10;&#9;&#9;c-0.8,0.9-1.5,1.9-2.1,3c-0.1,0.3-0.3,0.5-0.4,0.8c-1.2,2.9-2.1,5.8-2.7,8.9c-0.6,3.6-1.7,7.2-3.3,10.5c-0.6,1-1.2,2-1.8,2.9&#10;&#9;&#9;c-0.7,1.1-1.4,2.2-2,3.4c-1.7,3.7-1.6,8.2-1.6,12.5v2c0.1,8.1-1,14.2-3.5,19.4c-0.3,0.6-0.6,1.3-1,1.9c-0.8,1.3-1.4,2.7-1.8,4.1&#10;&#9;&#9;C203.4,355.2,204.7,359.5,207.9,362.9L207.9,362.9z"/>
	<path class="st6_team-presentation-3-40" d="M224.4,359.9H276c3.7,0,6.7,3,6.7,6.7l0,0v41l0,0h-65l0,0v-41C217.7,362.9,220.7,359.9,224.4,359.9&#10;&#9;&#9;L224.4,359.9z"/>
	<path class="st1_team-presentation-3-40" d="M282.6,409.4h-64.9c-1,0-1.8-0.8-1.8-1.8V372c0-7.7,6.2-13.9,13.9-13.9h40.8c7.7,0,13.9,6.2,13.9,13.9v35.6&#10;&#9;&#9;C284.4,408.6,283.6,409.4,282.6,409.4z M219.5,405.8h61.3V372c0-5.7-4.6-10.2-10.2-10.2h-40.8c-5.7,0-10.2,4.6-10.3,10.2&#10;&#9;&#9;L219.5,405.8z"/>
</g>
<g id="character-3_team-presentation-3-40">
	<ellipse class="st3_team-presentation-3-40" cx="400.2" cy="319.5" rx="9.5" ry="8.2"/>
	<path class="st1_team-presentation-3-40" d="M400.2,329.5c-6.2,0-11.3-4.5-11.3-10s5.1-10,11.3-10s11.3,4.5,11.3,10S406.5,329.5,400.2,329.5z M400.2,313.1&#10;&#9;&#9;c-4.2,0-7.7,2.9-7.7,6.4s3.5,6.4,7.7,6.4s7.7-2.9,7.7-6.4S404.5,313.1,400.2,313.1z"/>
	<path class="st3_team-presentation-3-40" d="M359.5,284.4c-8.2,14-13.7,6.1-15.4,3.3v29.9c0,14.9,11.4,27.3,26.2,28.6v6.1c-0.1,2.7,2,5,4.7,5.1&#10;&#9;&#9;s5-2,5.1-4.7c0-0.1,0-0.3,0-0.4v-5.8c17.4-0.6,25.9-15.6,25.9-29l-4.5-26.5C401.4,291,390,299.9,359.5,284.4z"/>
	<path class="st1_team-presentation-3-40" d="M375.1,359c-3.7,0-6.7-3-6.7-6.7v-4.5c-15-2.2-26.1-15-26.2-30.2v-29.9c0-1,0.8-1.8,1.8-1.8&#10;&#9;&#9;c0.6,0,1.2,0.3,1.6,0.9c1.5,2.5,3.2,3.9,4.8,3.9l0,0c2.2,0,4.9-2.6,7.5-7.2c0.5-0.8,1.5-1.1,2.4-0.7c28.9,14.6,40,6.9,40.1,6.8&#10;&#9;&#9;c0.5-0.4,1.2-0.5,1.8-0.2c0.6,0.2,1,0.8,1.1,1.4l4.5,26.6c0,0.1,0,0.2,0,0.3c0,14.3-8.9,29.1-25.9,30.7v4&#10;&#9;&#9;C381.8,355.9,378.8,359,375.1,359C375.1,359,375.1,359,375.1,359z M345.9,292.6v25c0.1,13.9,10.7,25.5,24.5,26.8&#10;&#9;&#9;c0.9,0.1,1.7,0.9,1.7,1.8v6.1c0.1,1.7,1.6,3,3.3,2.9c1.6-0.1,2.8-1.3,2.9-2.9v-5.8c0-1,0.8-1.8,1.7-1.8c15.8-0.6,24.1-14,24.2-27&#10;&#9;&#9;l-4.1-24c-4.9,1.9-17.1,4.2-39.9-7c-3.2,5-6.4,7.5-9.7,7.5C348.7,294.2,347.1,293.7,345.9,292.6z"/>
	<ellipse class="st3_team-presentation-3-40" cx="349.6" cy="318.3" rx="7.5" ry="8.2"/>
	<path class="st1_team-presentation-3-40" d="M349.6,328.3c-5.1,0-9.3-4.5-9.3-10s4.2-10,9.3-10s9.3,4.5,9.3,10S354.8,328.3,349.6,328.3z M349.6,311.9&#10;&#9;&#9;c-3.1,0-5.7,2.9-5.7,6.4s2.6,6.4,5.7,6.4s5.7-2.9,5.7-6.4S352.8,311.9,349.6,311.9L349.6,311.9z"/>
	<path class="st5_team-presentation-3-40" d="M352.5,318.5c-2.6-6-3.6-12.1-4.8-18.4c-1.8,0.2-3.7-0.4-5-1.6c-1.2-1.3-2-3-2.3-4.8&#10;&#9;&#9;c-0.9-4.8,0.3-9.7,3.3-13.6c2.4-3.1,5.6-5.5,9.4-6.7c1.1-0.3,10.5-0.4,10.3,0.1c1.7-4.1,5.7-7,9.8-8.6c16.1-6.5,32.1,0.5,38.6,16.3&#10;&#9;&#9;c3.1,7.5,3.8,15.7,3.6,23.7c-0.2,8.4-1.5,16.9-5.8,24.1c-8.2,13.8-26.7,16.2-40.2,9C361.5,333.8,356,326.6,352.5,318.5z"/>
	<path class="st1_team-presentation-3-40" d="M385.2,343.6c-5.8,0-11.6-1.4-16.7-4.1c-7.5-4-13.6-11-17.6-20.4l0,0c-2.4-5.7-3.5-11.3-4.6-17.3&#10;&#9;&#9;c-1.8-0.1-3.5-0.9-4.8-2.2c-1.5-1.6-2.5-3.6-2.8-5.7c-1-5.3,0.3-10.8,3.6-15.1c2.6-3.4,6.2-6,10.3-7.3c3.2-0.3,6.5-0.4,9.7-0.2&#10;&#9;&#9;c1.9-3.5,5.5-6.4,10.2-8.3c16.8-6.8,34,0.5,40.9,17.3c2.8,6.8,4,14.8,3.8,24.5c-0.3,10.6-2.2,18.5-6.1,25&#10;&#9;&#9;C405.4,339.4,395.3,343.6,385.2,343.6z M354.2,317.8c3.7,8.6,9.2,15,16,18.6c12,6.4,29.9,5,37.8-8.3c3.5-5.9,5.3-13.3,5.5-23.2&#10;&#9;&#9;c0.2-9.2-0.9-16.7-3.5-23c-6.2-15.1-21.1-21.5-36.2-15.3c-2.5,1-7,3.4-8.8,7.6l0,0c-0.4,0.9-1.4,1.4-2.4,1l-0.1,0&#10;&#9;&#9;c-3-0.2-6-0.2-9,0.1c-3.3,1.1-6.3,3.2-8.4,6c-2.7,3.4-3.8,7.9-3,12.1c0.2,1.4,0.9,2.8,1.8,3.9c1,0.9,2.3,1.3,3.6,1.1&#10;&#9;&#9;c0.9-0.1,1.8,0.5,2,1.5l0.2,0.9C350.9,306.7,351.9,312.3,354.2,317.8L354.2,317.8z"/>
	<path class="st1_team-presentation-3-40" d="M391.1,408.9c-1,0-1.8-0.8-1.8-1.8v-39.2c0-1,0.8-1.8,1.8-1.8c1,0,1.8,0.8,1.8,1.8v39.2&#10;&#9;&#9;C392.9,408.1,392.1,408.9,391.1,408.9z"/>
	<path class="st4_team-presentation-3-40 targetColor" d="M351,353.3h39.5c6,0,10.9,4.9,10.9,10.9c0,0,0,0,0,0v42.9h-70.3l8.9-42.9C340.1,358.2,345,353.3,351,353.3z" style="fill: rgb(104, 225, 253);"/>
	<path class="st1_team-presentation-3-40" d="M401.5,408.9h-70.3c-1,0-1.8-0.8-1.8-1.8c0-0.1,0-0.2,0-0.4l8.9-42.7c0.1-6.9,5.8-12.5,12.7-12.5h39.6&#10;&#9;&#9;c7,0,12.7,5.7,12.7,12.7v42.9C403.3,408.1,402.5,408.9,401.5,408.9z M333.4,405.3h66.3v-41.1c0-5-4.1-9.1-9.1-9.1H351&#10;&#9;&#9;c-5,0-9.1,4.1-9.1,9.1c0,0.1,0,0.2,0,0.4L333.4,405.3z M340.1,364.2L340.1,364.2z"/>
	<line class="st7_team-presentation-3-40" x1="351.2" y1="407.1" x2="357.1" y2="383.2"/>
	<path class="st1_team-presentation-3-40" d="M351.2,408.9c-0.1,0-0.3,0-0.4-0.1c-1-0.2-1.6-1.2-1.3-2.2c0,0,0,0,0,0l5.9-23.9c0.2-1,1.1-1.6,2.1-1.4&#10;&#9;&#9;c1,0.2,1.6,1.1,1.4,2.1c0,0.1,0,0.1,0,0.2l-5.9,23.9C352.8,408.3,352.1,408.9,351.2,408.9z"/>
	<path class="st6_team-presentation-3-40" d="M371.6,359.4h51.6c3.7,0,6.7,3,6.7,6.7l0,0v41l0,0h-64.9l0,0v-41C365,362.3,367.9,359.4,371.6,359.4z"/>
	<path class="st1_team-presentation-3-40" d="M429.9,408.9h-64.9c-1,0-1.8-0.8-1.8-1.8v-35.6c0-7.7,6.2-13.9,13.9-13.9h40.8c7.7,0,13.9,6.2,13.9,13.9v35.6&#10;&#9;&#9;C431.7,408.1,430.9,408.9,429.9,408.9C429.9,408.9,429.9,408.9,429.9,408.9z M366.7,405.3H428v-33.8c0-5.7-4.6-10.2-10.2-10.2H377&#10;&#9;&#9;c-5.7,0-10.2,4.6-10.2,10.2L366.7,405.3z"/>
</g>
<g id="character-1_team-presentation-3-40">
	<ellipse class="st3_team-presentation-3-40" cx="98.4" cy="323.2" rx="9.1" ry="7.8"/>
	<path class="st1_team-presentation-3-40" d="M98.4,332.8c-6,0-10.9-4.3-10.9-9.6s4.9-9.6,10.9-9.6s10.9,4.3,10.9,9.6S104.4,332.8,98.4,332.8z M98.4,317.2&#10;&#9;&#9;c-4,0-7.2,2.7-7.2,6s3.2,6,7.2,6s7.2-2.7,7.2-6S102.4,317.2,98.4,317.2z"/>
	<path class="st3_team-presentation-3-40" d="M137.2,289.7c7.8,13.3,13.1,5.8,14.7,3.2v28.4c0,14.2-10.8,26-24.9,27.2v5.8c0,2.6-2.1,4.7-4.7,4.7&#10;&#9;&#9;c-2.6,0-4.7-2.1-4.7-4.7v-5.5C101.1,348.2,93,334,93,321.3l4.3-25.3C97.3,296,108.2,304.5,137.2,289.7z"/>
	<path class="st1_team-presentation-3-40" d="M122.3,360.8c-3.6,0-6.5-2.9-6.5-6.5v-3.8c-16.2-1.5-24.6-15.6-24.6-29.2c0-0.1,0-0.2,0-0.3l4.3-25.3&#10;&#9;&#9;c0.1-0.6,0.5-1.2,1.1-1.4c0.6-0.2,1.3-0.1,1.8,0.3c0.1,0.1,10.6,7.4,38-6.5c0.9-0.4,1.9-0.1,2.4,0.7c2.5,4.4,5.1,6.8,7.1,6.8&#10;&#9;&#9;c1.5,0,3-1.2,4.5-3.6c0.5-0.9,1.6-1.1,2.5-0.6c0.5,0.3,0.9,0.9,0.9,1.6v28.4c-0.1,14.4-10.7,26.7-24.9,28.8v4.2&#10;&#9;&#9;C128.7,357.9,125.9,360.8,122.3,360.8z M94.8,321.4c0.1,12.3,7.9,25,22.9,25.6c1,0,1.7,0.8,1.7,1.8v5.5c0,1.6,1.3,2.8,2.9,2.8&#10;&#9;&#9;c1.6,0,2.8-1.3,2.8-2.8v-5.8c0-0.9,0.7-1.7,1.7-1.8c13.1-1.2,23.2-12.2,23.3-25.4v-23.6c-1.2,0.9-2.7,1.4-4.2,1.5&#10;&#9;&#9;c-3.2,0-6.2-2.4-9.3-7.1c-21.5,10.5-33.2,8.5-37.9,6.6L94.8,321.4z"/>
	<path class="st1_team-presentation-3-40" d="M107.2,409.4c-1,0-1.8-0.8-1.8-1.8v-37.3c0-1,0.8-1.8,1.8-1.8c1,0,1.8,0.8,1.8,1.8l0,0v37.2&#10;&#9;&#9;C109,408.6,108.2,409.4,107.2,409.4C107.2,409.4,107.2,409.4,107.2,409.4z"/>
	<path class="st3_team-presentation-3-40" d="M180.4,377.3c1.1-1.9,1.9-3.9,2.4-6c1.1-4.1,2.7-7.3,4.6-6.4c1.1,0.5-0.4,5.9-0.4,5.9s3.5-7.2,6.2-6.8&#10;&#9;&#9;s6.4,4.8,4.9,7.3s-7.5,12.9-7.5,12.9L180.4,377.3z"/>
	<path class="st1_team-presentation-3-40" d="M190.6,386c-0.4,0-0.7-0.1-1-0.3l-10.2-6.9c-0.8-0.5-1-1.6-0.6-2.4c1-1.8,1.7-3.6,2.2-5.6&#10;&#9;&#9;c1.7-6.4,3.7-7.3,4.3-7.6c0.9-0.4,1.9-0.4,2.8,0c0.4,0.2,0.8,0.5,1,0.9c1.3-1.3,2.8-2.2,4.3-1.9c2.3,0.4,5,2.6,6.1,5.2&#10;&#9;&#9;c0.8,1.5,0.8,3.3,0,4.8c-1.5,2.5-7.5,12.9-7.5,12.9c-0.3,0.4-0.7,0.7-1.1,0.9C190.9,386,190.8,386,190.6,386z M182.8,376.7l7.3,4.9&#10;&#9;&#9;c1.8-3,5.4-9.4,6.6-11.2c0.2-0.5,0.1-1-0.2-1.4c-0.7-1.5-1.9-2.6-3.5-3.1c-0.8,0.1-2.9,2.9-4.3,5.8c-0.4,0.9-1.5,1.3-2.4,0.9&#10;&#9;&#9;c-0.8-0.4-1.2-1.3-1-2.1c0.2-0.6,0.3-1.2,0.4-1.8c-0.5,1.1-0.8,2.2-1.1,3.3C184.1,373.4,183.5,375.1,182.8,376.7L182.8,376.7z"/>
	<path class="st4_team-presentation-3-40 targetColor" d="M190.6,384.1c-2.5,9.8-10,19.6-20.9,19.6c-1,0-1.9-0.1-2.8-0.2c-4.9-0.8-9.4-2.9-13.2-6v10.2H97.2v-40.8&#10;&#9;&#9;c0-5.7,4.7-10.4,10.4-10.4c0,0,0,0,0,0H141c6.2,0.2,11.8,3.9,14.4,9.6c2.5,5.5,10.3,20.7,14.2,19.4s9.3-8.4,9.3-8.4L190.6,384.1z" style="fill: rgb(104, 225, 253);"/>
	<path class="st1_team-presentation-3-40" d="M153.8,409.4H97.2c-1,0-1.8-0.8-1.8-1.8v-40.8c0-6.7,5.5-12.2,12.2-12.2H141c7,0.2,13.2,4.4,16.1,10.7&#10;&#9;&#9;c4.2,9.4,10.1,18.3,12.1,18.4c2.4-0.8,6.4-5.2,8.4-7.8c0.6-0.7,1.6-0.9,2.4-0.5l11.6,7.1c0.7,0.4,1,1.2,0.8,2&#10;&#9;&#9;c-2.7,10.4-10.7,20.9-22.6,20.9c-1,0-2.1-0.1-3.1-0.2c-4-0.6-7.8-2.1-11.1-4.3v6.6C155.6,408.6,154.8,409.4,153.8,409.4&#10;&#9;&#9;C153.8,409.4,153.8,409.4,153.8,409.4z M99,405.8h52.9v-8.4c0-1,0.8-1.8,1.8-1.8c0.4,0,0.9,0.2,1.2,0.4c3.5,3,7.8,4.9,12.3,5.7&#10;&#9;&#9;c0.9,0.1,1.7,0.2,2.6,0.2c9.5,0,16.1-8.3,18.7-16.9l-9.1-5.6c-1.9,2.2-5.8,6.7-9.2,7.8c-5.6,1.9-13.4-13.6-16.4-20.4&#10;&#9;&#9;c-2.3-5-7.3-8.3-12.8-8.6h-33.4c-4.7,0-8.6,3.8-8.6,8.6c0,0,0,0,0,0V405.8z"/>
	<path class="st1_team-presentation-3-40" d="M153.8,399.2c-1,0-1.8-0.8-1.8-1.8c0,0,0,0,0,0V382c-0.1-1,0.7-1.9,1.7-1.9c1-0.1,1.9,0.7,1.9,1.7&#10;&#9;&#9;c0,0.1,0,0.2,0,0.3v15.4C155.6,398.4,154.8,399.2,153.8,399.2C153.8,399.2,153.8,399.2,153.8,399.2z"/>
	<path class="st5_team-presentation-3-40" d="M153.1,303.8c-0.1,0.1-0.2,0.2-0.3,0.2c-1.9,1.1-5.9,1.1-8.1,1.5c-4.9,4.9-2.5,12.9-5.5,18.7&#10;&#9;&#9;s-6.9,9.1-3.2,16.2c1.3,2.6,3.1,4.9,4,7.6c2.5,7.4-1.6,15.8-8,20.2c-10,6.9-22.5,4.9-33.8,5.7c-9.6,0.6-22-0.5-27.6-9.6&#10;&#9;&#9;c-3.3-5.4-2.1-12.9,2.3-17.3c2-2,4.7-3.8,5-6.6c0.2-1.9-0.8-3.6-1.6-5.3c-1.9-4.3-2.3-9.7,0.7-13.3c1.4-1.4,2.9-2.7,4.5-3.8&#10;&#9;&#9;c5.1-4.2,5.3-8.1,5.2-14c-0.1-8.1,4.4-20.9,11-25.8c3.8-2.8,9.1-3.9,13.2-1.8c1.4-2.4,3.8-4.2,6.5-4.8c8.7-2.4,18.2-2.8,25.8,2.8&#10;&#9;&#9;s10.7,15.5,10.7,24.5C154.1,300.8,154.4,302.7,153.1,303.8z"/>
	<path class="st1_team-presentation-3-40" d="M93.8,375.9c-12,0-20.6-3.6-24.8-10.6c-3.6-6-2.5-14.4,2.6-19.5c0.4-0.5,0.9-0.9,1.4-1.3&#10;&#9;&#9;c1.5-1.4,2.9-2.7,3-4.2c0-1.3-0.4-2.5-1-3.6l-0.4-0.8c-2-4.5-2.7-10.8,1-15.2c1-1.1,2.1-2.1,3.3-2.9c0.5-0.4,1-0.7,1.5-1.1&#10;&#9;&#9;c4.4-3.7,4.6-6.8,4.6-12.5c-0.1-8.7,4.7-22,11.8-27.3c3.9-3,8.9-4,13.6-2.6c1.7-2.1,4.1-3.6,6.7-4.3c11.1-3.1,20.3-2.1,27.3,3&#10;&#9;&#9;s11.4,15,11.4,26c0,0.3,0,0.6,0,0.9c0,1.8,0.1,4-1.7,5.5l0,0c-0.2,0.1-0.4,0.3-0.6,0.4c-1.7,1-4.1,1.2-6.4,1.4&#10;&#9;&#9;c-0.6,0.1-1.2,0.1-1.7,0.2c-2,2.3-2.4,5.6-2.7,9.1c-0.3,3-0.6,6-2,8.8c-0.6,1.2-1.3,2.4-1.9,3.4c-2.4,4-3.8,6.4-1.3,11.1&#10;&#9;&#9;c0.4,0.8,0.9,1.6,1.4,2.5c1.1,1.7,2,3.5,2.7,5.5c2.9,8.6-2.1,17.8-8.7,22.3c-8.1,5.6-17.5,5.7-26.7,5.8c-2.8,0-5.4,0.1-8.1,0.2&#10;&#9;&#9;C96.7,375.9,95.3,375.9,93.8,375.9z M106.3,277.1c-2.6,0-5.2,0.9-7.3,2.5c-6,4.5-10.4,16.6-10.3,24.4c0,5.6,0.1,10.5-5.9,15.4&#10;&#9;&#9;c-0.5,0.4-1.1,0.8-1.6,1.2c-1,0.7-1.9,1.5-2.8,2.4c-2.7,3.2-1.9,8.1-0.4,11.4l0.3,0.7c0.9,1.7,1.4,3.6,1.4,5.5&#10;&#9;&#9;c-0.3,2.9-2.4,4.8-4.2,6.5c-0.4,0.4-0.9,0.8-1.3,1.2c-3.9,4-4.8,10.6-2.1,15.1c5,8.3,16.8,9.3,25.9,8.7c2.7-0.2,5.5-0.2,8.3-0.2&#10;&#9;&#9;c8.6-0.1,17.5-0.2,24.6-5.1c5.3-3.7,9.7-11.3,7.3-18.1c-0.6-1.7-1.4-3.3-2.4-4.8c-0.5-0.9-1-1.7-1.5-2.6&#10;&#9;&#9;c-3.4-6.6-1.1-10.5,1.4-14.7c0.6-1,1.2-2.1,1.8-3.2c1.1-2.1,1.4-4.7,1.6-7.5c0.4-4.1,0.9-8.4,4.2-11.7c0.3-0.3,0.6-0.4,1-0.5&#10;&#9;&#9;c0.7-0.1,1.6-0.2,2.6-0.3c1.7-0.2,3.9-0.4,4.8-0.9l1.3,1.3l-1.1-1.4c0.4-0.3,0.4-1.2,0.4-2.6c0-0.3,0-0.7,0-1c0-9.9-3.7-18.5-10-23&#10;&#9;&#9;c-6.1-4.5-14.2-5.3-24.2-2.5c-2.2,0.5-4.2,1.9-5.4,3.9c-0.5,0.9-1.5,1.2-2.4,0.8C109.1,277.5,107.7,277.1,106.3,277.1z"/>
	<path class="st6_team-presentation-3-40" d="M132,407.6H70.3l0,0v-39c0-3.5,2.8-6.3,6.3-6.3h49.1c3.5,0,6.3,2.8,6.3,6.3C132,368.6,132,407.6,132,407.6z"/>
	<path class="st1_team-presentation-3-40" d="M132,409.4H70.3c-1,0-1.8-0.8-1.8-1.8v-33.9c0-7.3,6-13.3,13.3-13.3h38.8c7.3,0,13.3,6,13.3,13.3v33.9&#10;&#9;&#9;C133.8,408.6,133,409.4,132,409.4C132,409.4,132,409.4,132,409.4z M72,405.8h58.1v-32.1c0-5.3-4.3-9.7-9.7-9.7H81.7&#10;&#9;&#9;c-5.3,0-9.7,4.3-9.7,9.7L72,405.8z"/>
	<path class="st3_team-presentation-3-40" d="M143,314.2c-4,0-7.1,3.5-7.1,7.8s3.2,7.8,7.1,7.8"/>
	<path class="st1_team-presentation-3-40" d="M143,331.6c-4.9,0-9-4.3-9-9.6s4-9.6,9-9.6c1,0,1.8,0.8,1.8,1.8c0,1-0.8,1.8-1.8,1.8c-2.9,0-5.3,2.7-5.3,6&#10;&#9;&#9;s2.4,6,5.3,6c1,0.1,1.8,0.9,1.7,1.9C144.6,330.8,143.9,331.6,143,331.6L143,331.6z"/>
</g>
</svg>