<svg id="_84_data_process_outline" xmlns="http://www.w3.org/2000/svg" xmlns:xlink="http://www.w3.org/1999/xlink" viewBox="0 0 500 500" data-imageid="data-processing-51" imageName="Data Processing" class="illustrations_image" style="width: 262px;"><defs><style>.cls-1_data-processing-51{fill:url(#linear-gradient);}.cls-1_data-processing-51,.cls-2_data-processing-51,.cls-3_data-processing-51,.cls-4_data-processing-51,.cls-5_data-processing-51,.cls-6_data-processing-51,.cls-7_data-processing-51,.cls-8_data-processing-51,.cls-9_data-processing-51,.cls-10_data-processing-51,.cls-11_data-processing-51,.cls-12_data-processing-51,.cls-13_data-processing-51,.cls-14_data-processing-51,.cls-15_data-processing-51,.cls-16_data-processing-51,.cls-17_data-processing-51,.cls-18_data-processing-51,.cls-19_data-processing-51,.cls-20_data-processing-51,.cls-21_data-processing-51,.cls-22_data-processing-51,.cls-23_data-processing-51,.cls-24_data-processing-51,.cls-25_data-processing-51,.cls-26_data-processing-51,.cls-27_data-processing-51{stroke-width:0px;}.cls-2_data-processing-51{opacity:.18;}.cls-2_data-processing-51,.cls-12_data-processing-51,.cls-13_data-processing-51,.cls-14_data-processing-51,.cls-27_data-processing-51{isolation:isolate;}.cls-2_data-processing-51,.cls-26_data-processing-51{fill:#68e1fd;}.cls-3_data-processing-51{fill:url(#linear-gradient-11-data-processing-51);}.cls-4_data-processing-51{fill:url(#linear-gradient-12-data-processing-51);}.cls-5_data-processing-51{fill:url(#linear-gradient-13-data-processing-51);}.cls-6_data-processing-51{fill:url(#linear-gradient-10-data-processing-51);}.cls-7_data-processing-51{fill:url(#linear-gradient-15-data-processing-51);}.cls-8_data-processing-51{fill:url(#linear-gradient-21-data-processing-51);}.cls-9_data-processing-51{fill:url(#linear-gradient-18-data-processing-51);}.cls-10_data-processing-51{fill:url(#linear-gradient-14-data-processing-51);}.cls-11_data-processing-51{fill:url(#linear-gradient-20-data-processing-51);}.cls-12_data-processing-51{fill:url(#linear-gradient-19-data-processing-51);}.cls-12_data-processing-51,.cls-13_data-processing-51,.cls-14_data-processing-51{opacity:.69;}.cls-13_data-processing-51{fill:url(#linear-gradient-17-data-processing-51);}.cls-14_data-processing-51{fill:url(#linear-gradient-16-data-processing-51);}.cls-15_data-processing-51{fill:url(#linear-gradient-4-data-processing-51);}.cls-16_data-processing-51{fill:url(#linear-gradient-2-data-processing-51);}.cls-17_data-processing-51{fill:url(#linear-gradient-3-data-processing-51);}.cls-18_data-processing-51{fill:url(#linear-gradient-8-data-processing-51);}.cls-19_data-processing-51{fill:url(#linear-gradient-9-data-processing-51);}.cls-20_data-processing-51{fill:url(#linear-gradient-7-data-processing-51);}.cls-21_data-processing-51{fill:url(#linear-gradient-5-data-processing-51);}.cls-22_data-processing-51{fill:url(#linear-gradient-6-data-processing-51);}.cls-23_data-processing-51{fill:#231f20;}.cls-24_data-processing-51,.cls-27_data-processing-51{fill:#fff;}.cls-25_data-processing-51{fill:#ffb4a3;}.cls-27_data-processing-51{opacity:.25;}</style><linearGradient id="linear-gradient-data-processing-51" x1="397.53" y1="2759.47" x2="399.39" y2="2715.58" gradientTransform="translate(-75.82 2993.17) scale(1 -1)" gradientUnits="userSpaceOnUse"><stop offset="0" stop-color="#000" stop-opacity="0"/><stop offset=".99" stop-color="#000"/></linearGradient><linearGradient id="linear-gradient-2-data-processing-51" x1="88.92" y1="2722.37" x2="270.34" y2="2722.37" gradientTransform="translate(-31 2998.54) scale(1 -1)" xlink:href="#linear-gradient-data-processing-51"/><linearGradient id="linear-gradient-3-data-processing-51" x1="333.6" y1="2632.85" x2="330.8" y2="2677.66" xlink:href="#linear-gradient-data-processing-51"/><linearGradient id="linear-gradient-4-data-processing-51" x1="400.63" y1="2637.25" x2="401.1" y2="2666.89" xlink:href="#linear-gradient-data-processing-51"/><linearGradient id="linear-gradient-5-data-processing-51" x1="171.68" y1="2586.27" x2="171.03" y2="2632.89" gradientTransform="translate(-31 2998.54) scale(1 -1)" xlink:href="#linear-gradient-data-processing-51"/><linearGradient id="linear-gradient-6-data-processing-51" x1="202.68" y1="2604.6" x2="212.55" y2="2986.68" xlink:href="#linear-gradient-data-processing-51"/><linearGradient id="linear-gradient-7-data-processing-51" x1="336.93" y1="2757.31" x2="338.34" y2="2718.55" xlink:href="#linear-gradient-data-processing-51"/><linearGradient id="linear-gradient-8-data-processing-51" x1="351.95" y1="2736.41" x2="357.87" y2="2736.41" gradientTransform="translate(-31 2998.54) scale(1 -1)" xlink:href="#linear-gradient-data-processing-51"/><linearGradient id="linear-gradient-9-data-processing-51" x1="344.52" y1="2736.41" x2="350.44" y2="2736.41" gradientTransform="translate(-31 2998.54) scale(1 -1)" xlink:href="#linear-gradient-data-processing-51"/><linearGradient id="linear-gradient-10-data-processing-51" x1="337.19" y1="2736.41" x2="343.11" y2="2736.41" gradientTransform="translate(-31 2998.54) scale(1 -1)" xlink:href="#linear-gradient-data-processing-51"/><linearGradient id="linear-gradient-11-data-processing-51" x1="397.12" y1="2784.45" x2="595.17" y2="2780.1" gradientTransform="translate(-31 2998.54) scale(1 -1)" xlink:href="#linear-gradient-data-processing-51"/><linearGradient id="linear-gradient-12-data-processing-51" x1="387.49" y1="2826.11" x2="754.07" y2="2818.05" xlink:href="#linear-gradient-data-processing-51"/><linearGradient id="linear-gradient-13-data-processing-51" x1="461.92" y1="2741.49" x2="464.96" y2="2679.67" xlink:href="#linear-gradient-data-processing-51"/><linearGradient id="linear-gradient-14-data-processing-51" x1="567.82" y1="2538.39" x2="-100.12" y2="2592.98" gradientTransform="translate(-75.82 2993.17) scale(1 -1)" gradientUnits="userSpaceOnUse"><stop offset="0" stop-color="#000" stop-opacity="0"/><stop offset=".41" stop-color="#000" stop-opacity=".41"/><stop offset=".99" stop-color="#000"/></linearGradient><linearGradient id="linear-gradient-15-data-processing-51" x1="220.82" y1="105.67" x2="321.81" y2="243.15" gradientTransform="matrix(1,0,0,1,0,0)" xlink:href="#linear-gradient-data-processing-51"/><linearGradient id="linear-gradient-16-data-processing-51" x1="238.68" y1="2895.12" x2="249.64" y2="2895.12" gradientTransform="translate(-31 2998.54) scale(1 -1)" gradientUnits="userSpaceOnUse"><stop offset=".02" stop-color="#fff" stop-opacity="0"/><stop offset=".58" stop-color="#fff" stop-opacity=".39"/><stop offset=".68" stop-color="#fff" stop-opacity=".68"/><stop offset="1" stop-color="#fff"/></linearGradient><linearGradient id="linear-gradient-17-data-processing-51" x1="248.32" y1="2875.06" x2="286.61" y2="2875.06" gradientTransform="translate(-75.82 2993.17) scale(1 -1)" xlink:href="#linear-gradient-16-data-processing-51"/><linearGradient id="linear-gradient-18-data-processing-51" x1="324.48" y1="2816.9" x2="267.76" y2="2808.26" xlink:href="#linear-gradient-data-processing-51"/><linearGradient id="linear-gradient-19-data-processing-51" x1="248.8" y1="2880.1" x2="274.31" y2="2892.08" gradientTransform="translate(-75.82 2993.17) scale(1 -1)" xlink:href="#linear-gradient-16-data-processing-51"/><linearGradient id="linear-gradient-20-data-processing-51" x1="261.43" y1="2774.44" x2="280.34" y2="2774.44" gradientTransform="translate(-31 2998.54) scale(1 -1)" xlink:href="#linear-gradient-data-processing-51"/><linearGradient id="linear-gradient-21-data-processing-51" x1="283.61" y1="2787.74" x2="302.52" y2="2787.74" gradientTransform="translate(-31 2998.54) scale(1 -1)" xlink:href="#linear-gradient-data-processing-51"/></defs><path id="background_data-processing-51" class="cls-2_data-processing-51 targetColor" d="M94.52,95.8c14.57-24.39,46.23-32.49,74.64-32.49,28.41,0,57.18,5.85,84.97,0,12.82-2.72,25.19-7.89,38.27-8.58,27.78-1.47,52.13,17.12,73.66,34.72l39.38,32.2c15.95,13.04,32.32,26.59,41.99,44.79,8.43,16.02,11.07,34.47,7.46,52.21-4.54,21.98-18.61,42.79-15.09,64.96,1.77,11.14,7.85,21.05,11.8,31.62,16.55,44.23-5.89,93.5-50.12,110.05-.42.16-.84.31-1.26.46-29.7,10.57-62.35,4.08-93.58-.2-59.51-8.15-119.81-7.77-179.77-11.28-10.4-.6-21.46-1.58-29.69-7.97-11.84-9.2-13.68-26.13-14.02-41.13-.9-39.53,1.96-79.06,5.9-118.41,2.9-28.89,1.19-51.02-7.88-78.16-6.34-19,2.74-55.04,13.35-72.79Z" style="fill: rgb(104, 225, 253);"/><g id="cloud_data-processing-51"><path class="cls-26_data-processing-51 targetColor" d="M294.47,127.4h139.34c7.57,0,13.71-6.13,13.72-13.7h0c0-15.88-12.86-28.74-28.73-28.74h-11.75c0-15.86-12.86-28.72-28.72-28.72h0s-18.95,0-18.95,0c-15.86,0-28.73,12.85-28.73,28.72h0v5.88h-16.02c-15.47,0-28.15,12.25-28.71,27.7h0c-.17,4.72,3.52,8.68,8.24,8.85.11,0,.21,0,.32,0Z" style="fill: rgb(104, 225, 253);"/><path class="cls-26_data-processing-51 targetColor" d="M135.2,127.4H50.67c-3.72,0-6.74-3.01-6.75-6.73,0,0,0,0,0,0v-1.43c0-9.45,7.65-17.11,17.1-17.13h7.04c0-9.46,7.67-17.13,17.13-17.14h11.3c9.46,0,17.13,7.67,17.13,17.13h0v3.51h9.56c9.22,0,16.79,7.31,17.12,16.53h0c.1,2.81-2.1,5.18-4.91,5.28-.06,0-.12,0-.19,0Z" style="fill: rgb(104, 225, 253);"/><path class="cls-26_data-processing-51 targetColor" d="M248.86,229.07h-18.3c-.85,0-1.54-.7-1.54-1.55h0c0-.85.69-1.54,1.54-1.54h18.3c7.9,0,14.3-6.41,14.3-14.31v-30.75c0-9.25,7.5-16.75,16.75-16.75h36.66c8.49,0,15.37-6.88,15.37-15.37v-24.86h3.09v24.86c0,10.2-8.27,18.46-18.46,18.46h-36.66c-7.54,0-13.66,6.11-13.66,13.66h0v30.75c0,9.61-7.79,17.4-17.4,17.4Z" style="fill: rgb(104, 225, 253);"/><path class="cls-26_data-processing-51 targetColor" d="M140.47,160.7h3.09v-1.81c-.01-9.23-7.49-16.7-16.72-16.72h-16.09c-7.11-.01-12.88-5.78-12.89-12.9v-2.54h-3.09v2.54c0,8.82,7.16,15.97,15.98,15.99h16.1c7.52,0,13.62,6.1,13.62,13.62v1.81Z" style="fill: rgb(104, 225, 253);"/></g><g id="data_process_data-processing-51"><path class="cls-26_data-processing-51 targetColor" d="M295.61,268h6.95v-50.07c0-6.87,5.57-12.43,12.43-12.43h32.45v-6.95h-32.48c-10.68,0-19.34,8.67-19.35,19.35v50.11Z" style="fill: rgb(104, 225, 253);"/><path class="cls-1_data-processing-51" d="M295.77,268h6.95v-50.07c0-6.87,5.57-12.43,12.43-12.43h32.45v-6.95h-32.49c-10.68.01-19.33,8.67-19.34,19.35v50.11Z"/><rect class="cls-16_data-processing-51" x="57.92" y="161.91" width="181.43" height="228.52" rx="28.63" ry="28.63"/><path class="cls-26_data-processing-51 targetColor" d="M229.89,365.62h0c0-1.92,1.56-3.47,3.47-3.47h30.61c6.85-.02,12.39-5.58,12.39-12.43v-32.41h6.96v32.45c0,10.69-8.66,19.35-19.35,19.35h-30.56c-1.92.02-3.5-1.53-3.51-3.45,0-.01,0-.02,0-.03Z" style="fill: rgb(104, 225, 253);"/><path class="cls-26_data-processing-51 targetColor" d="M359.62,376.58v-6.95h-50.07c-6.87,0-12.43-5.57-12.43-12.43v-32.41h-6.95v32.45c0,10.68,8.67,19.34,19.35,19.35h50.11Z" style="fill: rgb(104, 225, 253);"/><path class="cls-17_data-processing-51" d="M229.89,365.62h0c0-1.92,1.56-3.47,3.47-3.47h30.61c6.85-.02,12.39-5.58,12.39-12.43v-32.41h6.96v32.45c0,10.69-8.66,19.35-19.35,19.35h-30.56c-1.92.02-3.5-1.53-3.51-3.45,0-.01,0-.02,0-.03Z"/><path class="cls-15_data-processing-51" d="M359.62,376.58v-6.95h-50.07c-6.87,0-12.43-5.57-12.43-12.43v-32.41h-6.95v32.45c0,10.68,8.67,19.34,19.35,19.35h50.11Z"/><path class="cls-26_data-processing-51 targetColor" d="M462.33,432.98c.01,6.49-5.24,11.77-11.73,11.78,0,0-.02,0-.02,0H61.42c-6.49-.02-11.74-5.3-11.72-11.8.02-5.57,3.94-10.36,9.39-11.48.77-.15,1.55-.23,2.33-.23h389.15c6.48,0,11.74,5.24,11.76,11.73Z" style="fill: rgb(104, 225, 253);"/><rect class="cls-26_data-processing-51 targetColor" x="65.34" y="375.51" width="150.18" height="50.93" style="fill: rgb(104, 225, 253);"/><rect class="cls-21_data-processing-51" x="65.34" y="375.51" width="150.18" height="37.33"/><rect class="cls-26_data-processing-51 targetColor" x="37.67" y="161.91" width="181.43" height="228.53" rx="28.63" ry="28.63" style="fill: rgb(104, 225, 253);"/><path class="cls-22_data-processing-51" d="M219.1,297.19v64.64c0,15.81-12.82,28.63-28.63,28.63h-124.16c-15.82,0-28.64-12.83-28.63-28.65,0,0,0,0,0,0v-64.64c0-15.81,12.82-28.63,28.63-28.63h124.16c15.81,0,28.63,12.82,28.63,28.63v.02Z"/><rect class="cls-23_data-processing-51" x="254.48" y="258.73" width="74.9" height="70.65"/><rect class="cls-26_data-processing-51 targetColor" x="248.52" y="248.7" width="88.09" height="27.91" rx="7.52" ry="7.52" style="fill: rgb(104, 225, 253);"/><rect class="cls-26_data-processing-51 targetColor" x="248.52" y="280.97" width="88.09" height="27.91" rx="7.52" ry="7.52" style="fill: rgb(104, 225, 253);"/><rect class="cls-26_data-processing-51 targetColor" x="248.52" y="313.24" width="88.09" height="27.91" rx="7.52" ry="7.52" style="fill: rgb(104, 225, 253);"/><path class="cls-26_data-processing-51 targetColor" d="M289.51,248.85h-6.95v-50.07c0-6.87-5.57-12.43-12.43-12.43h-37.2c-1.92,0-3.48-1.56-3.48-3.48h0c0-1.92,1.56-3.47,3.48-3.47h37.24c10.68,0,19.35,8.65,19.35,19.33v50.12Z" style="fill: rgb(104, 225, 253);"/><path class="cls-20_data-processing-51" d="M289.51,248.85h-6.95v-50.07c0-6.87-5.57-12.43-12.43-12.43h-37.2c-1.92,0-3.48-1.56-3.48-3.48h0c0-1.92,1.56-3.47,3.48-3.47h37.24c10.68,0,19.35,8.65,19.35,19.33v50.12Z"/><circle class="cls-18_data-processing-51" cx="323.91" cy="262.12" r="2.96"/><circle class="cls-19_data-processing-51" cx="316.48" cy="262.12" r="2.96"/><circle class="cls-6_data-processing-51" cx="309.15" cy="262.12" r="2.96"/><path class="cls-24_data-processing-51" d="M69.05,216.64h119.27c4.69,0,8.49,3.8,8.49,8.49h0c0,4.69-3.8,8.49-8.49,8.49h-119.27c-4.69,0-8.49-3.8-8.49-8.49h0c0-4.69,3.8-8.49,8.49-8.49Z"/><rect class="cls-26_data-processing-51 targetColor" x="64.28" y="219.92" width="88.92" height="11.08" rx="5.54" ry="5.54" style="fill: rgb(104, 225, 253);"/><rect class="cls-26_data-processing-51 targetColor" x="344.12" y="161.91" width="84.25" height="106.13" rx="13.29" ry="13.29" style="fill: rgb(104, 225, 253);"/><rect class="cls-3_data-processing-51" x="384.6" y="161.91" width="43.77" height="106.13" rx="13.29" ry="13.29"/><path class="cls-4_data-processing-51" d="M428.37,175.21h-84.25c-.02-7.32,5.9-13.28,13.22-13.3.01,0,.03,0,.04,0h57.66c7.32-.04,13.29,5.86,13.33,13.18,0,.04,0,.08,0,.12Z"/><path class="cls-5_data-processing-51" d="M428.37,254.74c0,7.32-5.94,13.26-13.26,13.26-.01,0-.03,0-.04,0h-57.66c-7.32,0-13.26-5.94-13.26-13.26h84.22Z"/><path class="cls-26_data-processing-51 targetColor" d="M452.81,415.21h-95.93v-121.68l71.2-.83,25.82,19.24-1.09,103.27ZM360.55,411.61h88.67l1.06-97.79-23.37-17.4-66.37.75v114.45Z" style="fill: rgb(104, 225, 253);"/><path class="cls-26_data-processing-51 targetColor" d="M452.97,314.9l-21.76.36-3.8-21.25,25.57,20.89ZM434.25,311.58l10.67-.59-12.17-8.54,1.51,9.12Z" style="fill: rgb(104, 225, 253);"/><rect class="cls-26_data-processing-51 targetColor" x="374.4" y="320.01" width="64.2" height="4.22" rx="2.1" ry="2.1" style="fill: rgb(104, 225, 253);"/><rect class="cls-26_data-processing-51 targetColor" x="374.4" y="333.94" width="64.2" height="4.22" rx="2.1" ry="2.1" style="fill: rgb(104, 225, 253);"/><rect class="cls-26_data-processing-51 targetColor" x="374.4" y="347.87" width="64.2" height="4.22" rx="2.1" ry="2.1" style="fill: rgb(104, 225, 253);"/><rect class="cls-26_data-processing-51 targetColor" x="374.4" y="361.8" width="64.2" height="4.22" rx="2.1" ry="2.1" style="fill: rgb(104, 225, 253);"/><rect class="cls-26_data-processing-51 targetColor" x="374.4" y="375.73" width="64.2" height="4.22" rx="2.1" ry="2.1" style="fill: rgb(104, 225, 253);"/><rect class="cls-26_data-processing-51 targetColor" x="374.4" y="389.66" width="64.2" height="4.22" rx="2.1" ry="2.1" style="fill: rgb(104, 225, 253);"/><rect class="cls-27_data-processing-51" x="355.9" y="184.86" width="62.03" height="41.78"/><path class="cls-10_data-processing-51" d="M404.44,433.21c.02,5.59-3.91,10.42-9.38,11.55H61.42c-6.49-.02-11.74-5.3-11.72-11.8.02-5.57,3.94-10.36,9.39-11.48h333.59c6.48,0,11.74,5.25,11.75,11.73Z"/></g><g id="character_data-processing-51"><path class="cls-25_data-processing-51" d="M216.66,111.61l3.48,6.05,24.39-10.86,2.49,3.85s-25.33,25.21-26.84,24.86-11.44-17.97-11.44-17.97l7.93-5.94Z"/><path class="cls-7_data-processing-51" d="M216.66,111.61l3.48,6.05,24.39-10.86,2.49,3.85s-25.33,25.21-26.84,24.86-11.44-17.97-11.44-17.97l7.93-5.94Z"/><polygon class="cls-26_data-processing-51 targetColor" points="207.68 88.48 218.64 109.95 209.08 118.36 207.68 88.48" style="fill: rgb(104, 225, 253);"/><polygon class="cls-14_data-processing-51" points="207.68 88.48 218.64 109.95 209.08 118.36 207.68 88.48"/><polygon class="cls-26_data-processing-51 targetColor" points="228.99 128.94 234.91 88.48 258.56 88.16 250.78 129.25 228.99 128.94" style="fill: rgb(104, 225, 253);"/><path class="cls-26_data-processing-51 targetColor" d="M172.5,104.15v46.41h38.28v-49.56s.39-16.03-8.01-15.32-26.69-3.07-30.27,18.47Z" style="fill: rgb(104, 225, 253);"/><path class="cls-13_data-processing-51" d="M172.5,104.15v46.41h38.28v-49.56s.39-16.03-8.01-15.32-26.69-3.07-30.27,18.47Z"/><path class="cls-24_data-processing-51" d="M210.78,150.49s24.86.78,31.91,12.43c7.04,11.65,16.81,41.09,16.81,41.09l-8.88,3.5-15.87-20.07-23.97-36.95Z"/><path class="cls-9_data-processing-51" d="M210.78,150.49s24.86.78,31.91,12.43c7.04,11.65,16.81,41.09,16.81,41.09l-8.88,3.5-15.87-20.07-23.97-36.95Z"/><path class="cls-24_data-processing-51" d="M172.5,150.49s-3.43,17.12,5.6,19.89c9.03,2.77,36.72,5.6,36.72,5.6l13.7,45.44,11.36-5.14s-4.2-49.33-9.8-55.53c-5.6-6.19-19.3-10.27-19.3-10.27h-38.28Z"/><path class="cls-25_data-processing-51" d="M191.96,71.66c.4-2.37,1.09-4.68,2.07-6.88,2.03-3.81,5.91-6.28,10.23-6.5.51-.03,1.03,0,1.53.11.54.14,1.06.37,1.52.67,2.33,1.62,3.92,4.12,4.39,6.92.45,2.77.52,5.59.21,8.39-.21,3.05-.76,6.63-3.48,8.01-1.89.95-4.14.46-6.19-.17-.41-.19-.89-.19-1.3,0-.29.26-.46.62-.48,1-.46,2.97.49,6.05-.19,8.97-.09.68-.47,1.29-1.05,1.66-.54.19-1.12.19-1.66,0-2.67-.69-5.14-2.03-7.18-3.89-.83-.77-3.01-2.1-3.31-3.2s1.26-3.46,1.66-4.53c1.33-3.44,2.41-6.97,3.23-10.57Z"/><path class="cls-12_data-processing-51" d="M172.9,104.19l11.83,22.38,12.61-9.33s-9.35-23.31-11.17-24.25-6.31-3.73-8.4-.7c-2.1,3.03-5.25,7.93-4.86,11.9Z"/><path class="cls-25_data-processing-51" d="M187.6,125.13s5.14,9.12,7.46,9.34,35.49-14.25,35.49-14.25l5.14-1.66s1.17-5.6,1.4-6.77,2.1-5.13-.47-5.6-6.52,2.83-6.52,2.83l-1.87,4.67-28.01,8.64-2.88-5.06-9.73,7.86Z"/><path class="cls-23_data-processing-51" d="M217.46,59.22c1.17-2.67.11-6.39-2.67-7.28-2.29-.75-4.72.56-7.12.6-2.05,0-4-.83-6.03-1.07-4.97-.43-9.52,2.79-10.77,7.62-.11.72-.31,1.43-.6,2.1-.83,1.5-2.95,2.12-3.36,3.79-.12.82,0,1.66.33,2.41l2.64,7.85c.3.88.97,1.96,1.85,1.66.49-.17.72-.71.9-1.21l1.77-4.91c1.59-.14,1.24,3.56,2.83,3.31,1.03-.17.83-1.66.57-2.7-.49-2.87,1.44-5.58,4.31-6.07,0,0,.02,0,.03,0,.77.01,1.54-.11,2.26-.37.45-.34.92-.65,1.4-.93,1.95-.73,4.01.9,6.23.06,2.37-.85,4.33-2.58,5.45-4.84Z"/><polygon class="cls-26_data-processing-51 targetColor" points="236.15 217.8 237.78 222.24 250.39 222.01 234.52 229.24 231.49 219.44 236.15 217.8" style="fill: rgb(104, 225, 253);"/><polygon class="cls-11_data-processing-51" points="235.1 218.38 236.74 222.82 249.34 222.59 233.47 229.82 230.43 220.02 235.1 218.38"/><polygon class="cls-26_data-processing-51 targetColor" points="258.33 204.49 259.96 208.93 272.57 208.7 256.7 215.93 253.66 206.13 258.33 204.49" style="fill: rgb(104, 225, 253);"/><polygon class="cls-8_data-processing-51" points="257.28 205.07 258.91 209.52 271.52 209.28 255.64 216.52 252.61 206.71 257.28 205.07"/></g></svg>