<svg id="_86_data_analysis_outline" xmlns="http://www.w3.org/2000/svg" xmlns:xlink="http://www.w3.org/1999/xlink" viewBox="0 0 500 500" data-imageid="data-analysis-7" imageName="Data Analysis" class="illustrations_image" style="width: 262px;"><defs><style>.cls-1_data-analysis-7{fill:url(#linear-gradient);}.cls-1_data-analysis-7,.cls-2_data-analysis-7,.cls-3_data-analysis-7,.cls-4_data-analysis-7,.cls-5_data-analysis-7,.cls-6_data-analysis-7,.cls-7_data-analysis-7,.cls-8_data-analysis-7,.cls-9_data-analysis-7,.cls-10_data-analysis-7,.cls-11_data-analysis-7,.cls-12_data-analysis-7,.cls-13_data-analysis-7,.cls-14_data-analysis-7,.cls-15_data-analysis-7,.cls-16_data-analysis-7,.cls-17_data-analysis-7,.cls-18_data-analysis-7,.cls-19_data-analysis-7,.cls-20_data-analysis-7,.cls-21_data-analysis-7,.cls-22_data-analysis-7{stroke-width:0px;}.cls-2_data-analysis-7{opacity:.18;}.cls-2_data-analysis-7,.cls-6_data-analysis-7,.cls-7_data-analysis-7,.cls-8_data-analysis-7,.cls-9_data-analysis-7,.cls-10_data-analysis-7{isolation:isolate;}.cls-2_data-analysis-7,.cls-22_data-analysis-7{fill:#68e1fd;}.cls-3_data-analysis-7{fill:url(#linear-gradient-12-data-analysis-7);}.cls-4_data-analysis-7{fill:url(#linear-gradient-13-data-analysis-7);}.cls-5_data-analysis-7{fill:url(#linear-gradient-14-data-analysis-7);}.cls-6_data-analysis-7{fill:url(#linear-gradient-15-data-analysis-7);}.cls-6_data-analysis-7,.cls-7_data-analysis-7,.cls-8_data-analysis-7,.cls-9_data-analysis-7,.cls-10_data-analysis-7{opacity:.69;}.cls-7_data-analysis-7{fill:url(#linear-gradient-16-data-analysis-7);}.cls-8_data-analysis-7{fill:url(#linear-gradient-11-data-analysis-7);}.cls-9_data-analysis-7{fill:url(#linear-gradient-10-data-analysis-7);}.cls-10_data-analysis-7{fill:url(#linear-gradient-7-data-analysis-7);}.cls-11_data-analysis-7{fill:url(#linear-gradient-4-data-analysis-7);}.cls-12_data-analysis-7{fill:url(#linear-gradient-2-data-analysis-7);}.cls-13_data-analysis-7{fill:url(#linear-gradient-3-data-analysis-7);}.cls-14_data-analysis-7{fill:url(#linear-gradient-8-data-analysis-7);}.cls-15_data-analysis-7{fill:url(#linear-gradient-9-data-analysis-7);}.cls-16_data-analysis-7{fill:url(#linear-gradient-5-data-analysis-7);}.cls-17_data-analysis-7{fill:url(#linear-gradient-6-data-analysis-7);}.cls-18_data-analysis-7{fill:#231f20;}.cls-19_data-analysis-7{fill:#b6765e;}.cls-20_data-analysis-7{fill:#fff;}.cls-21_data-analysis-7{fill:#ffb4a3;}</style><linearGradient id="linear-gradient-data-analysis-7" x1="291.51" y1="1359.37" x2="312.11" y2="1712.52" gradientTransform="translate(-60.97 1891.29) scale(1 -1)" gradientUnits="userSpaceOnUse"><stop offset="0" stop-color="#000" stop-opacity="0"/><stop offset=".99" stop-color="#000"/></linearGradient><linearGradient id="linear-gradient-2-data-analysis-7" x1="328.82" y1="1678.26" x2="326.33" y2="1582.11" xlink:href="#linear-gradient-data-analysis-7"/><linearGradient id="linear-gradient-3-data-analysis-7" x1="328.89" y1="1625.65" x2="296.3" y2="1475.5" gradientTransform="translate(-61.17 1893.84) rotate(-.2) scale(1 -1)" xlink:href="#linear-gradient-data-analysis-7"/><linearGradient id="linear-gradient-4-data-analysis-7" x1="318.34" y1="1610.75" x2="300.91" y2="1530.42" gradientTransform="translate(-61.17 1893.84) rotate(-.2) scale(1 -1)" xlink:href="#linear-gradient-data-analysis-7"/><linearGradient id="linear-gradient-5-data-analysis-7" x1="288.06" y1="1442.41" x2="388.37" y2="1594.83" gradientTransform="translate(-61.17 1893.84) rotate(-.2) scale(1 -1)" xlink:href="#linear-gradient-data-analysis-7"/><linearGradient id="linear-gradient-6-data-analysis-7" x1="448.22" y1="1670.89" x2="391.39" y2="1508.91" gradientTransform="translate(-61.17 1893.84) rotate(-.2) scale(1 -1)" xlink:href="#linear-gradient-data-analysis-7"/><linearGradient id="linear-gradient-7-data-analysis-7" x1="410.2" y1="1681.23" x2="372.12" y2="1570.71" gradientTransform="translate(-60.97 1891.29) scale(1 -1)" gradientUnits="userSpaceOnUse"><stop offset=".02" stop-color="#fff" stop-opacity="0"/><stop offset=".58" stop-color="#fff" stop-opacity=".39"/><stop offset=".68" stop-color="#fff" stop-opacity=".68"/><stop offset="1" stop-color="#fff"/></linearGradient><linearGradient id="linear-gradient-8-data-analysis-7" x1="369.53" y1="1633.2" x2="332.38" y2="1560.77" gradientTransform="translate(-31 1892.57) scale(1 -1)" xlink:href="#linear-gradient-data-analysis-7"/><linearGradient id="linear-gradient-9-data-analysis-7" x1="290.04" y1="1449.38" x2="387.3" y2="1597.17" gradientTransform="translate(-61.17 1893.84) rotate(-.2) scale(1 -1)" xlink:href="#linear-gradient-data-analysis-7"/><linearGradient id="linear-gradient-10-data-analysis-7" x1="409.12" y1="1621.69" x2="294.53" y2="1223.45" xlink:href="#linear-gradient-7-data-analysis-7"/><linearGradient id="linear-gradient-11-data-analysis-7" x1="318.11" y1="1433.4" x2="213.44" y2="1668.73" xlink:href="#linear-gradient-7-data-analysis-7"/><linearGradient id="linear-gradient-12-data-analysis-7" x1="222.94" y1="1628.57" x2="228.09" y2="1543.8" xlink:href="#linear-gradient-data-analysis-7"/><linearGradient id="linear-gradient-13-data-analysis-7" x1="223.97" y1="1680.06" x2="182.81" y2="1662.52" xlink:href="#linear-gradient-data-analysis-7"/><linearGradient id="linear-gradient-14-data-analysis-7" x1="210.53" y1="1675.77" x2="168.57" y2="1683.3" gradientTransform="translate(-31 1892.57) scale(1 -1)" xlink:href="#linear-gradient-data-analysis-7"/><linearGradient id="linear-gradient-15-data-analysis-7" x1="220.33" y1="1586.16" x2="216.12" y2="1597.64" xlink:href="#linear-gradient-7-data-analysis-7"/><linearGradient id="linear-gradient-16-data-analysis-7" x1="243.61" y1="1590.29" x2="245.72" y2="1596.26" xlink:href="#linear-gradient-7-data-analysis-7"/></defs><path id="background_data-analysis-7" class="cls-2_data-analysis-7 targetColor" d="M280.17,462.31c22.25-2.91,44.49-7.67,64.53-17.8,31.56-15.96,55.17-43.96,84.31-64.07,10.92-7.54,22.62-13.98,32.79-22.5,21.86-18.28,35.41-45.87,37.8-74.3,2.39-28.43-6.07-57.43-22.35-80.86-14.96-21.53-36.15-38.5-48.78-61.47-7.18-13.09-11.28-27.68-17.95-41.03-19.82-39.74-63.58-66.32-108.01-65.59-30.69.51-59.82,12.81-89.88,18.82-23.81,4.75-48.24,5.56-72.31,2.4-16.1-2.13-32.04-6.02-48.24-6.58s-33.35,2.67-45.81,13.07c-18.33,15.31-22.13,41.77-22.06,65.63.06,18.4,1.64,36.75,4.73,54.89,3.91,22.92,10.24,46.19,6.27,69.1-3.56,20.72-15.33,39.27-19.5,59.87-9.79,48.48,22.43,74.75,56.16,100.77,37.8,29.13,80.26,45.67,127.79,50.8,26.79,2.79,53.82,2.4,80.52-1.17Z" style="fill: rgb(104, 225, 253);"/><g id="data_report_data-analysis-7"><path class="cls-22_data-analysis-7 targetColor" d="M236.42,144.34h-1.29c.18-.53.35-1.06.51-1.59.28.53.53,1.05.78,1.59Z" style="fill: rgb(104, 225, 253);"/><path class="cls-22_data-analysis-7 targetColor" d="M236.42,144.34h-1.29c.18-.53.35-1.06.51-1.59.28.53.53,1.05.78,1.59Z" style="fill: rgb(104, 225, 253);"/><rect class="cls-22_data-analysis-7 targetColor" x="189.93" y="87.69" width="154" height="199.86" rx="11.19" ry="11.19" style="fill: rgb(104, 225, 253);"/><rect class="cls-20_data-analysis-7" x="201.16" y="101.71" width="129.7" height="170.03"/><rect class="cls-22_data-analysis-7 targetColor" x="239.69" y="79.86" width="55.02" height="16.39" rx="6.33" ry="6.33" style="fill: rgb(104, 225, 253);"/><rect class="cls-20_data-analysis-7" x="241.25" y="81.17" width="51.76" height="16.95" rx="6.24" ry="6.24"/><rect class="cls-2_data-analysis-7 targetColor" x="215.53" y="174.62" width="21.86" height="21.86" style="fill: rgb(104, 225, 253);"/><rect class="cls-2_data-analysis-7 targetColor" x="215.53" y="204.59" width="21.86" height="21.86" style="fill: rgb(104, 225, 253);"/><rect class="cls-2_data-analysis-7 targetColor" x="242.69" y="174.62" width="21.86" height="21.86" style="fill: rgb(104, 225, 253);"/><rect class="cls-2_data-analysis-7 targetColor" x="242.69" y="204.59" width="21.86" height="21.86" style="fill: rgb(104, 225, 253);"/><rect class="cls-2_data-analysis-7 targetColor" x="214.75" y="112.48" width="92.42" height="4.68" rx="2.34" ry="2.34" style="fill: rgb(104, 225, 253);"/><path class="cls-22_data-analysis-7 targetColor" d="M294.93,197.51h-23.32v-24.26h23.32v24.26ZM272.45,196.68h21.64v-22.59h-21.64v22.59Z" style="fill: rgb(104, 225, 253);"/><path class="cls-22_data-analysis-7 targetColor" d="M294.93,228.73h-23.32v-24.25h23.32v24.25ZM272.45,227.9h21.64v-22.6h-21.64v22.6Z" style="fill: rgb(104, 225, 253);"/><path class="cls-22_data-analysis-7 targetColor" d="M269.52,167.22h-54.1v-42.62c0-.92.75-1.66,1.66-1.66h0c.91,0,1.66.73,1.66,1.65,0,0,0,0,0,0v39.3h50.77c.92,0,1.66.74,1.66,1.66h0c0,.92-.75,1.66-1.66,1.66Z" style="fill: rgb(104, 225, 253);"/><polygon class="cls-2_data-analysis-7 targetColor" points="218.18 146.2 231.61 132.78 252.84 149.64 261.27 142.77 269.54 151.04 269.54 163.9 218.76 163.9 218.18 146.2" style="fill: rgb(104, 225, 253);"/><polygon class="cls-22_data-analysis-7 targetColor" points="278.67 183.71 285.23 189.68 306.54 167.91 285.7 184.99 281.25 180.54 278.67 183.71" style="fill: rgb(104, 225, 253);"/></g><path id="floor_data-analysis-7" class="cls-1_data-analysis-7" d="M101.07,364.03H23.44s63.92,67.53,89.21,73.15c25.29,5.62,262.72-11.19,262.72-11.19l39.33-36.53,42.62-27.16-61.23.74-295.03,1Z"/><path id="shadow_data-analysis-7" class="cls-12_data-analysis-7" d="M189.81,242.36s74.93-20.92,153.95,0v23.72l-153.95-9.67v-14.05Z"/><g id="pie_chart_data-analysis-7"><path class="cls-22_data-analysis-7 targetColor" d="M396.1,363c.1,26.58-65.85,48.37-147.34,48.66-81.49.28-147.6-21.04-147.69-47.62l-.24-67.4c20.32-18.69,83.53,18.96,147.59,18.74,49.12-.18,120.59-31.73,147.45-19.77l.23,67.39Z" style="fill: rgb(104, 225, 253);"/><path class="cls-13_data-analysis-7" d="M395.86,295.61l.24,67.38c.1,26.59-65.85,48.37-147.34,48.66-81.49.28-147.6-21.03-147.69-47.62l-.23-67.38c.09,26.58,66.21,47.9,147.72,47.62,81.51-.28,147.39-22.08,147.3-48.66Z"/><path class="cls-11_data-analysis-7" d="M395.86,295.61c.1,26.58-65.85,48.37-147.34,48.66-81.49.28-147.59-21.04-147.68-47.62,20.31-18.69,83.52,18.96,147.58,18.69,49.13-.12,120.6-31.69,147.44-19.73Z"/><path class="cls-22_data-analysis-7 targetColor" d="M395.86,295.61c0,.53,0,1.05-.07,1.58-2.45,25.87-67.41,46.8-147.27,47.08-81.47.28-147.59-21.04-147.68-47.62s65.85-48.37,147.34-48.67c13.6-.04,26.77.51,39.28,1.6,62.42,5.38,108.33,23.88,108.4,46.03Z" style="fill: rgb(104, 225, 253);"/><path class="cls-16_data-analysis-7" d="M395.79,297.16h0c-4.74,39.35-122.21,46.47-122.21,46.47l-21.53-56.46,143.73,6.03v3.96Z"/><path class="cls-17_data-analysis-7" d="M395.86,297.16l.23,65.85c.61,40.22-122.3,47.19-122.3,47.19l-.23-66.55s117.47-7.12,122.21-46.47l.09-.03Z"/><path class="cls-22_data-analysis-7 targetColor" d="M395.86,286.95c0,.52,0,1.04-.07,1.57l-143.73-10,35.4-37.62c62.42,5.42,108.33,23.91,108.4,46.06Z" style="fill: rgb(104, 225, 253);"/><path class="cls-10_data-analysis-7" d="M395.86,286.95c0,.52,0,1.04-.07,1.57l-143.73-10,35.4-37.62c62.42,5.42,108.33,23.91,108.4,46.06Z"/><polygon class="cls-22_data-analysis-7 targetColor" points="252.07 278.51 252.07 287.17 395.78 297.18 395.78 288.51 252.07 278.51" style="fill: rgb(104, 225, 253);"/><polygon class="cls-14_data-analysis-7" points="252.07 278.51 252.07 287.17 395.78 297.18 395.78 288.51 252.07 278.51"/><path class="cls-15_data-analysis-7" d="M395.79,293.18h0c-4.75,39.37-122.22,46.49-122.22,46.49l-21.52-56.48,143.74,9.99Z"/><path class="cls-9_data-analysis-7" d="M273.58,339.67v70.52s68.4-4.56,93.84-18.45l-1.56-69.87s-37.37,13.8-92.28,17.8Z"/><path class="cls-8_data-analysis-7" d="M252.21,285.21l-91.78,49.88v66.96s60.04,14.88,113.15,8.14v-66.55l-21.37-58.44Z"/></g><g id="character_data-analysis-7"><path class="cls-18_data-analysis-7" d="M149.89,299.2c-.26.41-.26.94,0,1.35.41.82,9.79,1.78,12.17-.29s.64-3.63.64-3.63l-12.81,2.57Z"/><path class="cls-18_data-analysis-7" d="M190.77,298.27c.28.4.31.92.08,1.34-.36.84-4.97,2.67-12.63-.23-2.96-1.1-.4-2.95-.4-2.95l12.95,1.83Z"/><path class="cls-3_data-analysis-7" d="M139.42,287.16c-3.01.1-6.54.5-8.01,3.11,5.41,2.57,11.2,4.26,17.15,5l.33,4.4c4.24.12,8.49.12,12.74,0,.95,0,2.14-.21,2.45-1.12.08-.42.08-.85,0-1.27-.1-2.75,3.56-4.8,5.86-3.26.89.61,1.5,1.56,2.33,2.24,1.9,1.53,4.61,1.37,7.04,1.14l10.15-.98-7.6-5.17,10.6-2.49c1.59-.37,3.62-1.49,3.08-3.03-.37-1.05-1.72-1.32-2.83-1.39-8.9-.61-17.1.53-25.81,1.84-8.79,1.36-18.47.69-27.48.96Z"/><path class="cls-21_data-analysis-7" d="M184.53,289.6l.4,4.1s-1.58,2.38-3.63,2.54-2.75-.84-2.75-.84l.34-6.04"/><path class="cls-21_data-analysis-7" d="M155.94,290.04l-.4,4.21s1.61,2.45,3.72,2.61,2.83-.89,2.83-.89l-.35-6.23"/><path class="cls-22_data-analysis-7 targetColor" d="M161,197.81s-8.16,3.93-8.35,5.23.89,33.05.89,33.05c0,0,2.67,3.43,10.76,3.43s10.95-2.32,10.82-3.48c-.46-4.02,1.69-32.77,1.51-34.12s-7.72-4.1-7.72-4.1l-7.92-.02Z" style="fill: rgb(104, 225, 253);"/><path class="cls-4_data-analysis-7" d="M166.07,217.96s-9.79,1.78-10.44,1.15-2.91-16.56-2.98-16.07c-.13.89.41,16.18.72,24.68,5.04-1.52,15.59-6.88,15.59-6.88-.78-1.13-1.76-2.1-2.89-2.87Z"/><path class="cls-21_data-analysis-7" d="M165.96,216.41h.04c.48-.3.99-.55,1.52-.76l.37-.16c.25-.11.51-.2.78-.26.21-.04.43-.04.64,0,.1,0,.2.05.2.15,0,.04-.02.08-.04.11-.1.13-.23.23-.38.28-.04.01-.08.03-.12.06-.03.04-.03.09,0,.12h.06c.82.07,1.64.24,2.42.51.42.18.89.52.83.98-.08.31-.27.57-.54.74l-1.18.94c-.37.33-.78.6-1.23.8-1.24.51-2.75,0-3.92.63-.4.22-.89.58-1.26.35-.14-.1-.25-.23-.33-.38-.35-.6-1.24-2.03-.77-2.67.54-.53,1.22-.9,1.97-1.04.33-.1.65-.24.94-.41Z"/><path class="cls-21_data-analysis-7" d="M161.02,192.83s-.06,2.85,0,4.94c0,1.55.55,4.54,3.86,4.54s3.69-3.81,3.64-4.54c.09-1.1.09-2.21,0-3.32-.25-1.77-7.31-2.84-7.5-1.62Z"/><path class="cls-22_data-analysis-7 targetColor" d="M160.98,197.54c-.49-.2-1.06,0-1.31.48-.5.83-.53,2.49,0,4.77.15,1,.48,1.97.97,2.86,0,0,2.17-3.06,3.69-3.19,0,0-3.01-.6-3.35-4.92Z" style="fill: rgb(104, 225, 253);"/><path class="cls-22_data-analysis-7 targetColor" d="M168.51,197.54c.49-.2,1.06,0,1.31.48.5.83.53,2.49,0,4.77-.15,1-.48,1.97-.97,2.86,0,0-2.17-3.06-3.69-3.19,0,0,3.01-.6,3.35-4.92Z" style="fill: rgb(104, 225, 253);"/><path class="cls-18_data-analysis-7" d="M153.57,236.09s-.61,4.71.55,23.83c1.09,17.8,1.39,30.26,1.39,30.26,0,0,.12,1.46,3.19,1.5s3.88-1.98,3.88-1.98l3-45.7,12.5,46.63s3.68,2.12,6.56.53c2.04-1.13-9.49-55.17-9.49-55.17-6.82,3.23-14.73,3.27-21.58.1Z"/><path class="cls-22_data-analysis-7 targetColor" d="M154.17,201.56c-1.16.79-2.16,1.79-2.95,2.95-1.3,1.9-3.43,17.91-2.45,22.25.42,1.83,15.52-5.01,15.52-5.01,0,0-.36-3.07-1.96-4.11,0,0-7.4,1.58-7.96,1.03s-.2-17.11-.2-17.11Z" style="fill: rgb(104, 225, 253);"/><path class="cls-21_data-analysis-7" d="M171.02,182.82s-.83,2.54-.06,3.75c2.85,4.45,1.23,4,.17,4.09-.13,0,.05.89-.33,2.5-.3,1.29.61,4.24-3.37,3-1.14-.36-6.67-1.9-7.06-5.34-.49-4.27-3.11-9.68,2.06-11.49,6.2-2.16,8.22-.48,8.59,3.49Z"/><path class="cls-19_data-analysis-7" d="M168.57,196.39s-4.03-1.49-5.86-2.32c0,0,3.79,3.61,5.76,3.56l.1-1.24Z"/><path class="cls-22_data-analysis-7 targetColor" d="M176.67,201.93s5.64,14.06,5.93,16.71-3.11,3.96-4.62,3.56c-3.35-.94-2.82-6.68-2.82-6.68l1.51-13.59Z" style="fill: rgb(104, 225, 253);"/><path class="cls-21_data-analysis-7" d="M172.85,198.09c-.19-.42-.43-.82-.72-1.18-.13-.17-.3-.29-.5-.35-.16-.02-.31-.04-.47-.04-.2-.04-.4-.1-.59-.19-.53-.22-1.12-.25-1.67-.08-.55.18-.98.62-1.15,1.17-.07.21-.04.45.08.64.16.18.42.22.63.1.05.34.01.68-.1,1-.1.44-.1.9,0,1.33.08.45.32.85.68,1.14.59.46,1.43.49,2.03.95.09.08.19.15.29.21.18.08.37.12.57.12.4.05.8-.02,1.15-.21.19-.14.32-.35.52-.47.07-.04.14-.09.2-.15.18-.22.13-.74.15-1.01,0-.29-.04-.57-.14-.85-.26-.74-.58-1.45-.96-2.13Z"/><path class="cls-22_data-analysis-7 targetColor" d="M182.59,218.64l-7.77-17.26-4.22,2.05,4.89,16.1s1.4,3.83,4.06,2.5,2.8-1.05,3.04-3.39Z" style="fill: rgb(104, 225, 253);"/><path class="cls-18_data-analysis-7" d="M171.39,179.08c-.12,1.16-.98,2.12-2.13,2.35-.69.05-1.38.05-2.07,0-.71-.05-1.38.32-1.74.93-.11.24-.13.53-.34.69s-.6.12-.89.18c-.79.17-.99,1.19-1.01,2l-.09,2.94c-.38-.49-.81-.94-1.28-1.35-.78,1-.61,2.44.39,3.22.18.14.38.25.59.34-.49.31-.52,1-.56,1.57s-.28,1.29-.89,1.36-.83-.3-1.11-.65c-2.07-2.54-3.29-5.67-3.48-8.94,0-.53-.07-1.07-.2-1.58-.12-.36-.31-.69-.45-1.04-.71-1.86.52-4.01,2.23-5.02s3.78-1.17,5.78-1.3l6.45-.42c.11-.02.23-.02.35,0,.5.12.6.89.28,1.25-.62.83-.97.35-.76,1.31.22.78,1.01,1.12.93,2.16Z"/><polygon class="cls-5_data-analysis-7" points="175.53 219.82 171.14 203.2 170.44 204.2 173.88 219.07 175.27 228.13 175.53 219.82"/><path class="cls-22_data-analysis-7 targetColor" d="M175.13,235.77s-6.15,1.67-9.08,1.57-12.46-2.03-12.46-2.03c0,0-1.07,4.11-.51,4.53s3.43.15,7.48.31,6.53,2.01,9.79,1.94c3.26-.07,5.18-4.45,5.18-4.45l-.41-1.87Z" style="fill: rgb(104, 225, 253);"/><path class="cls-22_data-analysis-7 targetColor" d="M155.86,293.28c-.27-.19-3.09,1.65-4.61,2.67-.8.55-1.67,1.25-1.7,2.22.04.73.46,1.39,1.11,1.72.65.32,1.36.49,2.08.51,2.34.11,4.69-.09,6.98-.59,1.46-.28,3.14-.84,3.56-2.25.16-.74.1-1.52-.19-2.22-.24-.77-.72-2.19-1.17-1.71-.77.84-3.2,1.64-6.07-.34Z" style="fill: rgb(104, 225, 253);"/><path class="cls-22_data-analysis-7 targetColor" d="M184.81,292.86c1.66.58,3.21,1.44,4.57,2.56.79.55,1.67,1.25,1.69,2.21-.03.74-.45,1.4-1.11,1.73-.65.32-1.35.49-2.07.51-2.34.11-4.69-.09-6.99-.59-1.46-.28-3.14-.84-3.56-2.25-.16-.75-.1-1.52.19-2.23.19-.67.59-1.26,1.13-1.69,0,0,1.78,1.4,2.93,1.45.89.04,3.23-1.69,3.23-1.69Z" style="fill: rgb(104, 225, 253);"/><path class="cls-6_data-analysis-7" d="M155.86,293.28c-.27-.19-3.09,1.65-4.61,2.67-.8.55-1.67,1.25-1.7,2.22.04.73.46,1.39,1.11,1.72.65.32,1.36.49,2.08.51,2.34.11,4.69-.09,6.98-.59,1.46-.28,3.14-.84,3.56-2.25.16-.74.1-1.52-.19-2.22-.24-.77-.72-2.19-1.17-1.71-.77.84-3.2,1.64-6.07-.34Z"/><path class="cls-7_data-analysis-7" d="M184.81,292.86c1.66.58,3.21,1.44,4.57,2.56.79.55,1.67,1.25,1.69,2.21-.03.74-.45,1.4-1.11,1.73-.65.32-1.35.49-2.07.51-2.34.11-4.69-.09-6.99-.59-1.46-.28-3.14-.84-3.56-2.25-.16-.75-.1-1.52.19-2.23.19-.67.59-1.26,1.13-1.69,0,0,1.78,1.4,2.93,1.45.89.04,3.23-1.69,3.23-1.69Z"/></g></svg>